<svg width="35" height="35" viewBox="0 0 35 35" fill="none" xmlns="http://www.w3.org/2000/svg">
<g clip-path="url(#clip0_1_231)">
<path d="M2.00361 0H27.0061C27.4331 0.0332682 27.7949 0.154264 28.0916 0.362988C28.6818 0.778613 28.9773 1.36969 28.9782 2.13623C28.9823 4.48141 28.9844 6.82682 28.9844 9.17246C28.9844 9.44499 28.9604 9.6389 28.9126 9.7542C28.8196 9.98024 28.6496 10.1083 28.4026 10.1384C28.1898 10.1648 28.0098 10.1156 27.8626 9.99072C27.7031 9.85537 27.6231 9.66397 27.6227 9.4165C27.619 6.98975 27.6172 4.56299 27.6172 2.13623C27.6172 1.80355 27.4946 1.57728 27.2494 1.45742C27.1259 1.39727 26.8994 1.36719 26.5699 1.36719C18.4256 1.36719 10.281 1.36719 2.13623 1.36719C1.79626 1.36719 1.56794 1.49342 1.45127 1.7459C1.39521 1.86758 1.36719 2.09749 1.36719 2.43564C1.36719 12.5615 1.36719 22.6871 1.36719 32.8125C1.36719 33.1584 1.48545 33.397 1.72197 33.5282C1.8473 33.5979 2.07266 33.6328 2.39805 33.6328C10.5592 33.6328 18.7207 33.6328 26.8823 33.6328C27.1703 33.6328 27.377 33.5237 27.5023 33.3054C27.5671 33.1923 27.6006 33.0171 27.6028 32.7797C27.6138 31.68 27.6186 30.0788 27.6172 27.9761C27.6172 27.7154 27.7051 27.5194 27.8811 27.3882C28.0424 27.2683 28.2299 27.2271 28.4437 27.2645C28.6624 27.3032 28.8167 27.4246 28.9064 27.6288C28.9552 27.7405 28.98 27.9212 28.981 28.1709C28.9851 29.498 28.9862 30.8251 28.9844 32.1521C28.9844 32.1581 28.9862 32.3246 28.9898 32.6519C28.993 32.9859 28.9785 33.2147 28.9461 33.3382C28.6836 34.3385 28.0342 34.8924 26.9979 35H1.99541C0.80778 34.8619 0.142643 34.1997 0 33.0135V1.99541C0.138997 0.800488 0.806868 0.135352 2.00361 0Z" fill="black"/>
<path d="M20.7723 9.98135C20.7723 10.8061 20.6098 11.6227 20.2942 12.3847C19.9786 13.1466 19.516 13.8389 18.9328 14.4221C18.3497 15.0053 17.6574 15.4679 16.8954 15.7835C16.1335 16.0991 15.3168 16.2615 14.4921 16.2615C12.8265 16.2615 11.2291 15.5999 10.0513 14.4221C8.87357 13.2443 8.21191 11.647 8.21191 9.98135C8.21191 8.31574 8.87357 6.71835 10.0513 5.54059C11.2291 4.36283 12.8265 3.70117 14.4921 3.70117C16.1577 3.70117 17.7551 4.36283 18.9328 5.54059C20.1106 6.71835 20.7723 8.31574 20.7723 9.98135ZM13.1618 7.20664C13.6923 6.86393 14.2699 6.7459 14.8947 6.85254C15.3017 6.92227 15.6608 7.07539 15.9721 7.31191C16.3011 7.56211 16.5522 7.87907 16.7254 8.26279C16.8329 8.50068 16.9004 8.76455 16.9277 9.05439C16.9519 9.30778 16.9544 9.58258 16.9353 9.87881C16.9065 10.3291 16.7539 10.7502 16.4772 11.1421C16.4712 11.1509 16.4671 11.1608 16.4653 11.1714C16.4635 11.1819 16.464 11.1926 16.4668 11.2029C16.4696 11.2132 16.4746 11.2228 16.4815 11.2309C16.4884 11.2391 16.497 11.2456 16.5066 11.2501C17.2659 11.6001 17.8982 12.1324 18.4036 12.847C18.408 12.8533 18.4139 12.8585 18.4207 12.8621C18.4276 12.8657 18.4352 12.8675 18.4429 12.8675C18.4506 12.8675 18.4583 12.8657 18.4651 12.8621C18.4719 12.8585 18.4778 12.8533 18.4822 12.847C19.066 12.0139 19.3725 11.0986 19.4017 10.101C19.4149 9.64206 19.3645 9.19066 19.2506 8.74678C19.0132 7.82256 18.5447 7.03643 17.8451 6.38838C16.9268 5.53662 15.8486 5.09684 14.6104 5.06904C14.1432 5.05856 13.6918 5.1096 13.2562 5.22217C12.3921 5.44547 11.6404 5.87979 11.001 6.5251C10.5416 6.98812 10.1884 7.51995 9.94141 8.1206C9.76914 8.53942 9.65931 8.97988 9.61191 9.44199C9.48932 10.6337 9.77894 11.7582 10.4808 12.8155C10.4871 12.8253 10.4958 12.8333 10.506 12.839C10.5161 12.8446 10.5275 12.8477 10.5392 12.848C10.5508 12.8483 10.5623 12.8457 10.5728 12.8405C10.5832 12.8353 10.5922 12.8277 10.599 12.8183C11.1017 12.1292 11.729 11.6072 12.481 11.2521C12.4905 11.2476 12.4988 11.2411 12.5055 11.233C12.5122 11.2248 12.517 11.2153 12.5195 11.2051C12.5221 11.1949 12.5223 11.1843 12.5203 11.174C12.5182 11.1637 12.5139 11.1539 12.5076 11.1455C12.3153 10.8835 12.179 10.5866 12.0988 10.2548C12.01 9.88656 11.9986 9.44222 12.0646 8.92178C12.1098 8.56859 12.2319 8.23841 12.4311 7.93125C12.6188 7.64186 12.8624 7.40033 13.1618 7.20664ZM15.2502 8.4877C15.0693 8.31497 14.8637 8.21357 14.6336 8.1835C14.4203 8.1557 14.2075 8.19603 13.9951 8.30449C13.6866 8.46217 13.497 8.70895 13.4264 9.04482C13.3676 9.32419 13.3651 9.60674 13.4188 9.89248C13.4781 10.2088 13.641 10.4505 13.9076 10.6178C14.151 10.77 14.4151 10.821 14.6999 10.7709C15.0449 10.7098 15.2971 10.5166 15.4566 10.1912C15.5291 10.0426 15.571 9.86582 15.5824 9.66074C15.5924 9.47754 15.5858 9.29411 15.5626 9.11045C15.5321 8.86481 15.4279 8.65723 15.2502 8.4877ZM16.7869 13.0698C16.1844 12.5284 15.4986 12.2331 14.7293 12.1839C14.2681 12.1547 13.8194 12.2144 13.3833 12.363C12.6204 12.6228 12.0093 13.1209 11.5499 13.8573C11.5431 13.8683 11.5406 13.8813 11.543 13.8939C11.5454 13.9065 11.5525 13.9176 11.5629 13.925C12.2406 14.419 12.9896 14.7262 13.8099 14.8465C14.2674 14.9135 14.7213 14.9132 15.1716 14.8458C15.9759 14.7255 16.7256 14.4183 17.4206 13.9243C17.4311 13.9169 17.4384 13.9058 17.4411 13.8931C17.4437 13.8805 17.4415 13.8672 17.435 13.856C17.2645 13.567 17.0485 13.305 16.7869 13.0698Z" fill="black"/>
<path d="M20.6262 31.154C20.4125 30.995 20.3209 30.7785 20.3514 30.5046C20.5501 28.7154 20.7504 26.9267 20.9523 25.1384C20.9637 25.0368 21.0134 24.9098 21.1013 24.7576C23.7847 20.0983 26.4735 15.4421 29.1677 10.7891C29.5615 10.1087 29.7973 9.71902 29.8753 9.62013C30.2403 9.15665 30.7067 8.83787 31.2746 8.66378C32.0457 8.42771 32.7673 8.48946 33.4395 8.84903C33.8501 9.06915 34.191 9.36583 34.4622 9.73907C34.8659 10.2941 35.0396 10.9326 34.9831 11.6545C34.9575 11.9776 34.8689 12.301 34.7172 12.6245C34.6935 12.6747 34.5298 12.9638 34.2263 13.492C31.517 18.2033 28.8 22.9101 26.0752 27.6123C25.995 27.7509 25.9038 27.8584 25.8017 27.935C24.4158 28.9768 23.0222 30.0083 21.6209 31.0296C21.4176 31.1782 21.2677 31.2636 21.1711 31.2859C20.9847 31.3302 20.8031 31.2862 20.6262 31.154ZM30.7694 10.7569C30.5584 11.0887 30.3617 11.4289 30.1795 11.7775C30.1752 11.7858 30.1742 11.7953 30.1768 11.8042C30.1793 11.8131 30.1852 11.8207 30.1931 11.8254L32.717 13.291C32.7262 13.2964 32.7371 13.2979 32.7475 13.2954C32.7579 13.2928 32.7671 13.2864 32.773 13.2774C32.9877 12.9369 33.1891 12.5844 33.3773 12.2198C33.5163 11.9514 33.5949 11.7204 33.6131 11.5267C33.6469 11.1735 33.5685 10.8556 33.378 10.5731C33.2053 10.3165 32.9621 10.1262 32.6486 10.0023C32.1573 9.80811 31.6968 9.8685 31.2671 10.1834C31.1016 10.3046 30.9357 10.4958 30.7694 10.7569ZM32.0588 14.5242C32.0609 14.5207 32.0622 14.5169 32.0627 14.5128C32.0632 14.5088 32.063 14.5048 32.0619 14.5009C32.0609 14.497 32.0591 14.4933 32.0566 14.4901C32.0541 14.4869 32.0511 14.4842 32.0476 14.4822L29.496 13.009C29.4925 13.007 29.4887 13.0057 29.4846 13.0052C29.4806 13.0047 29.4766 13.0049 29.4727 13.006C29.4688 13.007 29.4651 13.0088 29.4619 13.0113C29.4587 13.0137 29.456 13.0168 29.454 13.0203L22.5811 24.9244C22.5791 24.9279 22.5778 24.9318 22.5773 24.9358C22.5767 24.9398 22.577 24.9439 22.5781 24.9478C22.5791 24.9517 22.5809 24.9553 22.5834 24.9585C22.5858 24.9617 22.5889 24.9644 22.5924 24.9665L25.144 26.4396C25.1475 26.4416 25.1513 26.4429 25.1553 26.4435C25.1593 26.444 25.1634 26.4437 25.1673 26.4427C25.1712 26.4416 25.1749 26.4398 25.1781 26.4374C25.1813 26.4349 25.184 26.4318 25.186 26.4283L32.0588 14.5242ZM24.1132 27.4243L22.2429 26.3395C22.2377 26.3365 22.2319 26.3348 22.2259 26.3347C22.2199 26.3345 22.2139 26.3359 22.2086 26.3386C22.2032 26.3413 22.1986 26.3453 22.1952 26.3502C22.1918 26.3551 22.1896 26.3608 22.1889 26.3668L21.8875 29.0595C21.8802 29.1242 21.903 29.1372 21.9558 29.0984L24.1173 27.5016C24.1236 27.497 24.1285 27.4909 24.1318 27.4839C24.1351 27.4769 24.1366 27.4692 24.1362 27.4615C24.1358 27.4539 24.1335 27.4464 24.1295 27.4399C24.1255 27.4334 24.1199 27.4281 24.1132 27.4243Z" fill="black"/>
<path d="M18.1771 18.459H8.47686C8.10536 18.459 7.8042 18.7601 7.8042 19.1316V19.1508C7.8042 19.5223 8.10536 19.8234 8.47686 19.8234H18.1771C18.5485 19.8234 18.8497 19.5223 18.8497 19.1508V19.1316C18.8497 18.7601 18.5485 18.459 18.1771 18.459Z" fill="black"/>
<path d="M5.5583 19.8119C5.92867 19.8119 6.22891 19.5117 6.22891 19.1413C6.22891 18.7709 5.92867 18.4707 5.5583 18.4707C5.18794 18.4707 4.8877 18.7709 4.8877 19.1413C4.8877 19.5117 5.18794 19.8119 5.5583 19.8119Z" fill="black"/>
<path d="M18.1771 22.2871H8.47686C8.10536 22.2871 7.8042 22.5883 7.8042 22.9598V22.9789C7.8042 23.3504 8.10536 23.6516 8.47686 23.6516H18.1771C18.5485 23.6516 18.8497 23.3504 18.8497 22.9789V22.9598C18.8497 22.5883 18.5485 22.2871 18.1771 22.2871Z" fill="black"/>
<path d="M5.5583 23.64C5.92867 23.64 6.22891 23.3398 6.22891 22.9694C6.22891 22.5991 5.92867 22.2988 5.5583 22.2988C5.18794 22.2988 4.8877 22.5991 4.8877 22.9694C4.8877 23.3398 5.18794 23.64 5.5583 23.64Z" fill="black"/>
<path d="M18.1771 26.1152H8.47686C8.10536 26.1152 7.8042 26.4164 7.8042 26.7879V26.807C7.8042 27.1785 8.10536 27.4797 8.47686 27.4797H18.1771C18.5485 27.4797 18.8497 27.1785 18.8497 26.807V26.7879C18.8497 26.4164 18.5485 26.1152 18.1771 26.1152Z" fill="black"/>
<path d="M5.5583 27.4682C5.92867 27.4682 6.22891 27.1679 6.22891 26.7976C6.22891 26.4272 5.92867 26.127 5.5583 26.127C5.18794 26.127 4.8877 26.4272 4.8877 26.7976C4.8877 27.1679 5.18794 27.4682 5.5583 27.4682Z" fill="black"/>
<path d="M18.1846 29.9453H14.4809C14.1158 29.9453 13.8198 30.2413 13.8198 30.6063V30.6433C13.8198 31.0083 14.1158 31.3043 14.4809 31.3043H18.1846C18.5497 31.3043 18.8456 31.0083 18.8456 30.6433V30.6063C18.8456 30.2413 18.5497 29.9453 18.1846 29.9453Z" fill="black"/>
<path d="M28.1976 24.9512L27.1052 24.9531C27.0859 24.9531 27.0703 24.9687 27.0704 24.988L27.0723 26.0804C27.0723 26.0996 27.0879 26.1152 27.1072 26.1152L28.1996 26.1133C28.2188 26.1132 28.2344 26.0976 28.2344 26.0783L28.2325 24.986C28.2324 24.9667 28.2168 24.9511 28.1976 24.9512Z" fill="black"/>
</g>
<defs>
<clipPath id="clip0_1_231">
<rect width="35" height="35" fill="white"/>
</clipPath>
</defs>
</svg>
