<svg width="35" height="36" viewBox="0 0 35 36" fill="none" xmlns="http://www.w3.org/2000/svg">
<g clip-path="url(#clip0_1_279)">
<path d="M3.50752 0.957031H21.281C22.4134 1.04043 23.3083 1.49137 23.9654 2.30986C24.2607 2.67764 24.474 3.07686 24.6053 3.50752C24.7333 3.9277 24.7974 4.38776 24.7974 4.8877C24.7974 7.71869 24.7974 10.5499 24.7974 13.3813C24.7974 13.6256 24.7199 13.8186 24.5649 13.9604C24.4228 14.0902 24.2441 14.1547 24.029 14.1538C23.7332 14.152 23.5241 14.0071 23.4015 13.719C23.3618 13.6252 23.3393 13.5108 23.3338 13.3759C23.3297 13.277 23.3276 13.1592 23.3276 13.0225C23.3276 10.5068 23.3276 7.99121 23.3276 5.47559C23.3276 4.77513 23.3192 4.37249 23.3023 4.26768C23.2344 3.84066 23.0558 3.4665 22.7664 3.14521C22.549 2.90368 22.2938 2.7207 22.0008 2.59629C21.7055 2.47096 21.3901 2.4083 21.0547 2.4083C15.2783 2.40921 9.50195 2.41081 3.72559 2.41309C3.03561 2.41354 2.46436 2.66693 2.01182 3.17324C1.69736 3.52506 1.51895 3.93727 1.47656 4.40986C1.46061 4.58395 1.45264 4.84577 1.45264 5.19531C1.45264 12.4469 1.45264 19.6987 1.45264 26.9507C1.45264 27.2697 1.45469 27.5434 1.45879 27.7717C1.46426 28.1021 1.50003 28.3714 1.56611 28.5797C1.80765 29.3412 2.32992 29.8327 3.13291 30.0542C3.23135 30.0815 3.34346 30.1005 3.46924 30.1109C3.61735 30.1232 3.73128 30.1294 3.81104 30.1294C6.92731 30.1294 10.0434 30.1294 13.1592 30.1294C13.3697 30.1294 13.5415 30.2007 13.6746 30.3434C13.7917 30.4691 13.8562 30.6277 13.8681 30.8191C13.8863 31.1158 13.7623 31.3375 13.4962 31.4843C13.3982 31.5381 13.2793 31.5681 13.1394 31.5745C13.0373 31.5795 12.9129 31.582 12.7661 31.582C10.0144 31.582 7.26273 31.582 4.51103 31.582C3.7887 31.582 3.33389 31.569 3.14658 31.5431C2.29665 31.4264 1.57386 31.0507 0.978223 30.4158C0.382129 29.7801 0.0560547 28.9996 0 28.0745V4.45635C0.0742839 3.35895 0.51429 2.47301 1.32002 1.79854C1.92933 1.28857 2.6585 1.00807 3.50752 0.957031Z" fill="black"/>
<path d="M12.398 6.78711H5.1C4.70283 6.78711 4.38086 7.10908 4.38086 7.50625V7.53359C4.38086 7.93076 4.70283 8.25273 5.1 8.25273H12.398C12.7952 8.25273 13.1172 7.93076 13.1172 7.53359V7.50625C13.1172 7.10908 12.7952 6.78711 12.398 6.78711Z" fill="black"/>
<path d="M19.6893 12.6289H5.09863C4.70222 12.6289 4.38086 12.9503 4.38086 13.3467V13.3631C4.38086 13.7595 4.70222 14.0809 5.09863 14.0809H19.6893C20.0857 14.0809 20.407 13.7595 20.407 13.3631V13.3467C20.407 12.9503 20.0857 12.6289 19.6893 12.6289Z" fill="black"/>
<path d="M35.0011 26.2714V26.7158C34.9068 29.112 34.0765 31.1628 32.5101 32.8681C30.7291 34.8077 28.4819 35.8374 25.7685 35.9573H25.2729C23.2007 35.872 21.3632 35.2172 19.7604 33.9926C19.3999 33.7173 19.0595 33.4154 18.7391 33.0868C17.3537 31.6672 16.4981 29.9852 16.1722 28.0406C15.8459 26.0928 16.1064 24.2247 16.9536 22.4365C17.15 22.0217 17.374 21.6253 17.6256 21.247C18.6072 19.7704 19.9044 18.6525 21.5172 17.8933C23.0357 17.1783 24.6536 16.8934 26.3708 17.0388C28.0005 17.1769 29.4964 17.7151 30.8586 18.6534C31.2286 18.9087 31.5838 19.1935 31.9243 19.5079C33.8557 21.293 34.8813 23.5475 35.0011 26.2714ZM33.5369 26.4779C33.5369 24.3521 32.6924 22.3134 31.1893 20.8103C29.6862 19.3072 27.6475 18.4627 25.5217 18.4627C23.396 18.4627 21.3573 19.3072 19.8542 20.8103C18.3511 22.3134 17.5066 24.3521 17.5066 26.4779C17.5066 28.6036 18.3511 30.6423 19.8542 32.1454C21.3573 33.6485 23.396 34.493 25.5217 34.493C27.6475 34.493 29.6862 33.6485 31.1893 32.1454C32.6924 30.6423 33.5369 28.6036 33.5369 26.4779Z" fill="black"/>
<path d="M13.8623 18.459H5.09453C4.70038 18.459 4.38086 18.7785 4.38086 19.1727V19.1959C4.38086 19.59 4.70038 19.9096 5.09453 19.9096H13.8623C14.2565 19.9096 14.576 19.59 14.576 19.1959V19.1727C14.576 18.7785 14.2565 18.459 13.8623 18.459Z" fill="black"/>
<path d="M20.7432 27.0749C20.4069 26.8243 20.3242 26.5167 20.4951 26.1521C20.5899 25.9502 20.7416 25.8251 20.9503 25.7768C21.0123 25.7622 21.1964 25.7549 21.5027 25.7549C22.5782 25.7549 23.6539 25.7549 24.7299 25.7549C24.7479 25.7549 24.7651 25.7478 24.7778 25.7351C24.7905 25.7224 24.7976 25.7052 24.7976 25.6872C24.7976 24.5019 24.7976 23.3168 24.7976 22.1319C24.7976 21.8908 24.8844 21.6987 25.058 21.5556C25.3164 21.3428 25.5872 21.3141 25.8702 21.4695C26.1345 21.6148 26.2653 21.8527 26.2625 22.1831C26.2521 23.3667 26.2493 24.5413 26.2543 25.7071C26.2543 25.7198 26.2595 25.7319 26.2686 25.7409C26.2777 25.7499 26.29 25.7549 26.3029 25.7549C27.4349 25.7549 28.5483 25.7549 29.6429 25.7549C29.9309 25.7549 30.1358 25.7882 30.2575 25.8547C30.4183 25.9431 30.5268 26.0789 30.5829 26.2621C30.6321 26.4235 30.6246 26.585 30.5603 26.7468C30.466 26.9838 30.2957 27.1296 30.0496 27.1843C29.9808 27.1998 29.7717 27.2076 29.4221 27.2076C28.3963 27.2076 27.3583 27.2076 26.3083 27.2076C26.2929 27.2076 26.2782 27.2137 26.2673 27.2246C26.2564 27.2355 26.2502 27.2503 26.2502 27.2657C26.2502 28.4401 26.2511 29.6227 26.253 30.8135C26.2534 31.009 26.1876 31.1781 26.0554 31.3207C25.7952 31.6019 25.5026 31.6593 25.1777 31.493C24.922 31.3622 24.7944 31.1357 24.7949 30.8135C24.7967 29.6286 24.7976 28.4421 24.7976 27.254C24.7976 27.2417 24.7927 27.2299 24.784 27.2212C24.7753 27.2125 24.7634 27.2076 24.7511 27.2076C23.6355 27.2076 22.5322 27.2076 21.4412 27.2076C21.4361 27.2076 21.3726 27.2103 21.2504 27.2158C21.0495 27.2244 20.8804 27.1775 20.7432 27.0749Z" fill="black"/>
</g>
<defs>
<clipPath id="clip0_1_279">
<rect width="35" height="35" fill="white" transform="translate(0 0.957031)"/>
</clipPath>
</defs>
</svg>
