<svg width="35" height="35" viewBox="0 0 35 35" fill="none" xmlns="http://www.w3.org/2000/svg">
<g clip-path="url(#clip0_1_223)">
<path d="M2.41377 0H13.6076C15.2011 0.151758 16.0474 1.29404 16.0474 2.81982C16.0474 4.75667 16.051 6.69352 16.0583 8.63037C16.0601 9.11025 16.0394 9.43496 15.9961 9.60449C15.7268 10.6636 15.0901 11.324 14.0861 11.5855C13.6712 11.6942 13.2193 11.6724 12.749 11.6724C9.39349 11.6724 6.03818 11.6733 2.68311 11.6751C1.23115 11.6765 0.151758 10.7092 0 9.25859V2.40557C0.119629 1.08418 1.0917 0.108691 2.41377 0ZM13.8592 2.57305C13.8592 2.47079 13.8186 2.37273 13.7463 2.30042C13.674 2.22812 13.5759 2.1875 13.4736 2.1875H2.57305C2.47079 2.1875 2.37273 2.22812 2.30042 2.30042C2.22812 2.37273 2.1875 2.47079 2.1875 2.57305V9.09863C2.1875 9.20089 2.22812 9.29895 2.30042 9.37126C2.37273 9.44356 2.47079 9.48418 2.57305 9.48418H13.4736C13.5759 9.48418 13.674 9.44356 13.7463 9.37126C13.8186 9.29895 13.8592 9.20089 13.8592 9.09863V2.57305Z" fill="black"/>
<path d="M21.3662 0H32.5942C33.9327 0.118262 34.9219 1.12246 34.9998 2.46504V18.0168C34.8686 19.4298 33.768 20.4217 32.3509 20.4224C28.9899 20.4224 25.6289 20.4224 22.2679 20.4224C21.6093 20.4224 21.1559 20.3925 20.9075 20.3328C19.6176 20.0238 18.9333 18.9096 18.936 17.5854C18.947 12.7948 18.9524 8.00397 18.9524 3.21289C18.9524 2.8319 18.9622 2.54183 18.9818 2.34268C19.109 1.03633 20.0708 0.113477 21.3662 0ZM32.8123 2.57373C32.8123 2.4713 32.7716 2.37306 32.6992 2.30062C32.6268 2.22819 32.5285 2.1875 32.4261 2.1875H21.5269C21.4761 2.1875 21.4259 2.19749 21.3791 2.2169C21.3322 2.23631 21.2896 2.26476 21.2538 2.30062C21.2179 2.33649 21.1894 2.37907 21.17 2.42593C21.1506 2.47279 21.1406 2.52301 21.1406 2.57373V17.8479C21.1406 17.8987 21.1506 17.9489 21.17 17.9958C21.1894 18.0426 21.2179 18.0852 21.2538 18.1211C21.2896 18.1569 21.3322 18.1854 21.3791 18.2048C21.4259 18.2242 21.4761 18.2342 21.5269 18.2342H32.4261C32.5285 18.2342 32.6268 18.1935 32.6992 18.1211C32.7716 18.0486 32.8123 17.9504 32.8123 17.8479V2.57373Z" fill="black"/>
<path d="M13.5994 35H2.42266C1.09238 34.892 0.115527 33.9165 0 32.5863V17.0003C0.159049 15.6951 0.876823 14.899 2.15332 14.6119C2.3069 14.5772 2.66579 14.5608 3.22998 14.5626C6.35583 14.5722 9.48145 14.5772 12.6068 14.5777C13.5898 14.5777 14.2167 14.551 14.8982 15.009C15.6593 15.5213 16.0403 16.2662 16.0412 17.2437C16.0453 21.9491 16.0474 26.6545 16.0474 31.3599C16.0474 31.9608 16.0836 32.5849 15.9551 33.0846C15.6762 34.1736 14.7232 34.9248 13.5994 35ZM13.8592 17.1535C13.8592 17.0507 13.8183 16.9521 13.7457 16.8794C13.673 16.8067 13.5744 16.7659 13.4716 16.7659H2.5751C2.4723 16.7659 2.37371 16.8067 2.30102 16.8794C2.22834 16.9521 2.1875 17.0507 2.1875 17.1535V32.4249C2.1875 32.4758 2.19753 32.5262 2.217 32.5733C2.23648 32.6203 2.26503 32.663 2.30102 32.699C2.33702 32.735 2.37974 32.7636 2.42677 32.783C2.4738 32.8025 2.5242 32.8125 2.5751 32.8125H13.4716C13.5225 32.8125 13.5729 32.8025 13.6199 32.783C13.6669 32.7636 13.7097 32.735 13.7457 32.699C13.7816 32.663 13.8102 32.6203 13.8297 32.5733C13.8492 32.5262 13.8592 32.4758 13.8592 32.4249V17.1535Z" fill="black"/>
<path d="M34.9999 25.7762V32.578C34.8741 33.9287 33.9006 34.907 32.5519 35.0006H21.4093C20.0791 34.8548 19.2715 34.1313 18.9867 32.8302C18.9566 32.6926 18.9429 32.4241 18.9457 32.0249C18.9593 30.024 18.9477 28.0232 18.9655 26.0223C18.9785 24.5963 19.8412 23.508 21.2938 23.3453C21.4806 23.3244 21.8965 23.3148 22.5414 23.3166C25.4694 23.3244 28.3975 23.3248 31.3255 23.318C31.9462 23.3162 32.3963 23.3253 32.6756 23.3453C33.9717 23.4376 34.898 24.5245 34.9999 25.7762ZM32.8124 25.9027C32.8124 25.8002 32.7717 25.702 32.6992 25.6296C32.6268 25.5571 32.5286 25.5164 32.4261 25.5164H21.5269C21.4762 25.5164 21.426 25.5264 21.3791 25.5458C21.3322 25.5652 21.2897 25.5937 21.2538 25.6296C21.2179 25.6654 21.1895 25.708 21.1701 25.7549C21.1507 25.8017 21.1407 25.8519 21.1407 25.9027V32.4269C21.1407 32.4776 21.1507 32.5278 21.1701 32.5747C21.1895 32.6215 21.2179 32.6641 21.2538 32.7C21.2897 32.7359 21.3322 32.7643 21.3791 32.7837C21.426 32.8031 21.4762 32.8131 21.5269 32.8131H32.4261C32.5286 32.8131 32.6268 32.7724 32.6992 32.7C32.7717 32.6276 32.8124 32.5293 32.8124 32.4269V25.9027Z" fill="black"/>
</g>
<defs>
<clipPath id="clip0_1_223">
<rect width="35" height="35" fill="white"/>
</clipPath>
</defs>
</svg>
