<svg width="35" height="36" viewBox="0 0 35 36" fill="none" xmlns="http://www.w3.org/2000/svg">
<path d="M21.8579 11.9594L22.2346 11.9621C22.2465 11.9623 22.2579 11.9594 22.2669 11.9538C22.2759 11.9482 22.2818 11.9402 22.2838 11.9313C22.2893 11.9033 22.0008 11.9095 21.9092 11.8965" stroke="#010100" stroke-opacity="0.745" stroke-width="2"/>
<path d="M3.24307 9.70967C2.97305 9.7042 2.67842 9.72539 2.43164 9.66934C1.79545 9.52624 1.38073 9.16188 1.1875 8.57627C1.12507 8.38623 1.09385 8.11052 1.09385 7.74912C1.09431 6.41338 1.09545 5.07764 1.09727 3.7419C1.09932 2.75615 1.84307 2.0377 2.81993 2.03906C9.29675 2.04636 15.7738 2.05 22.2511 2.05C23.2963 2.05 24.0599 2.68164 24.0606 3.77608C24.0619 5.07399 24.0626 6.37191 24.0626 7.66983C24.0626 8.085 24.03 8.39079 23.9648 8.58721C23.6518 9.53057 22.8595 9.72744 21.9489 9.70489C21.9394 9.7047 21.93 9.70636 21.9211 9.70976C21.9123 9.71316 21.9043 9.71823 21.8975 9.72466C21.8908 9.7311 21.8854 9.73878 21.8818 9.74724C21.8782 9.7557 21.8764 9.76478 21.8765 9.77393L21.886 10.7528C21.8862 10.7621 21.89 10.7709 21.8966 10.7775C21.9032 10.7842 21.9122 10.788 21.9216 10.7884C22.2545 10.8014 22.6236 10.7822 22.921 10.8855C23.4 11.0522 23.7475 11.3779 23.9635 11.8623C23.9675 11.8717 23.9741 11.8797 23.9825 11.8854C23.9909 11.8911 24.0006 11.8943 24.0106 11.8944C25.9685 11.9375 33.918 12.321 33.9146 15.2946C33.9091 20.6777 33.9111 26.061 33.9207 31.4445C33.9248 33.764 28.9845 34.4674 27.3787 34.6465C24.0366 35.0197 20.5585 34.9397 17.2629 34.2363C16.0557 33.9786 13.4601 33.295 13.1572 31.8376C13.1358 31.7332 13.1251 31.448 13.1251 30.9817C13.1251 29.7631 13.1251 28.5231 13.1251 27.2616C13.1251 27.2544 13.1237 27.2472 13.1209 27.2404C13.1181 27.2337 13.114 27.2276 13.1089 27.2225C13.1037 27.2173 13.0976 27.2132 13.0909 27.2105C13.0842 27.2077 13.077 27.2063 13.0697 27.2063C9.61485 27.2063 6.18685 27.2056 2.78575 27.2042C1.81299 27.2035 1.08633 26.468 1.08838 25.4973C1.09203 24.0731 1.09385 22.649 1.09385 21.2248C1.09454 20.2753 1.80889 19.5787 2.75157 19.5548C2.88282 19.5516 3.04164 19.55 3.22803 19.55C3.24199 19.55 3.25538 19.5445 3.26525 19.5346C3.27512 19.5247 3.28067 19.5113 3.28067 19.4974L3.27725 18.4938C3.27725 18.4849 3.27367 18.4763 3.26728 18.4699C3.26089 18.4635 3.2522 18.4598 3.24307 18.4597C2.97305 18.4542 2.67842 18.4754 2.43096 18.4193C1.79476 18.2767 1.38028 17.9123 1.1875 17.3263C1.12507 17.1367 1.09385 16.8607 1.09385 16.4984C1.09385 15.1572 1.09385 13.816 1.09385 12.4748C1.09454 11.5253 1.80889 10.8287 2.75157 10.8048C2.88282 10.8016 3.04164 10.8 3.22803 10.8C3.23494 10.8 3.24179 10.7986 3.24817 10.796C3.25456 10.7934 3.26036 10.7895 3.26525 10.7846C3.27014 10.7797 3.27402 10.7739 3.27666 10.7675C3.27931 10.7611 3.28067 10.7543 3.28067 10.7474L3.27725 9.74385C3.27725 9.7349 3.27367 9.72631 3.26728 9.71992C3.26089 9.71353 3.2522 9.70985 3.24307 9.70967ZM22.9675 3.70156C22.9675 3.55362 22.9087 3.41174 22.8041 3.30713C22.6995 3.20252 22.5576 3.14375 22.4097 3.14375H2.74678C2.59884 3.14375 2.45696 3.20252 2.35235 3.30713C2.24774 3.41174 2.18897 3.55362 2.18897 3.70156V8.05742C2.18897 8.13068 2.2034 8.20321 2.23143 8.27089C2.25946 8.33857 2.30055 8.40006 2.35235 8.45186C2.40415 8.50365 2.46564 8.54474 2.53332 8.57277C2.60099 8.60081 2.67353 8.61524 2.74678 8.61524H22.4097C22.4829 8.61524 22.5555 8.60081 22.6231 8.57277C22.6908 8.54474 22.7523 8.50365 22.8041 8.45186C22.8559 8.40006 22.897 8.33857 22.925 8.27089C22.9531 8.20321 22.9675 8.13068 22.9675 8.05742V3.70156ZM6.5626 9.74727C6.5626 9.73639 6.55828 9.72596 6.55059 9.71827C6.5429 9.71057 6.53246 9.70625 6.52159 9.70625H4.41612C4.40524 9.70625 4.39481 9.71057 4.38712 9.71827C4.37942 9.72596 4.3751 9.73639 4.3751 9.74727V10.759C4.3751 10.7699 4.37942 10.7803 4.38712 10.788C4.39481 10.7957 4.40524 10.8 4.41612 10.8H6.52159C6.53246 10.8 6.5429 10.7957 6.55059 10.788C6.55828 10.7803 6.5626 10.7699 6.5626 10.759V9.74727ZM17.4994 9.74385C17.4994 9.73388 17.4955 9.72431 17.4884 9.71726C17.4814 9.71021 17.4718 9.70625 17.4618 9.70625H7.69463C7.68466 9.70625 7.6751 9.71021 7.66805 9.71726C7.661 9.72431 7.65704 9.73388 7.65704 9.74385V10.7638C7.65704 10.7687 7.65801 10.7736 7.6599 10.7782C7.66179 10.7827 7.66456 10.7869 7.66805 10.7904C7.67154 10.7938 7.67568 10.7966 7.68025 10.7985C7.68481 10.8004 7.6897 10.8014 7.69463 10.8014H17.4618C17.4668 10.8014 17.4716 10.8004 17.4762 10.7985C17.4808 10.7966 17.4849 10.7938 17.4884 10.7904C17.4919 10.7869 17.4947 10.7827 17.4966 10.7782C17.4984 10.7736 17.4994 10.7687 17.4994 10.7638V9.74385ZM20.7814 9.74727C20.7814 9.73639 20.777 9.72596 20.7693 9.71827C20.7616 9.71057 20.7512 9.70625 20.7403 9.70625H18.6349C18.624 9.70625 18.6136 9.71057 18.6059 9.71827C18.5982 9.72596 18.5939 9.73639 18.5939 9.74727V10.759C18.5939 10.7699 18.5982 10.7803 18.6059 10.788C18.6136 10.7957 18.624 10.8 18.6349 10.8H20.7403C20.7512 10.8 20.7616 10.7957 20.7693 10.788C20.777 10.7803 20.7814 10.7699 20.7814 10.759V9.74727ZM21.858 11.9594L22.2347 11.9621C22.2466 11.9623 22.258 11.9594 22.267 11.9538C22.276 11.9482 22.2819 11.9402 22.2839 11.9313C22.2894 11.9033 22.0009 11.9095 21.9093 11.8965C15.597 11.8933 9.28467 11.8924 2.97237 11.8938C2.49317 11.8938 2.18829 11.9983 2.1876 12.5261C2.18578 13.8896 2.18692 15.2529 2.19102 16.616C2.19239 17.0836 2.3168 17.3625 2.81993 17.3625C6.23197 17.3625 9.65199 17.3625 13.08 17.3625C13.092 17.3625 13.1034 17.3577 13.1119 17.3493C13.1203 17.3408 13.1251 17.3294 13.1251 17.3174C13.1251 16.7172 13.1251 16.1225 13.1251 15.5332C13.1251 15.1841 13.147 14.9364 13.1907 14.7901C13.8613 12.5438 19.9843 12.0031 21.858 11.9594ZM14.2735 15.3404C14.3952 15.5407 14.6782 15.7533 14.8382 15.8374C16.3476 16.6297 18.1447 16.9694 19.8243 17.1567C23.0372 17.5136 26.3978 17.4445 29.5642 16.7568C30.0399 16.6536 33.0744 15.8682 32.7955 15.0896C32.5665 14.4511 30.919 13.9438 30.3154 13.7818C27.2215 12.9533 23.8562 12.8467 20.6788 13.1078C19.1927 13.2295 17.6184 13.4749 16.1842 13.9445C15.5396 14.1558 14.6365 14.4764 14.2845 14.9863C14.2043 15.1021 14.2006 15.2201 14.2735 15.3404ZM17.4898 17.8752C16.3913 17.653 15.247 17.3317 14.2824 16.748C14.24 16.7224 14.2189 16.7343 14.2189 16.7835C14.2189 18.029 14.2189 19.2647 14.2189 20.4906C14.2189 20.9924 14.6953 21.2419 15.087 21.4319C16.3879 22.0622 17.8706 22.3678 19.2952 22.5537C22.7973 23.0097 26.5475 22.9632 29.9914 22.1258C30.8521 21.9166 31.898 21.5926 32.5918 21.0218C32.7385 20.901 32.8121 20.7237 32.8126 20.4899C32.8149 19.2499 32.8135 18.0096 32.8085 16.7691C32.8086 16.7656 32.8077 16.7621 32.806 16.7589C32.8043 16.7558 32.8018 16.7532 32.7987 16.7513C32.7957 16.7495 32.7922 16.7484 32.7887 16.7483C32.7851 16.7482 32.7816 16.749 32.7784 16.7507C31.2595 17.5826 29.5184 17.9668 27.7889 18.1862C24.3818 18.6189 20.8606 18.5567 17.4898 17.8752ZM6.5626 18.4973C6.5626 18.4864 6.55828 18.476 6.55059 18.4683C6.5429 18.4606 6.53246 18.4563 6.52159 18.4563H4.41612C4.40524 18.4563 4.39481 18.4606 4.38712 18.4683C4.37942 18.476 4.3751 18.4864 4.3751 18.4973V19.509C4.3751 19.5144 4.37616 19.5197 4.37822 19.5247C4.38029 19.5297 4.38331 19.5342 4.38712 19.538C4.39092 19.5418 4.39545 19.5448 4.40042 19.5469C4.4054 19.5489 4.41073 19.55 4.41612 19.55H6.52159C6.52697 19.55 6.53231 19.5489 6.53728 19.5469C6.54226 19.5448 6.54678 19.5418 6.55059 19.538C6.5544 19.5342 6.55742 19.5297 6.55948 19.5247C6.56154 19.5197 6.5626 19.5144 6.5626 19.509V18.4973ZM13.1244 18.4959C13.1244 18.4854 13.1202 18.4753 13.1128 18.4679C13.1054 18.4604 13.0953 18.4563 13.0848 18.4563H7.69668C7.68617 18.4563 7.67608 18.4604 7.66865 18.4679C7.66121 18.4753 7.65704 18.4854 7.65704 18.4959V19.5117C7.65704 19.5222 7.66121 19.5323 7.66865 19.5398C7.67608 19.5472 7.68617 19.5514 7.69668 19.5514H13.0848C13.0953 19.5514 13.1054 19.5472 13.1128 19.5398C13.1202 19.5323 13.1244 19.5222 13.1244 19.5117V18.4959ZM2.45899 26.0264C2.5474 26.0838 2.64424 26.1125 2.74952 26.1125H13.0725C13.0853 26.1125 13.0977 26.1075 13.1068 26.0985C13.1159 26.0895 13.121 26.0773 13.121 26.0646L13.1251 20.6943C13.1251 20.682 13.1202 20.6702 13.1115 20.6615C13.1028 20.6528 13.0909 20.6479 13.0786 20.6479C9.71853 20.6433 6.35046 20.6419 2.97442 20.6438C2.55879 20.6438 2.1876 20.7326 2.1876 21.2077C2.1876 22.6601 2.19102 24.1128 2.19786 25.5656C2.19877 25.7607 2.28581 25.9143 2.45899 26.0264ZM15.1 26.9007C16.7741 27.6978 18.6957 28.0054 20.5421 28.1633C22.2748 28.3114 23.9612 28.3374 25.6014 28.2412C27.4819 28.1312 29.6804 27.8324 31.5616 27.0839C31.993 26.9116 32.8119 26.5466 32.8126 25.9915C32.8144 24.7401 32.8131 23.4886 32.8085 22.2372C32.8086 22.2337 32.8077 22.2302 32.8059 22.2271C32.8041 22.2241 32.8016 22.2216 32.7984 22.2198C32.7953 22.2181 32.7917 22.2172 32.7881 22.2172C32.7845 22.2173 32.7809 22.2183 32.7777 22.2201C31.4112 22.9728 29.8738 23.3446 28.3433 23.5702C25.5952 23.9763 22.8137 24.0262 20.0492 23.7466C18.0675 23.5456 16.0475 23.1758 14.2612 22.2194C14.2569 22.2171 14.2519 22.2159 14.247 22.216C14.242 22.2161 14.2371 22.2175 14.2329 22.22C14.2286 22.2226 14.225 22.2262 14.2226 22.2305C14.2201 22.2349 14.2188 22.2398 14.2189 22.2447C14.2166 23.5221 14.2179 24.777 14.223 26.0093C14.2243 26.4714 14.7452 26.7318 15.1 26.9007ZM15.1 32.3694C16.7153 33.1378 18.5604 33.4502 20.337 33.6149C23.6524 33.9226 27.0964 33.8221 30.3148 32.9724C30.9443 32.8056 32.4209 32.3544 32.7524 31.7549C32.7926 31.682 32.8126 31.5847 32.8126 31.463C32.8144 30.2106 32.8131 28.9583 32.8085 27.706C32.8086 27.7024 32.8077 27.699 32.8059 27.6959C32.8041 27.6928 32.8016 27.6903 32.7984 27.6886C32.7953 27.6868 32.7917 27.6859 32.7881 27.686C32.7845 27.686 32.7809 27.687 32.7777 27.6889C31.4112 28.4415 29.8738 28.8134 28.3433 29.039C25.5952 29.445 22.8137 29.4949 20.0492 29.2153C18.0675 29.0144 16.0475 28.6445 14.2612 27.6882C14.2569 27.6858 14.2519 27.6846 14.247 27.6847C14.242 27.6848 14.2371 27.6862 14.2329 27.6888C14.2286 27.6913 14.225 27.6949 14.2226 27.6993C14.2201 27.7036 14.2188 27.7085 14.2189 27.7135C14.2166 28.9909 14.2179 30.2457 14.223 31.478C14.2243 31.9401 14.7452 32.2006 15.1 32.3694Z" fill="black"/>
<path d="M6.5661 6.95173C6.56636 7.02552 6.55208 7.09864 6.52408 7.16692C6.49608 7.23519 6.45491 7.29728 6.40291 7.34964C6.35092 7.402 6.28912 7.44361 6.22104 7.47208C6.15297 7.50056 6.07995 7.51535 6.00616 7.51561L3.84875 7.52313C3.77496 7.52339 3.70184 7.50911 3.63357 7.48111C3.56529 7.45311 3.5032 7.41194 3.45084 7.35994C3.39848 7.30795 3.35688 7.24615 3.3284 7.17807C3.29992 7.11 3.28513 7.03698 3.28487 6.96319L3.27735 4.80578C3.27709 4.73199 3.29137 4.65887 3.31937 4.5906C3.34737 4.52232 3.38854 4.46024 3.44054 4.40787C3.49253 4.35551 3.55433 4.31391 3.62241 4.28543C3.69048 4.25695 3.7635 4.24216 3.83729 4.2419L5.9947 4.23438C6.06849 4.23412 6.14161 4.2484 6.20988 4.2764C6.27816 4.3044 6.34025 4.34557 6.39261 4.39757C6.44497 4.44956 6.48657 4.51136 6.51505 4.57944C6.54353 4.64752 6.55832 4.72053 6.55858 4.79432L6.5661 6.95173ZM5.46772 5.37126C5.46771 5.36596 5.46666 5.36072 5.46462 5.35583C5.46258 5.35094 5.4596 5.3465 5.45585 5.34276C5.4521 5.33902 5.44765 5.33606 5.44275 5.33404C5.43785 5.33202 5.43261 5.33099 5.42731 5.331L4.41422 5.33276C4.40893 5.33277 4.40369 5.33383 4.3988 5.33586C4.39391 5.3379 4.38947 5.34088 4.38573 5.34463C4.38199 5.34838 4.37903 5.35283 4.37701 5.35773C4.37499 5.36263 4.37396 5.36787 4.37397 5.37317L4.37573 6.38626C4.37574 6.39155 4.3768 6.3968 4.37883 6.40168C4.38087 6.40657 4.38385 6.41102 4.3876 6.41475C4.39135 6.41849 4.3958 6.42145 4.4007 6.42347C4.4056 6.42549 4.41084 6.42652 4.41614 6.42651L5.42923 6.42475C5.43452 6.42474 5.43976 6.42369 5.44465 6.42165C5.44954 6.41961 5.45398 6.41664 5.45772 6.41288C5.46146 6.40913 5.46442 6.40468 5.46644 6.39978C5.46846 6.39489 5.46949 6.38964 5.46948 6.38434L5.46772 5.37126Z" fill="black"/>
<path d="M10.9411 6.95173C10.9414 7.02552 10.9271 7.09864 10.8991 7.16692C10.8711 7.23519 10.8299 7.29728 10.7779 7.34964C10.7259 7.402 10.6641 7.44361 10.596 7.47208C10.528 7.50056 10.4549 7.51535 10.3812 7.51561L8.22375 7.52313C8.14996 7.52339 8.07684 7.50911 8.00857 7.48111C7.94029 7.45311 7.8782 7.41194 7.82584 7.35994C7.77348 7.30795 7.73188 7.24615 7.7034 7.17807C7.67492 7.11 7.66013 7.03698 7.65987 6.96319L7.65235 4.80578C7.65209 4.73199 7.66637 4.65887 7.69437 4.5906C7.72237 4.52232 7.76354 4.46024 7.81554 4.40787C7.86753 4.35551 7.92933 4.31391 7.99741 4.28543C8.06548 4.25695 8.1385 4.24216 8.21229 4.2419L10.3697 4.23438C10.4435 4.23412 10.5166 4.2484 10.5849 4.2764C10.6532 4.3044 10.7152 4.34557 10.7676 4.39757C10.82 4.44956 10.8616 4.51136 10.8901 4.57944C10.9185 4.64752 10.9333 4.72053 10.9336 4.79432L10.9411 6.95173ZM9.84272 5.37126C9.84271 5.36596 9.84166 5.36072 9.83962 5.35583C9.83758 5.35094 9.8346 5.3465 9.83085 5.34276C9.8271 5.33902 9.82265 5.33606 9.81775 5.33404C9.81285 5.33202 9.80761 5.33099 9.80231 5.331L8.78923 5.33276C8.78393 5.33277 8.77869 5.33383 8.7738 5.33586C8.76891 5.3379 8.76447 5.34088 8.76073 5.34463C8.75699 5.34838 8.75403 5.35283 8.75201 5.35773C8.74999 5.36263 8.74896 5.36787 8.74897 5.37317L8.75073 6.38626C8.75074 6.39155 8.75179 6.3968 8.75383 6.40168C8.75587 6.40657 8.75885 6.41102 8.7626 6.41475C8.76635 6.41849 8.7708 6.42145 8.7757 6.42347C8.7806 6.42549 8.78584 6.42652 8.79114 6.42651L9.80423 6.42475C9.80952 6.42474 9.81476 6.42369 9.81965 6.42165C9.82454 6.41961 9.82898 6.41664 9.83272 6.41288C9.83646 6.40913 9.83942 6.40468 9.84144 6.39978C9.84346 6.39489 9.84449 6.38964 9.84448 6.38434L9.84272 5.37126Z" fill="black"/>
<path d="M19.652 4.23828H12.0668C12.0472 4.23828 12.0312 4.2542 12.0312 4.27383V5.29648C12.0312 5.31612 12.0472 5.33203 12.0668 5.33203H19.652C19.6716 5.33203 19.6875 5.31612 19.6875 5.29648V4.27383C19.6875 4.2542 19.6716 4.23828 19.652 4.23828Z" fill="black"/>
<path d="M21.8337 4.23644L20.8206 4.23821C20.7983 4.23825 20.7803 4.25634 20.7803 4.27861L20.7821 5.2917C20.7822 5.31397 20.8002 5.332 20.8225 5.33196L21.8356 5.33019C21.8579 5.33015 21.8759 5.31206 21.8759 5.28979L21.8741 4.2767C21.8741 4.25443 21.856 4.2364 21.8337 4.23644Z" fill="black"/>
<path d="M19.6472 6.42578H12.0716C12.0493 6.42578 12.0312 6.44384 12.0312 6.46611V7.4792C12.0312 7.50147 12.0493 7.51953 12.0716 7.51953H19.6472C19.6694 7.51953 19.6875 7.50147 19.6875 7.4792V6.46611C19.6875 6.44384 19.6694 6.42578 19.6472 6.42578Z" fill="black"/>
<path d="M21.8269 6.42395L20.8274 6.4257C20.8014 6.42574 20.7803 6.4469 20.7804 6.47295L20.7821 7.47236C20.7821 7.49841 20.8033 7.51949 20.8294 7.51945L21.8288 7.5177C21.8548 7.51766 21.8759 7.4965 21.8758 7.47045L21.8741 6.47104C21.8741 6.44499 21.8529 6.42391 21.8269 6.42395Z" fill="black"/>
<path d="M21.9092 11.8965C22.0008 11.9095 22.2893 11.9033 22.2838 11.9313C22.2818 11.9402 22.2759 11.9482 22.2669 11.9538C22.2579 11.9594 22.2465 11.9623 22.2346 11.9621L21.8579 11.9594C22.0028 11.9571 22.0199 11.9361 21.9092 11.8965Z" fill="#020300" fill-opacity="0.49"/>
<path d="M6.5661 15.7017C6.56636 15.7755 6.55208 15.8486 6.52408 15.9169C6.49608 15.9852 6.45491 16.0473 6.40291 16.0996C6.35092 16.152 6.28912 16.1936 6.22104 16.2221C6.15297 16.2506 6.07995 16.2653 6.00616 16.2656L3.84875 16.2731C3.77496 16.2734 3.70184 16.2591 3.63357 16.2311C3.56529 16.2031 3.5032 16.1619 3.45084 16.1099C3.39848 16.0579 3.35688 15.9961 3.3284 15.9281C3.29992 15.86 3.28513 15.787 3.28487 15.7132L3.27735 13.5558C3.27709 13.482 3.29137 13.4089 3.31937 13.3406C3.34737 13.2723 3.38854 13.2102 3.44054 13.1579C3.49253 13.1055 3.55433 13.0639 3.62241 13.0354C3.69048 13.007 3.7635 12.9922 3.83729 12.9919L5.9947 12.9844C6.06849 12.9841 6.14161 12.9984 6.20988 13.0264C6.27816 13.0544 6.34025 13.0956 6.39261 13.1476C6.44497 13.1996 6.48657 13.2614 6.51505 13.3294C6.54353 13.3975 6.55832 13.4705 6.55858 13.5443L6.5661 15.7017ZM5.46772 14.1213C5.46771 14.116 5.46666 14.1107 5.46462 14.1058C5.46258 14.1009 5.4596 14.0965 5.45585 14.0928C5.4521 14.089 5.44765 14.0861 5.44275 14.084C5.43785 14.082 5.43261 14.081 5.42731 14.081L4.41422 14.0828C4.40893 14.0828 4.40369 14.0838 4.3988 14.0859C4.39391 14.0879 4.38947 14.0909 4.38573 14.0946C4.38199 14.0984 4.37903 14.1028 4.37701 14.1077C4.37499 14.1126 4.37396 14.1179 4.37397 14.1232L4.37573 15.1363C4.37574 15.1416 4.3768 15.1468 4.37883 15.1517C4.38087 15.1566 4.38385 15.161 4.3876 15.1648C4.39135 15.1685 4.3958 15.1715 4.4007 15.1735C4.4056 15.1755 4.41084 15.1765 4.41614 15.1765L5.42923 15.1748C5.43452 15.1747 5.43976 15.1737 5.44465 15.1717C5.44954 15.1696 5.45398 15.1666 5.45772 15.1629C5.46146 15.1591 5.46442 15.1547 5.46644 15.1498C5.46846 15.1449 5.46949 15.1396 5.46948 15.1343L5.46772 14.1213Z" fill="black"/>
<path d="M10.9411 15.7017C10.9414 15.7755 10.9271 15.8486 10.8991 15.9169C10.8711 15.9852 10.8299 16.0473 10.7779 16.0996C10.7259 16.152 10.6641 16.1936 10.596 16.2221C10.528 16.2506 10.4549 16.2653 10.3812 16.2656L8.22375 16.2731C8.14996 16.2734 8.07684 16.2591 8.00857 16.2311C7.94029 16.2031 7.8782 16.1619 7.82584 16.1099C7.77348 16.0579 7.73188 15.9961 7.7034 15.9281C7.67492 15.86 7.66013 15.787 7.65987 15.7132L7.65235 13.5558C7.65209 13.482 7.66637 13.4089 7.69437 13.3406C7.72237 13.2723 7.76354 13.2102 7.81554 13.1579C7.86753 13.1055 7.92933 13.0639 7.99741 13.0354C8.06548 13.007 8.1385 12.9922 8.21229 12.9919L10.3697 12.9844C10.4435 12.9841 10.5166 12.9984 10.5849 13.0264C10.6532 13.0544 10.7152 13.0956 10.7676 13.1476C10.82 13.1996 10.8616 13.2614 10.8901 13.3294C10.9185 13.3975 10.9333 13.4705 10.9336 13.5443L10.9411 15.7017ZM9.84272 14.1213C9.84271 14.116 9.84166 14.1107 9.83962 14.1058C9.83758 14.1009 9.8346 14.0965 9.83085 14.0928C9.8271 14.089 9.82265 14.0861 9.81775 14.084C9.81285 14.082 9.80761 14.081 9.80231 14.081L8.78923 14.0828C8.78393 14.0828 8.77869 14.0838 8.7738 14.0859C8.76891 14.0879 8.76447 14.0909 8.76073 14.0946C8.75699 14.0984 8.75403 14.1028 8.75201 14.1077C8.74999 14.1126 8.74896 14.1179 8.74897 14.1232L8.75073 15.1363C8.75074 15.1416 8.75179 15.1468 8.75383 15.1517C8.75587 15.1566 8.75885 15.161 8.7626 15.1648C8.76635 15.1685 8.7708 15.1715 8.7757 15.1735C8.7806 15.1755 8.78584 15.1765 8.79114 15.1765L9.80423 15.1748C9.80952 15.1747 9.81476 15.1737 9.81965 15.1717C9.82454 15.1696 9.82898 15.1666 9.83272 15.1629C9.83646 15.1591 9.83942 15.1547 9.84144 15.1498C9.84346 15.1449 9.84449 15.1396 9.84448 15.1343L9.84272 14.1213Z" fill="black"/>
<path d="M24.026 20.0958L23.0033 20.0976C22.9837 20.0976 22.9678 20.1136 22.9678 20.1332L22.9696 21.1559C22.9697 21.1755 22.9856 21.1914 23.0052 21.1913L24.0279 21.1896C24.0475 21.1895 24.0634 21.1736 24.0634 21.1539L24.0616 20.1313C24.0615 20.1117 24.0456 20.0958 24.026 20.0958Z" fill="black"/>
<path d="M6.5661 24.4517C6.56636 24.5255 6.55208 24.5986 6.52408 24.6669C6.49608 24.7352 6.45491 24.7973 6.40291 24.8496C6.35092 24.902 6.28912 24.9436 6.22104 24.9721C6.15297 25.0006 6.07995 25.0153 6.00616 25.0156L3.84875 25.0231C3.77496 25.0234 3.70184 25.0091 3.63357 24.9811C3.56529 24.9531 3.5032 24.9119 3.45084 24.8599C3.39848 24.8079 3.35688 24.7461 3.3284 24.6781C3.29992 24.61 3.28513 24.537 3.28487 24.4632L3.27735 22.3058C3.27709 22.232 3.29137 22.1589 3.31937 22.0906C3.34737 22.0223 3.38854 21.9602 3.44054 21.9079C3.49253 21.8555 3.55433 21.8139 3.62241 21.7854C3.69048 21.757 3.7635 21.7422 3.83729 21.7419L5.9947 21.7344C6.06849 21.7341 6.14161 21.7484 6.20988 21.7764C6.27816 21.8044 6.34025 21.8456 6.39261 21.8976C6.44497 21.9496 6.48657 22.0114 6.51505 22.0794C6.54353 22.1475 6.55832 22.2205 6.55858 22.2943L6.5661 24.4517ZM5.46772 22.8713C5.46771 22.866 5.46666 22.8607 5.46462 22.8558C5.46258 22.8509 5.4596 22.8465 5.45585 22.8428C5.4521 22.839 5.44765 22.8361 5.44275 22.834C5.43785 22.832 5.43261 22.831 5.42731 22.831L4.41422 22.8328C4.40893 22.8328 4.40369 22.8338 4.3988 22.8359C4.39391 22.8379 4.38947 22.8409 4.38573 22.8446C4.38199 22.8484 4.37903 22.8528 4.37701 22.8577C4.37499 22.8626 4.37396 22.8679 4.37397 22.8732L4.37573 23.8863C4.37574 23.8916 4.3768 23.8968 4.37883 23.9017C4.38087 23.9066 4.38385 23.911 4.3876 23.9148C4.39135 23.9185 4.3958 23.9215 4.4007 23.9235C4.4056 23.9255 4.41084 23.9265 4.41614 23.9265L5.42923 23.9247C5.43452 23.9247 5.43976 23.9237 5.44465 23.9217C5.44954 23.9196 5.45398 23.9166 5.45772 23.9129C5.46146 23.9091 5.46442 23.9047 5.46644 23.8998C5.46846 23.8949 5.46949 23.8896 5.46948 23.8843L5.46772 22.8713Z" fill="black"/>
<path d="M10.9411 24.4517C10.9414 24.5255 10.9271 24.5986 10.8991 24.6669C10.8711 24.7352 10.8299 24.7973 10.7779 24.8496C10.7259 24.902 10.6641 24.9436 10.596 24.9721C10.528 25.0006 10.4549 25.0153 10.3812 25.0156L8.22375 25.0231C8.14996 25.0234 8.07684 25.0091 8.00857 24.9811C7.94029 24.9531 7.8782 24.9119 7.82584 24.8599C7.77348 24.8079 7.73188 24.7461 7.7034 24.6781C7.67492 24.61 7.66013 24.537 7.65987 24.4632L7.65235 22.3058C7.65209 22.232 7.66637 22.1589 7.69437 22.0906C7.72237 22.0223 7.76354 21.9602 7.81554 21.9079C7.86753 21.8555 7.92933 21.8139 7.99741 21.7854C8.06548 21.757 8.1385 21.7422 8.21229 21.7419L10.3697 21.7344C10.4435 21.7341 10.5166 21.7484 10.5849 21.7764C10.6532 21.8044 10.7152 21.8456 10.7676 21.8976C10.82 21.9496 10.8616 22.0114 10.8901 22.0794C10.9185 22.1475 10.9333 22.2205 10.9336 22.2943L10.9411 24.4517ZM9.84272 22.8713C9.84271 22.866 9.84166 22.8607 9.83962 22.8558C9.83758 22.8509 9.8346 22.8465 9.83085 22.8428C9.8271 22.839 9.82265 22.8361 9.81775 22.834C9.81285 22.832 9.80761 22.831 9.80231 22.831L8.78923 22.8328C8.78393 22.8328 8.77869 22.8338 8.7738 22.8359C8.76891 22.8379 8.76447 22.8409 8.76073 22.8446C8.75699 22.8484 8.75403 22.8528 8.75201 22.8577C8.74999 22.8626 8.74896 22.8679 8.74897 22.8732L8.75073 23.8863C8.75074 23.8916 8.75179 23.8968 8.75383 23.9017C8.75587 23.9066 8.75885 23.911 8.7626 23.9148C8.76635 23.9185 8.7708 23.9215 8.7757 23.9235C8.7806 23.9255 8.78584 23.9265 8.79114 23.9265L9.80423 23.9247C9.80952 23.9247 9.81476 23.9237 9.81965 23.9217C9.82454 23.9196 9.82898 23.9166 9.83272 23.9129C9.83646 23.9091 9.83942 23.9047 9.84144 23.8998C9.84346 23.8949 9.84449 23.8896 9.84448 23.8843L9.84272 22.8713Z" fill="black"/>
<path d="M24.026 26.1114L23.0033 26.1132C22.9837 26.1133 22.9678 26.1292 22.9678 26.1488L22.9696 27.1715C22.9697 27.1911 22.9856 27.207 23.0052 27.207L24.0279 27.2052C24.0475 27.2051 24.0634 27.1892 24.0634 27.1696L24.0616 26.1469C24.0615 26.1273 24.0456 26.1114 24.026 26.1114Z" fill="black"/>
<path d="M24.026 31.0333L23.0033 31.0351C22.9837 31.0351 22.9678 31.0511 22.9678 31.0707L22.9696 32.0934C22.9697 32.113 22.9856 32.1289 23.0052 32.1288L24.0279 32.1271C24.0475 32.127 24.0634 32.1111 24.0634 32.0914L24.0616 31.0688C24.0615 31.0492 24.0456 31.0333 24.026 31.0333Z" fill="black"/>
</svg>
