<svg width="35" height="35" viewBox="0 0 35 35" fill="none" xmlns="http://www.w3.org/2000/svg">
<path d="M28.8442 11.3101C30.2039 11.8816 30.1608 13.8189 28.8142 14.3097C28.7982 14.3155 28.7842 14.3254 28.7734 14.3386C28.7627 14.3517 28.7558 14.3675 28.7533 14.3842C28.5619 15.6899 27.9508 16.734 26.9199 17.5165C26.9082 17.5254 26.8987 17.5369 26.8922 17.5501C26.8857 17.5632 26.8823 17.5777 26.8823 17.5923V18.3614C26.8824 18.3761 26.8869 18.3904 26.8954 18.4023C26.9038 18.4142 26.9158 18.4231 26.9295 18.4277C27.9243 18.7645 28.9083 19.104 29.8813 19.4462C30.3538 19.6126 30.7086 19.7714 30.9456 19.9227C31.78 20.455 32.3094 21.2099 32.5336 22.1875C32.5942 22.4509 32.6245 22.815 32.6245 23.2798C32.6245 24.1708 32.6245 25.0617 32.6245 25.9527C32.6245 26.4996 32.6703 26.9856 32.0093 26.9856C29.9699 26.9856 27.9392 26.9856 25.9171 26.9856C25.9011 26.9856 25.8858 26.9919 25.8746 27.0032C25.8633 27.0145 25.8569 27.0298 25.8569 27.0458C25.8569 27.7289 25.8569 28.3981 25.8569 29.0535C25.8569 29.6564 25.4639 29.6913 24.9854 29.6919C20.0407 29.6992 15.096 29.7029 10.1514 29.7029C9.68926 29.7029 9.14307 29.7179 9.14307 29.0877C9.14307 28.3981 9.14307 27.7088 9.14307 27.0198C9.14307 27.0107 9.13946 27.002 9.13305 26.9956C9.12665 26.9892 9.11795 26.9856 9.10889 26.9856C7.06357 26.9856 5.01849 26.9856 2.97363 26.9856C2.46436 26.9856 2.37549 26.6383 2.37549 26.1892C2.37549 25.0818 2.37549 23.9744 2.37549 22.8669C2.37549 21.6296 3.14727 20.4402 4.18428 19.8414C4.40439 19.7142 4.82594 19.5435 5.44893 19.3293C6.32074 19.0299 7.18913 18.7314 8.0541 18.4338C8.07269 18.4274 8.0888 18.4154 8.1002 18.3995C8.1116 18.3836 8.11771 18.3645 8.11768 18.345V17.6122C8.11767 17.5896 8.1125 17.5674 8.10254 17.5471C8.09259 17.5269 8.07813 17.5091 8.06025 17.4953C7.0417 16.7128 6.43672 15.6739 6.24531 14.3788C6.24305 14.3628 6.23654 14.3477 6.22644 14.3351C6.21635 14.3225 6.20303 14.3128 6.18789 14.307C4.88291 13.8162 4.78379 11.872 6.07646 11.3593C6.1038 11.3484 6.12667 11.3287 6.14142 11.3031C6.15617 11.2776 6.16195 11.2478 6.15781 11.2185C6.09355 10.7489 6.04297 10.308 5.97393 9.82534C5.82764 8.79517 5.96094 7.66861 7.10527 7.294C7.13556 7.28403 7.16306 7.267 7.18552 7.2443C7.20798 7.22161 7.22475 7.19389 7.23447 7.16343C7.57354 6.10181 8.26807 5.2357 9.50195 5.31568C10.7741 5.39839 12.0046 5.66226 13.2822 5.68345C14.5544 5.70464 15.2599 6.96109 15.4294 8.09585C15.4302 8.10096 15.4321 8.10585 15.4348 8.11021C15.4376 8.11457 15.4412 8.11831 15.4454 8.1212C15.4497 8.12408 15.4544 8.12606 15.4594 8.12699C15.4644 8.12792 15.4696 8.12779 15.4745 8.12661C16.2729 7.94204 17.1042 8.05552 17.9054 8.19429C18.4167 8.28316 18.9494 8.3506 19.5036 8.39663C19.5273 8.39859 19.551 8.39251 19.5709 8.37937C19.5907 8.36622 19.6055 8.34678 19.613 8.32417C19.778 7.82743 20.1332 7.47902 20.6787 7.27896C20.7036 7.27006 20.726 7.25548 20.7443 7.23638C20.7625 7.21728 20.7761 7.19418 20.784 7.1689C21.6446 4.41948 23.7856 5.52964 25.7687 5.62808C26.3983 5.65952 27.0983 5.61509 27.6685 5.91382C28.4771 6.33765 28.9181 7.32066 28.9803 8.20386C29.0527 9.23199 28.8511 10.2382 28.8148 11.2629C28.8144 11.273 28.817 11.2829 28.8223 11.2914C28.8275 11.2998 28.8352 11.3063 28.8442 11.3101ZM14.3582 8.90864C14.4047 8.22505 14.2017 6.81548 13.2446 6.7854C12.5989 6.76535 12.0347 6.72137 11.5521 6.65347C10.7864 6.54614 10.0037 6.40122 9.22852 6.41284C8.59482 6.42241 8.33027 7.35757 8.17578 7.81968C7.93242 8.55044 7.42656 8.10269 7.18184 8.49849C6.82363 9.07818 7.13398 10.1521 7.22012 10.8501C7.22078 10.8558 7.2229 10.8612 7.22628 10.8658C7.22965 10.8705 7.23416 10.8742 7.23938 10.8766C7.24459 10.879 7.25034 10.88 7.25607 10.8796C7.26179 10.8791 7.2673 10.8772 7.27207 10.874C7.79707 10.5199 8.26351 10.0938 8.67139 9.59566C8.76618 9.48036 8.89355 9.40812 9.05352 9.37896C10.6559 9.08638 12.4277 8.98999 13.8312 9.92652C13.9146 9.98212 13.9731 9.96275 14.0068 9.86841C14.1135 9.57036 14.337 9.22036 14.3582 8.90864ZM27.7409 10.2054C27.7605 10.2214 27.7721 10.2168 27.7758 10.1918C27.8455 9.68316 27.8943 9.20305 27.9221 8.75142C27.9645 8.07193 27.6432 6.76558 26.7449 6.77447C25.4796 6.78677 24.2067 6.44224 22.9154 6.41216C22.1758 6.39575 21.9092 7.2065 21.7417 7.77661C21.5134 8.55454 21.0882 8.08013 20.7402 8.49165C20.7376 8.4949 20.7356 8.49871 20.7346 8.50281C20.7336 8.50691 20.7335 8.51119 20.7344 8.51537C20.7352 8.51954 20.737 8.5235 20.7395 8.52696C20.7421 8.53043 20.7454 8.53331 20.7491 8.5354C21.311 8.83163 21.7014 9.25773 21.9201 9.81372C21.9534 9.89803 21.9937 9.90145 22.0411 9.82398C22.3228 9.36323 22.6529 9.35093 23.2217 9.2812C23.7403 9.21786 24.3339 9.18915 25.0024 9.19507C26.0132 9.20419 26.9261 9.54097 27.7409 10.2054ZM19.978 9.4897C18.7195 9.49859 17.4932 9.1814 16.2415 9.11851C16.0583 9.10939 15.9191 9.12079 15.8238 9.15269C15.3679 9.30513 15.0773 10.0461 14.9707 10.4939C14.7896 11.252 14.2112 10.8104 13.9323 11.25C13.6158 11.749 13.9111 12.9384 13.9932 13.5509C13.9941 13.5585 13.997 13.5658 14.0016 13.5719C14.0062 13.5781 14.0123 13.583 14.0193 13.5861C14.0263 13.5892 14.034 13.5904 14.0417 13.5896C14.0493 13.5889 14.0566 13.5861 14.0629 13.5817C14.5975 13.2066 15.0769 12.7698 15.5012 12.2712C15.5868 12.171 15.7106 12.107 15.8724 12.0792C16.8896 11.9042 18.0387 11.8091 18.9834 11.9766C19.6934 12.1029 20.3449 12.4127 20.9378 12.9063C20.9802 12.9418 21.0048 12.9321 21.0116 12.8769C21.0772 12.351 21.1201 11.813 21.1401 11.2629C21.1627 10.6443 20.7983 9.48355 19.978 9.4897ZM9.38574 10.4597C8.60508 11.2841 7.78135 12.0853 6.63838 12.302C6.19199 12.3868 6.09766 13.0218 6.47021 13.2419C6.5167 13.2693 6.62858 13.2996 6.80586 13.3329C7.40332 13.4457 7.27412 13.875 7.33564 14.3234C7.66377 16.7119 10.3674 18.0339 12.4605 16.8165C12.4675 16.8124 12.4734 16.8067 12.4777 16.7999C12.4821 16.7931 12.4847 16.7854 12.4854 16.7774C12.4862 16.7694 12.485 16.7613 12.482 16.7538C12.4789 16.7463 12.4742 16.7397 12.4681 16.7344C11.5521 15.9456 11.8433 14.5538 12.8933 14.0335C12.9026 14.0291 12.9104 14.022 12.9156 14.0132C12.9208 14.0045 12.9233 13.9944 12.9227 13.9843C12.8748 12.8373 12.4264 11.8324 12.965 10.7414C12.9718 10.7276 12.9729 10.7118 12.9682 10.6973C12.9635 10.6827 12.9533 10.6706 12.9397 10.6634C11.9321 10.135 10.5807 10.2403 9.4835 10.4085C9.44586 10.4142 9.41143 10.4323 9.38574 10.4597ZM22.9667 10.457C22.7274 10.6853 22.5187 10.887 22.3405 11.062C22.1929 11.2076 22.238 11.4379 22.225 11.5993C22.1671 12.3289 22.0979 13.092 22.0172 13.8886C22.0138 13.9219 22.0213 13.9554 22.0385 13.9842C22.0557 14.013 22.0818 14.0356 22.1129 14.0486C23.1779 14.4916 23.4124 15.975 22.5251 16.7249C22.5193 16.7296 22.5148 16.7357 22.5119 16.7426C22.509 16.7495 22.5078 16.757 22.5084 16.7644C22.509 16.7718 22.5114 16.779 22.5154 16.7854C22.5194 16.7917 22.5248 16.797 22.5312 16.8007C24.8247 18.1406 27.5734 16.5608 27.6979 13.9208C27.7051 13.7695 27.7341 13.6562 27.7847 13.581C27.9856 13.285 28.2434 13.3766 28.4888 13.2597C28.8005 13.1107 28.8497 12.7163 28.6303 12.4709C28.3459 12.153 28.0055 12.4339 27.7402 11.9438C27.2672 11.0688 26.3908 10.405 25.3784 10.3203C24.5946 10.2546 23.828 10.2818 23.0788 10.4016C23.0365 10.4083 22.9974 10.4276 22.9667 10.457ZM13.138 15.1724C12.8939 15.4978 13.0402 15.9859 13.4832 16.0426C13.8674 16.0918 14.0827 16.2265 14.0991 16.6633C14.2604 20.9857 20.5639 21.1245 20.9063 16.7085C20.9218 16.512 20.9544 16.3744 21.0041 16.2956C21.1853 16.0091 21.4327 16.083 21.6747 15.9914C22.0609 15.8451 22.089 15.2497 21.7137 15.0637C21.7018 15.0578 21.5986 15.0343 21.404 14.9933C21.1793 14.9459 21.0103 14.7976 20.8968 14.5483C20.6999 14.1176 20.2166 13.6822 19.8099 13.4327C18.8159 12.8236 17.286 12.9412 16.2176 13.1367C16.1959 13.1406 16.176 13.1517 16.1608 13.1681C15.4561 13.929 14.6754 14.6611 13.6596 14.9701C13.5229 15.0118 13.2604 15.009 13.138 15.1724ZM22.7979 18.5125L24.2259 19.3519C24.2418 19.3611 24.2598 19.3659 24.278 19.3659C24.2961 19.3659 24.3137 19.3611 24.3291 19.3519L25.7462 18.5145C25.7555 18.509 25.7633 18.5014 25.7691 18.4922C25.7748 18.483 25.7782 18.4726 25.779 18.4619L25.8002 18.1727C25.8007 18.1652 25.7993 18.1577 25.7963 18.1509C25.7932 18.144 25.7884 18.138 25.7825 18.1334C25.7766 18.1288 25.7696 18.1258 25.7622 18.1245C25.7548 18.1233 25.7472 18.1239 25.74 18.1262C24.7534 18.4521 23.7793 18.4539 22.8177 18.1317C22.8135 18.1302 22.8091 18.1296 22.8048 18.1299C22.8004 18.1303 22.7962 18.1315 22.7923 18.1336C22.7885 18.1356 22.7852 18.1385 22.7826 18.142C22.78 18.1454 22.7782 18.1494 22.7773 18.1536C22.7532 18.2657 22.7516 18.3735 22.7726 18.4769C22.774 18.4844 22.7771 18.4915 22.7814 18.4976C22.7858 18.5037 22.7914 18.5088 22.7979 18.5125ZM9.24219 18.5104L10.6859 19.3635C10.695 19.3689 10.7053 19.3718 10.7158 19.3719C10.7262 19.3721 10.7365 19.3694 10.7454 19.3642L12.2035 18.5056C12.2129 18.5 12.2206 18.4923 12.226 18.4831C12.2314 18.474 12.2343 18.4639 12.2343 18.4537L12.2336 18.1645C12.2335 18.1591 12.2322 18.1539 12.2296 18.1492C12.227 18.1445 12.2232 18.1404 12.2186 18.1374C12.214 18.1343 12.2087 18.1323 12.2031 18.1316C12.1975 18.1308 12.1918 18.1313 12.1864 18.1331C11.2021 18.4516 10.2327 18.4514 9.27842 18.1324C9.26941 18.1295 9.25985 18.1291 9.25055 18.1313C9.24125 18.1335 9.23248 18.1381 9.22497 18.1449C9.21747 18.1517 9.21145 18.1603 9.20743 18.1702C9.2034 18.18 9.20149 18.1907 9.20186 18.2014L9.20937 18.4468C9.20978 18.4606 9.21301 18.4737 9.21875 18.4848C9.2245 18.4959 9.23257 18.5047 9.24219 18.5104ZM9.42881 19.894L8.62627 19.4312C8.61726 19.4258 8.60703 19.4226 8.59628 19.4216C8.58553 19.4207 8.57454 19.4221 8.56406 19.4257C7.47168 19.7876 6.38294 20.1599 5.29785 20.5427C4.00586 20.9987 3.46855 21.901 3.46992 23.2122C3.47083 24.0799 3.46901 24.9599 3.46445 25.8522C3.46445 25.8627 3.46863 25.8728 3.47607 25.8802C3.4835 25.8877 3.49359 25.8919 3.5041 25.8919L8.82314 25.8877C8.83979 25.8878 8.85587 25.8816 8.86825 25.8704C8.88064 25.8591 8.88844 25.8436 8.89014 25.8269L9.45547 19.9473C9.45652 19.9366 9.45456 19.9258 9.44983 19.9163C9.4451 19.9069 9.43779 19.8991 9.42881 19.894ZM14.8552 20.2276C14.7116 20.1073 14.5954 20.002 14.4136 19.9398C13.9059 19.7662 13.4091 19.5955 12.9233 19.4278C12.9008 19.4201 12.877 19.4173 12.8537 19.4195C12.8303 19.4217 12.8079 19.429 12.788 19.4408L12.0381 19.8858C12.0232 19.8945 12.0111 19.9076 12.0032 19.9233C11.9953 19.939 11.992 19.9568 11.9937 19.9747L12.1823 21.981C12.1831 21.9894 12.1858 21.9976 12.1902 22.0048C12.1946 22.0121 12.2005 22.0182 12.2076 22.0228C12.2148 22.0274 12.2228 22.0304 12.2312 22.0314C12.2396 22.0325 12.2481 22.0316 12.2562 22.0289L14.8518 21.1409C14.8615 21.1375 14.87 21.1311 14.876 21.1226C14.882 21.1142 14.8853 21.1041 14.8853 21.0937V20.2925C14.8853 20.2803 14.8826 20.2682 14.8774 20.2569C14.8722 20.2457 14.8646 20.2357 14.8552 20.2276ZM20.1421 21.1272L22.7794 22.0459C22.7828 22.0471 22.7865 22.0475 22.7901 22.0471C22.7937 22.0467 22.7971 22.0455 22.8002 22.0436C22.8032 22.0417 22.8057 22.0391 22.8076 22.0361C22.8094 22.0331 22.8106 22.0296 22.8108 22.0261L23.0111 19.9432C23.0119 19.9331 23.0099 19.9231 23.0054 19.9141C23.0008 19.9052 22.9938 19.8977 22.9852 19.8926L22.1908 19.4264C22.1799 19.4202 22.1677 19.4163 22.1551 19.415C22.1425 19.4137 22.1298 19.415 22.1177 19.4189C21.5913 19.5962 21.0768 19.7728 20.5741 19.9487C20.3991 20.0102 20.2877 20.1162 20.1476 20.2283C20.1373 20.2366 20.129 20.2471 20.1234 20.2591C20.1177 20.271 20.1147 20.2841 20.1147 20.2973V21.0882C20.1148 21.0968 20.1174 21.1052 20.1223 21.1121C20.1272 21.1191 20.1341 21.1244 20.1421 21.1272ZM31.5157 22.9353C31.5034 21.7739 30.8164 20.9385 29.7404 20.5557C28.6439 20.1652 27.5427 19.7885 26.4366 19.4257C26.4256 19.4221 26.4143 19.4206 26.4035 19.4215C26.3926 19.4223 26.3825 19.4254 26.3737 19.4305L25.5931 19.8899C25.577 19.8993 25.5639 19.9136 25.5554 19.931C25.5469 19.9485 25.5434 19.9683 25.5452 19.9883L26.1051 25.829C26.1066 25.8462 26.1146 25.8622 26.1274 25.8738C26.1401 25.8855 26.1568 25.8919 26.1741 25.8919H31.485C31.4971 25.8919 31.5088 25.887 31.5173 25.8784C31.5259 25.8698 31.5308 25.8582 31.5308 25.846C31.5308 24.8626 31.5257 23.8923 31.5157 22.9353ZM10.891 20.5311C10.7399 20.596 10.6702 20.5297 10.5321 20.5291C10.5228 20.5289 10.5137 20.5324 10.5067 20.5388C10.4998 20.5453 10.4954 20.5543 10.4945 20.5639L10.2628 22.9859C10.255 23.0684 10.2803 23.0802 10.3387 23.0214C10.5456 22.8113 10.7924 22.6343 11.079 22.4903C11.0943 22.4826 11.1069 22.4706 11.1152 22.4557C11.1235 22.4408 11.1271 22.4238 11.1255 22.4069L10.9505 20.566C10.9499 20.5593 10.9477 20.5529 10.9441 20.5473C10.9405 20.5417 10.9356 20.537 10.9298 20.5336C10.924 20.5302 10.9175 20.5282 10.9108 20.5278C10.904 20.5273 10.8973 20.5285 10.891 20.5311ZM23.9251 22.4876C24.1698 22.6266 24.4259 22.8075 24.6935 23.0303C24.7285 23.0595 24.7438 23.0513 24.7393 23.0057L24.5048 20.5721C24.5043 20.5666 24.5026 20.5612 24.4998 20.5564C24.4969 20.5515 24.4931 20.5473 24.4885 20.5441C24.4839 20.5409 24.4786 20.5386 24.4731 20.5376C24.4675 20.5365 24.4618 20.5366 24.4563 20.5379C24.3282 20.5712 24.2122 20.5685 24.1083 20.5297C24.1025 20.5276 24.0963 20.5269 24.0902 20.5275C24.084 20.5282 24.0781 20.5302 24.0729 20.5335C24.0677 20.5368 24.0633 20.5413 24.0601 20.5466C24.0568 20.5518 24.0549 20.5578 24.0543 20.5639L23.8813 22.4048C23.8799 22.4213 23.8833 22.4379 23.891 22.4525C23.8988 22.4672 23.9106 22.4794 23.9251 22.4876ZM16.0604 21.2475C16.5188 21.5182 16.9832 21.7923 17.4535 22.0699C17.4694 22.0794 17.4876 22.0844 17.5061 22.0842C17.5247 22.0841 17.5429 22.0789 17.5588 22.0692C18.01 21.7967 18.4666 21.5244 18.9287 21.2523C19.06 21.1751 19.021 21.0684 19.0306 20.9399C19.0429 20.769 18.9185 20.8572 18.8439 20.8797C17.9462 21.1523 17.0484 21.1518 16.1506 20.8784C16.074 20.8551 15.9626 20.7758 15.9708 20.9406C15.9763 21.0554 15.9462 21.1805 16.0604 21.2475ZM16.1807 22.5956L15.3986 22.1328C15.3905 22.1278 15.3813 22.1248 15.3716 22.1238C15.3619 22.1229 15.352 22.1241 15.3426 22.1273C14.3705 22.4595 13.4021 22.7877 12.4373 23.1117C11.4317 23.4494 10.6682 23.9046 10.3517 24.9676C10.2204 25.4079 10.2368 25.87 10.2368 26.3704C10.2368 27.0995 10.2368 27.821 10.2368 28.5346C10.2368 28.5444 10.2387 28.5541 10.2425 28.5631C10.2462 28.5722 10.2517 28.5804 10.2586 28.5873C10.2656 28.5942 10.2738 28.5997 10.2828 28.6035C10.2919 28.6072 10.3015 28.6091 10.3113 28.6091H15.601C15.617 28.6092 15.6325 28.6033 15.6444 28.5925C15.6563 28.5818 15.6637 28.567 15.6652 28.551L16.2258 22.6851C16.2274 22.6671 16.224 22.6491 16.216 22.6333C16.208 22.6174 16.1958 22.6043 16.1807 22.5956ZM24.7249 25.2636C24.5991 24.4631 23.9565 23.6045 23.1567 23.3284C22.0006 22.9292 20.8498 22.5324 19.7046 22.1382C19.6841 22.1312 19.6627 22.1283 19.6419 22.13C19.6211 22.1317 19.6015 22.1377 19.5843 22.1478L18.7975 22.6133C18.7889 22.6185 18.7819 22.6262 18.7774 22.6357C18.7729 22.6451 18.7711 22.6559 18.7722 22.6667L19.3341 28.5462C19.3358 28.5634 19.3438 28.5794 19.3567 28.591C19.3696 28.6026 19.3864 28.6091 19.4038 28.6091L24.6982 28.605C24.7155 28.605 24.732 28.5982 24.7442 28.586C24.7563 28.5738 24.7632 28.5573 24.7632 28.5401C24.7632 27.7717 24.7671 27.0143 24.7748 26.2678C24.7794 25.8413 24.7627 25.5065 24.7249 25.2636ZM17.4221 23.2586C17.382 23.2436 17.3428 23.2432 17.3045 23.2573C17.2953 23.2608 17.2871 23.2673 17.2811 23.276C17.2751 23.2847 17.2713 23.2953 17.2703 23.3065L16.7672 28.5544C16.7665 28.5614 16.7673 28.5684 16.7695 28.575C16.7717 28.5816 16.7753 28.5877 16.78 28.5929C16.7847 28.598 16.7904 28.6021 16.7968 28.6049C16.8032 28.6077 16.8101 28.6092 16.8171 28.6091H18.2014C18.2061 28.6092 18.2107 28.6082 18.215 28.6063C18.2193 28.6045 18.2232 28.6017 18.2263 28.5983C18.2295 28.5949 18.2319 28.5909 18.2334 28.5865C18.2348 28.5821 18.2353 28.5775 18.2349 28.5729L17.7215 23.2812C17.7211 23.2769 17.7198 23.2727 17.7177 23.2688C17.7155 23.265 17.7127 23.2616 17.7092 23.2589C17.7057 23.2562 17.7016 23.2541 17.6973 23.2529C17.6929 23.2517 17.6884 23.2513 17.6839 23.2518L17.487 23.271C17.4706 23.2728 17.449 23.2687 17.4221 23.2586Z" fill="black"/>
<path d="M7.01572 21.2969H5.75107C5.4649 21.2969 5.23291 21.5289 5.23291 21.815V21.867C5.23291 22.1532 5.4649 22.3852 5.75107 22.3852H7.01572C7.3019 22.3852 7.53389 22.1532 7.53389 21.867V21.815C7.53389 21.5289 7.3019 21.2969 7.01572 21.2969Z" fill="#426AB2"/>
<path d="M13.7944 24.0106L12.5312 24.0128C12.2454 24.0133 12.0141 24.2454 12.0146 24.5312L12.0147 24.5845C12.0152 24.8703 12.2473 25.1015 12.5331 25.101L13.7963 25.0988C14.0821 25.0983 14.3134 24.8663 14.3129 24.5805L14.3128 24.5271C14.3123 24.2413 14.0802 24.0101 13.7944 24.0106Z" fill="#426AB2"/>
</svg>
