<svg width="35" height="36" viewBox="0 0 35 36" fill="none" xmlns="http://www.w3.org/2000/svg">
<g clip-path="url(#clip0_1_266)">
<path d="M35 32.6794V32.9186C34.8394 34.5682 33.2199 35.5505 31.6846 34.8566C31.3523 34.7062 31.1138 34.4889 30.8513 34.2264C30.3044 33.6795 29.7557 33.1306 29.2052 32.5796C29.1983 32.5728 29.1902 32.5674 29.1813 32.5639C29.1723 32.5603 29.1628 32.5585 29.1531 32.5587C29.1435 32.5589 29.134 32.561 29.1252 32.565C29.1164 32.5689 29.1085 32.5746 29.102 32.5816C28.5291 33.2085 27.6979 33.3883 26.9445 32.9918C26.4104 32.7106 26.0941 32.2034 25.9957 31.4701C25.9945 31.4616 25.9916 31.4534 25.987 31.4461C25.9824 31.4387 25.9763 31.4325 25.9692 31.4277C25.962 31.4229 25.9539 31.4197 25.9454 31.4183C25.9369 31.4169 25.9282 31.4173 25.9198 31.4195C23.0597 32.1633 20.0696 31.2213 18.1686 28.9818C18.151 28.9611 18.1291 28.9444 18.1044 28.9329C18.0798 28.9215 18.0529 28.9155 18.0257 28.9155C13.5194 28.9155 9.03757 28.9155 4.58008 28.9155C3.82949 28.9155 3.37422 28.906 3.21426 28.8868C1.4335 28.6756 0.102539 27.2141 0 25.408V5.31035C0.133301 3.63213 1.26602 2.20615 2.95107 1.89102C3.1762 1.84909 3.56882 1.82812 4.12891 1.82812C11.2178 1.82812 18.3066 1.82812 25.3955 1.82812C26.2295 1.82812 27.0792 2.19795 27.7061 2.76055C28.52 3.49062 28.9276 4.45153 28.929 5.64326C28.934 9.85192 28.9354 14.0537 28.9331 18.2487C28.9331 18.2625 28.936 18.2761 28.9417 18.2888C28.9473 18.3014 28.9556 18.3126 28.9659 18.3219C31.1534 20.2817 32.0797 23.172 31.3257 26.0267C31.3239 26.0335 31.3236 26.0406 31.3248 26.0476C31.326 26.0545 31.3287 26.0611 31.3328 26.0669C31.3368 26.0727 31.342 26.0776 31.3481 26.0811C31.3542 26.0847 31.361 26.0868 31.3681 26.0875C31.9737 26.1495 32.4299 26.3801 32.7366 26.7793C33.3259 27.5456 33.1953 28.5218 32.4946 29.1896C32.4868 29.1971 32.4805 29.2061 32.4762 29.216C32.4719 29.2259 32.4696 29.2365 32.4694 29.2473C32.4693 29.2581 32.4713 29.2688 32.4754 29.2787C32.4795 29.2887 32.4856 29.2977 32.4933 29.3052C32.9125 29.7249 33.3291 30.1417 33.7429 30.5555C34.503 31.3156 34.931 31.7066 35 32.6794ZM9.64482 8.33525C8.77734 8.33457 8.85459 7.31533 9.5874 7.31465C14.6574 7.31419 19.7274 7.31055 24.7974 7.30371C25.589 7.30234 26.3088 7.37344 26.6369 8.1999C26.6975 8.35348 26.7287 8.56494 26.7306 8.83428C26.7488 11.4657 26.7536 14.1588 26.7449 16.9137C26.7449 16.9291 26.7496 16.9444 26.7584 16.9578C26.7673 16.9712 26.7799 16.9822 26.7948 16.9895L27.8496 17.5057C27.8557 17.5087 27.8625 17.5101 27.8693 17.5099C27.8761 17.5096 27.8828 17.5076 27.8886 17.5041C27.8944 17.5006 27.8992 17.4958 27.9025 17.4899C27.9059 17.4841 27.9077 17.4775 27.9077 17.4708C27.9077 13.5479 27.9123 9.64388 27.9214 5.75879C27.9248 4.41211 27.2631 3.29922 25.9499 2.94375C25.7284 2.88359 25.4242 2.85352 25.0373 2.85352C18.1594 2.85352 11.2813 2.85352 4.40303 2.85352C3.74313 2.85352 3.34915 2.86354 3.22109 2.88359C2.221 3.0415 1.36924 3.82422 1.11904 4.79219C1.05661 5.03327 1.02539 5.48649 1.02539 6.15185C1.02539 12.5093 1.02699 18.8667 1.03018 25.2241C1.03086 26.5154 1.92021 27.6324 3.18076 27.8505C3.33298 27.8769 3.78802 27.8901 4.5459 27.8901C8.78646 27.8901 13.0489 27.8901 17.3332 27.8901C17.3395 27.8902 17.3456 27.8886 17.351 27.8854C17.3564 27.8823 17.3609 27.8778 17.364 27.8723C17.3671 27.8668 17.3688 27.8606 17.3688 27.8543C17.3687 27.8479 17.3671 27.8417 17.364 27.8361C17.1639 27.4875 16.9969 27.1366 16.8629 26.7834C16.8569 26.7672 16.8461 26.7532 16.8319 26.7433C16.8177 26.7334 16.8009 26.7281 16.7836 26.728C12.6556 26.728 8.52806 26.728 4.40098 26.728C3.73652 26.728 3.33343 26.7089 3.1917 26.6706C2.40693 26.4601 2.1875 25.8038 2.1875 25.0532C2.1875 19.6957 2.1875 14.3381 2.1875 8.98057C2.1875 7.95176 2.63594 7.34062 3.71738 7.32627C4.95059 7.31032 6.18379 7.30599 7.41699 7.31328C8.13613 7.31807 8.2291 8.33252 7.35684 8.33594C6.11224 8.34049 4.86764 8.34163 3.62305 8.33935C3.30859 8.33867 3.21289 8.5458 3.21289 8.83838C3.21289 14.2839 3.21289 19.7292 3.21289 25.1742C3.21289 25.5256 3.2751 25.7026 3.65723 25.7026C7.92969 25.7026 12.2058 25.7026 16.4855 25.7026C16.4921 25.7027 16.4985 25.7012 16.5045 25.6984C16.5104 25.6956 16.5156 25.6915 16.5198 25.6865C16.524 25.6814 16.527 25.6754 16.5286 25.669C16.5303 25.6626 16.5305 25.6558 16.5293 25.6493C15.9544 22.8028 16.9559 19.9235 19.237 18.1202C21.0736 16.6678 23.2107 16.1722 25.6484 16.6334C25.6571 16.6351 25.6661 16.6349 25.6747 16.6327C25.6833 16.6305 25.6913 16.6264 25.6981 16.6207C25.705 16.615 25.7105 16.6079 25.7143 16.5998C25.7182 16.5917 25.7202 16.5829 25.7202 16.5739C25.7202 13.9667 25.7184 11.3757 25.7147 8.80078C25.7143 8.49225 25.5509 8.33844 25.2246 8.33935C23.5712 8.34482 18.378 8.34346 9.64482 8.33525ZM17.4111 23.6129C17.1076 28.4336 21.8976 31.9985 26.4476 30.1631C26.5606 30.1175 26.6631 30.0489 26.7552 29.9573C27.8056 28.9064 28.8734 27.8386 29.9585 26.754C29.9922 26.7203 30.0182 26.6811 30.0364 26.6364C31.9054 22.0905 28.4184 17.1659 23.5334 17.4981C20.2747 17.7203 17.6189 20.3166 17.4111 23.6129ZM31.8634 27.3335C31.7964 27.2663 31.7168 27.213 31.6292 27.1765C31.5416 27.14 31.4477 27.1212 31.3528 27.121C31.2579 27.1208 31.1639 27.1394 31.0762 27.1755C30.9885 27.2117 30.9087 27.2648 30.8415 27.3317L27.2341 30.9266C27.0984 31.0619 27.0219 31.2455 27.0216 31.4372C27.0213 31.6288 27.0971 31.8127 27.2323 31.9484L27.2497 31.9659C27.3167 32.0331 27.3962 32.0865 27.4838 32.1229C27.5714 32.1594 27.6654 32.1782 27.7603 32.1784C27.8551 32.1786 27.9491 32.16 28.0369 32.1239C28.1246 32.0877 28.2043 32.0346 28.2716 31.9677L31.879 28.3728C32.0147 28.2375 32.0912 28.0539 32.0915 27.8623C32.0918 27.6706 32.016 27.4867 31.8808 27.351L31.8634 27.3335ZM29.9209 31.8427C30.5211 32.4506 31.1181 33.044 31.7119 33.6227C32.228 34.1252 32.9232 34.2435 33.4845 33.769C33.9199 33.4006 34.1065 32.8353 33.883 32.3014C33.8092 32.125 33.5991 31.8636 33.2527 31.5173C32.7469 31.0114 32.2426 30.5072 31.7399 30.0045C31.7319 29.9967 31.7212 29.9924 31.7101 29.9924C31.6991 29.9924 31.6887 29.9967 31.6812 30.0045L29.9209 31.7729C29.9163 31.7775 29.9127 31.783 29.9102 31.7889C29.9077 31.7949 29.9064 31.8013 29.9064 31.8078C29.9064 31.8143 29.9077 31.8207 29.9102 31.8267C29.9127 31.8327 29.9163 31.8381 29.9209 31.8427Z" fill="black"/>
<path d="M5.7833 5.11602C5.7833 5.52285 5.62168 5.91303 5.33401 6.20071C5.04633 6.48838 4.65615 6.65 4.24932 6.65C3.84248 6.65 3.4523 6.48838 3.16463 6.20071C2.87695 5.91303 2.71533 5.52285 2.71533 5.11602C2.71533 4.70918 2.87695 4.319 3.16463 4.03132C3.4523 3.74365 3.84248 3.58203 4.24932 3.58203C4.65615 3.58203 5.04633 3.74365 5.33401 4.03132C5.62168 4.319 5.7833 4.70918 5.7833 5.11602ZM4.75723 5.11602C4.75723 4.98131 4.70371 4.85212 4.60846 4.75687C4.51321 4.66162 4.38402 4.60811 4.24932 4.60811C4.11461 4.60811 3.98542 4.66162 3.89017 4.75687C3.79492 4.85212 3.74141 4.98131 3.74141 5.11602C3.74141 5.25072 3.79492 5.37991 3.89017 5.47516C3.98542 5.57041 4.11461 5.62393 4.24932 5.62393C4.38402 5.62393 4.51321 5.57041 4.60846 5.47516C4.70371 5.37991 4.75723 5.25072 4.75723 5.11602Z" fill="black"/>
<path d="M9.04648 5.11602C9.04648 5.52285 8.88487 5.91303 8.59719 6.20071C8.30951 6.48838 7.91934 6.65 7.5125 6.65C7.10566 6.65 6.71549 6.48838 6.42781 6.20071C6.14013 5.91303 5.97852 5.52285 5.97852 5.11602C5.97852 4.70918 6.14013 4.319 6.42781 4.03132C6.71549 3.74365 7.10566 3.58203 7.5125 3.58203C7.91934 3.58203 8.30951 3.74365 8.59719 4.03132C8.88487 4.319 9.04648 4.70918 9.04648 5.11602ZM8.02041 5.1167C8.02041 5.05 8.00727 4.98395 7.98175 4.92233C7.95622 4.86071 7.91881 4.80472 7.87165 4.75755C7.82448 4.71039 7.76849 4.67298 7.70687 4.64745C7.64525 4.62193 7.5792 4.60879 7.5125 4.60879C7.4458 4.60879 7.37975 4.62193 7.31813 4.64745C7.25651 4.67298 7.20052 4.71039 7.15335 4.75755C7.10619 4.80472 7.06878 4.86071 7.04325 4.92233C7.01773 4.98395 7.00459 5.05 7.00459 5.1167C7.00459 5.25141 7.0581 5.38059 7.15335 5.47585C7.2486 5.5711 7.37779 5.62461 7.5125 5.62461C7.64721 5.62461 7.77639 5.5711 7.87165 5.47585C7.9669 5.38059 8.02041 5.25141 8.02041 5.1167Z" fill="black"/>
<path d="M4.89156 14.1299C5.32017 14.4409 5.67633 14.4074 5.67291 13.7949C5.66607 12.6433 5.67086 11.4919 5.68726 10.3407C5.69 10.1607 5.71939 10.0299 5.77545 9.94832C5.98873 9.63524 6.46861 9.66121 6.63746 9.99686C6.67847 10.0784 6.69898 10.2081 6.69898 10.3858C6.69898 11.3283 6.69898 12.2709 6.69898 13.2139C6.69898 14.015 6.75572 14.5011 6.24986 14.9768C5.67086 15.5217 4.87174 15.4636 4.27633 14.9502C3.72808 14.4764 4.33511 13.7252 4.89156 14.1299Z" fill="black"/>
<path d="M13.0086 12.5448C13.0086 13.2912 12.7121 14.0071 12.1843 14.5349C11.6565 15.0627 10.9407 15.3592 10.1942 15.3592C9.44783 15.3592 8.73198 15.0627 8.20419 14.5349C7.67639 14.0071 7.37988 13.2912 7.37988 12.5448C7.37988 11.7984 7.67639 11.0826 8.20419 10.5548C8.73198 10.027 9.44783 9.73047 10.1942 9.73047C10.9407 9.73047 11.6565 10.027 12.1843 10.5548C12.7121 11.0826 13.0086 11.7984 13.0086 12.5448ZM11.9846 12.5455C11.9846 12.0707 11.7959 11.6153 11.4602 11.2796C11.1244 10.9438 10.6691 10.7552 10.1942 10.7552C9.71941 10.7552 9.26403 10.9438 8.92828 11.2796C8.59253 11.6153 8.40391 12.0707 8.40391 12.5455C8.40391 13.0203 8.59253 13.4757 8.92828 13.8115C9.26403 14.1472 9.71941 14.3358 10.1942 14.3358C10.6691 14.3358 11.1244 14.1472 11.4602 13.8115C11.7959 13.4757 11.9846 13.0203 11.9846 12.5455Z" fill="black"/>
<path d="M16.8595 12.2241C17.8985 13.1114 17.6839 14.7547 16.3775 15.2408C15.8689 15.4294 15.145 15.37 14.5756 15.3665C14.0492 15.3631 13.689 15.3631 13.689 14.7513C13.689 13.3048 13.689 11.8583 13.689 10.4119C13.689 9.90462 13.8523 9.72484 14.3473 9.72416C15.2229 9.72279 16.1595 9.54779 16.7761 10.3476C17.194 10.8895 17.2186 11.4979 16.8499 12.1728C16.8453 12.1811 16.8437 12.1908 16.8455 12.2001C16.8472 12.2095 16.8522 12.2179 16.8595 12.2241ZM15.4649 11.8426C16.29 11.8453 16.2538 10.7577 15.5347 10.7523C15.2726 10.7505 15.0106 10.7495 14.7485 10.7495C14.7395 10.7495 14.7308 10.7531 14.7244 10.7596C14.718 10.766 14.7144 10.7747 14.7144 10.7837V11.8091C14.7144 11.8143 14.7154 11.8194 14.7174 11.8242C14.7194 11.829 14.7223 11.8333 14.726 11.8369C14.7297 11.8405 14.7341 11.8434 14.7389 11.8453C14.7437 11.8472 14.7488 11.8482 14.754 11.8481C14.9987 11.8435 15.2357 11.8417 15.4649 11.8426ZM15.6885 14.3377C16.72 14.3288 16.7412 12.9452 15.8423 12.8906C15.5009 12.8696 15.1393 12.8628 14.7574 12.8701C14.7459 12.8702 14.735 12.8749 14.7269 12.8829C14.7189 12.891 14.7144 12.9018 14.7144 12.9131L14.7185 14.2994C14.7185 14.3088 14.722 14.3177 14.7284 14.3243C14.7348 14.331 14.7435 14.3348 14.7526 14.335C15.0648 14.3391 15.3768 14.34 15.6885 14.3377Z" fill="black"/>
<path d="M11.905 17.7754H5.08682C4.80857 17.7754 4.58301 18.001 4.58301 18.2792V18.2956C4.58301 18.5739 4.80857 18.7994 5.08682 18.7994H11.905C12.1832 18.7994 12.4088 18.5739 12.4088 18.2956V18.2792C12.4088 18.001 12.1832 17.7754 11.905 17.7754Z" fill="black"/>
<path d="M20.0784 27.3898C18.6414 25.7362 18.4282 23.2377 19.6162 21.3578C22.4108 16.9356 29.2153 19.0069 29.1038 24.2173C29.0936 24.6842 28.6185 24.9391 28.2582 24.6445C28.045 24.4709 28.086 24.2583 28.0757 24.0019C28.0188 22.5878 27.4215 21.4804 26.284 20.6797C25.0153 19.7869 23.2776 19.7418 21.948 20.504C20.1734 21.5212 19.4043 23.6683 20.1638 25.5865C21.4196 28.7577 25.7064 29.0407 27.4844 26.1867C27.641 25.9358 27.7421 25.728 28.0361 25.726C28.3198 25.7246 28.5672 25.9399 28.5549 26.2366C28.5508 26.3387 28.5057 26.4636 28.4196 26.6112C26.6183 29.7052 22.421 30.0859 20.0784 27.3898Z" fill="black"/>
<path d="M11.905 19.9609H5.08682C4.80857 19.9609 4.58301 20.1865 4.58301 20.4647V20.4812C4.58301 20.7594 4.80857 20.985 5.08682 20.985H11.905C12.1832 20.985 12.4088 20.7594 12.4088 20.4812V20.4647C12.4088 20.1865 12.1832 19.9609 11.905 19.9609Z" fill="black"/>
<path d="M11.905 22.1484H5.08682C4.80857 22.1484 4.58301 22.374 4.58301 22.6522V22.6687C4.58301 22.9469 4.80857 23.1725 5.08682 23.1725H11.905C12.1832 23.1725 12.4088 22.9469 12.4088 22.6687V22.6522C12.4088 22.374 12.1832 22.1484 11.905 22.1484Z" fill="black"/>
</g>
<defs>
<clipPath id="clip0_1_266">
<rect width="35" height="35" fill="white" transform="translate(0 0.957031)"/>
</clipPath>
</defs>
</svg>
