<svg width="35" height="31" viewBox="0 0 35 31" fill="none" xmlns="http://www.w3.org/2000/svg">
<path d="M35 16.7393V17.252C34.8729 19.5653 33.9922 21.5269 32.3579 23.137C32.3425 23.1525 32.3332 23.1729 32.3319 23.1945C32.3091 23.6424 32.3041 24.0072 32.3169 24.2889C32.378 25.626 31.9038 26.6842 30.8943 27.4635C30.5006 27.767 30.0556 27.9732 29.5593 28.0821C29.2959 28.1396 28.8424 28.1683 28.1989 28.1683C25.7476 28.1683 23.2964 28.1683 20.8455 28.1683C20.6482 28.1683 20.5064 28.1462 20.4203 28.102C20.2681 28.0231 20.1838 27.8901 20.1674 27.7028C20.1587 27.6084 20.1731 27.5227 20.2104 27.4457C20.2515 27.36 20.3107 27.2912 20.3882 27.2393C20.4657 27.1873 20.5764 27.1577 20.7204 27.1504C20.8175 27.1454 20.9346 27.1429 21.0718 27.1429C23.3563 27.1429 25.6407 27.1429 27.9248 27.1429C28.6617 27.1429 29.1163 27.1251 29.2886 27.0896C29.8272 26.9784 30.2898 26.7001 30.6763 26.2549C31.0778 25.791 31.2819 25.2496 31.2888 24.6307C31.2906 24.4425 31.2915 24.2381 31.2915 24.0175C31.2915 23.9929 31.281 23.9874 31.2601 24.0011C29.6905 25.032 27.9929 25.5134 26.1673 25.4455C25.7034 25.4282 25.2513 25.3747 24.811 25.2849C23.72 25.0611 22.6921 24.6314 21.7273 23.9956C21.7166 23.9885 21.7036 23.9853 21.6908 23.9867C21.6779 23.988 21.6659 23.9939 21.6569 24.0031L20.6295 25.0306C20.6207 25.0392 20.6141 25.0499 20.6104 25.0617C20.6067 25.0735 20.606 25.0861 20.6083 25.0983C20.6575 25.3653 20.6325 25.6082 20.5331 25.827C20.4757 25.9528 20.3285 26.1344 20.0915 26.3718C18.9531 27.5129 17.8133 28.6529 16.6722 29.7918C16.2265 30.2362 15.9749 30.4802 15.9175 30.5239C15.6231 30.7463 15.2911 30.8833 14.9215 30.9348C14.5729 30.984 14.2342 30.9507 13.9057 30.835C13.557 30.7124 13.267 30.5141 13.0354 30.2403C12.685 29.8265 12.5098 29.358 12.5098 28.8348C12.5098 28.4611 12.5991 28.1191 12.7777 27.8087C12.8712 27.6465 13.0951 27.3858 13.4497 27.0267C14.7185 25.7424 15.9934 24.4641 17.2744 23.1917C17.5802 22.8882 17.937 22.7777 18.3449 22.8602C18.3651 22.8642 18.386 22.8632 18.4056 22.8574C18.4253 22.8515 18.4432 22.841 18.4577 22.8267L19.4653 21.8109C19.475 21.8013 19.4809 21.7885 19.4822 21.7748C19.4834 21.7611 19.4799 21.7473 19.4722 21.7357C18.5042 20.2928 18.0163 18.7108 18.0086 16.9895C18.0086 16.9764 18.0034 16.9639 17.9942 16.9547C17.9849 16.9454 17.9724 16.9403 17.9594 16.9403H9.48897C9.48169 16.9403 9.47449 16.9417 9.46778 16.9445C9.46106 16.9473 9.45495 16.9513 9.44981 16.9565C9.44467 16.9616 9.44059 16.9677 9.43781 16.9744C9.43503 16.9812 9.43359 16.9884 9.43359 16.9956C9.43359 17.3598 9.43359 17.712 9.43359 18.0525C9.43359 18.6472 9.42471 18.999 9.40693 19.1079C9.33584 19.5441 9.13896 19.9089 8.81631 20.2024C8.56657 20.4293 8.28311 20.5849 7.96592 20.6693C7.62686 20.759 7.29144 20.7508 6.95967 20.6446C6.28838 20.4295 5.85794 20.0059 5.66836 19.3738C5.6041 19.1587 5.57197 18.8094 5.57197 18.3259C5.57243 17.8711 5.57083 17.4163 5.56719 16.9614C5.56724 16.9521 5.56385 16.9432 5.55766 16.9362C5.55148 16.9293 5.54294 16.9249 5.53369 16.9238C3.63923 16.7251 2.15332 15.8645 1.07598 14.3419C1.04225 14.2941 1.02539 14.2993 1.02539 14.3576C1.02539 17.4744 1.02539 20.5854 1.02539 23.6907C1.02539 24.4372 1.03975 24.8923 1.06846 25.0559C1.17692 25.6734 1.47884 26.1824 1.97422 26.583C2.20983 26.7735 2.45957 26.9143 2.72344 27.0055C2.99961 27.1012 3.28809 27.1484 3.58887 27.147C6.00924 27.1361 8.42939 27.1397 10.8493 27.1579C11.0421 27.1598 11.1847 27.1914 11.2772 27.2529C11.4491 27.3669 11.5124 27.541 11.4673 27.7752C11.4354 27.9416 11.3465 28.0562 11.2007 28.1191C11.1241 28.1519 10.9917 28.1683 10.8035 28.1683C8.56361 28.1683 6.3237 28.1683 4.08379 28.1683C3.45124 28.1683 2.99824 28.1364 2.7248 28.0726C2.20892 27.9523 1.74635 27.7265 1.33711 27.3951C0.520443 26.7339 0.0747396 25.8566 0 24.7633V8.64758C0.0815755 7.54562 0.538672 6.66538 1.37129 6.00685C1.75547 5.70334 2.19206 5.4896 2.68105 5.36564C2.93444 5.30093 3.29219 5.26675 3.7543 5.2631C5.72988 5.24715 7.71937 5.24305 9.72275 5.2508C9.73188 5.25089 9.74093 5.24917 9.74939 5.24574C9.75784 5.24231 9.76553 5.23724 9.77202 5.23082C9.7785 5.2244 9.78365 5.21676 9.78716 5.20834C9.79067 5.19992 9.79248 5.19088 9.79248 5.18176C9.79248 4.75474 9.79248 4.32499 9.79248 3.8925C9.79248 3.35155 9.81823 2.96008 9.86973 2.71809C9.95586 2.31203 10.1081 1.94426 10.3264 1.61476C11.0359 0.544713 12.06 0.00740802 13.3984 0.00285072C15.1908 -0.00352948 16.983 0.000799979 18.7749 0.015839C19.2653 0.0203963 19.6428 0.0552597 19.9076 0.120429C20.897 0.365611 21.6426 0.954869 22.1443 1.8882C22.3622 2.2938 22.4889 2.74816 22.5244 3.25129C22.5417 3.49601 22.5488 4.14953 22.5456 5.21183C22.5456 5.22108 22.5491 5.22995 22.5554 5.23649C22.5617 5.24303 22.5702 5.2467 22.5791 5.2467C25.427 5.25445 27.1633 5.25581 27.7881 5.2508C28.1062 5.24807 28.4013 5.24989 28.6733 5.25627C29.0334 5.26493 29.3269 5.29501 29.5538 5.3465C30.2812 5.51193 30.8932 5.86877 31.3899 6.41701C32.0508 7.14663 32.3597 8.02824 32.3169 9.06184C32.3014 9.43052 32.3066 9.99448 32.3326 10.7537C32.3335 10.7757 32.3428 10.7965 32.3586 10.8118C34.0133 12.4279 34.8938 14.4037 35 16.7393ZM21.4956 5.20158C21.5152 4.76955 21.5225 4.34755 21.5175 3.93557C21.5102 3.37183 21.4621 2.95461 21.3732 2.68391C21.1992 2.15252 20.8637 1.72779 20.367 1.40969C20.1637 1.2798 19.9377 1.18205 19.6889 1.11643C19.5134 1.0704 19.271 1.04556 18.9615 1.04191C17.0994 1.02004 15.2371 1.02004 13.3745 1.04191C13.0478 1.04556 12.7928 1.07245 12.6096 1.12258C12.3475 1.19367 12.1105 1.30077 11.8986 1.44387C11.3914 1.78749 11.0605 2.24413 10.9061 2.81379C10.8486 3.0257 10.8201 3.36613 10.8206 3.83508C10.8211 4.28944 10.8158 4.74471 10.8049 5.2009C10.8047 5.20738 10.8058 5.21384 10.8082 5.21989C10.8106 5.22593 10.8142 5.23144 10.8188 5.2361C10.8234 5.24075 10.8289 5.24445 10.8349 5.24697C10.841 5.2495 10.8475 5.2508 10.8541 5.2508H11.8487C11.8654 5.2508 11.8814 5.24417 11.8932 5.23238C11.905 5.22059 11.9116 5.20459 11.9116 5.18791C11.9116 4.84019 11.9116 4.49338 11.9116 4.14748C11.9116 3.57417 11.9269 3.22919 11.9574 3.11252C12.0285 2.84318 12.1755 2.61896 12.3983 2.43986C12.5624 2.30816 12.7554 2.22088 12.9773 2.17805C13.1619 2.1425 13.3763 2.12427 13.6206 2.12336C15.3916 2.11561 17.1628 2.12017 18.9342 2.13703C19.2072 2.13976 19.42 2.17212 19.5727 2.2341C19.9126 2.37128 20.1546 2.60689 20.2986 2.94094C20.3697 3.10545 20.4087 3.34084 20.4155 3.64709C20.4274 4.15705 20.4278 4.67726 20.4169 5.20773C20.4168 5.21336 20.4178 5.21894 20.4199 5.22416C20.422 5.22938 20.4251 5.23414 20.4291 5.23815C20.433 5.24215 20.4377 5.24534 20.4429 5.24751C20.4481 5.24968 20.4537 5.2508 20.4593 5.2508H21.4443C21.4576 5.25081 21.4703 5.24569 21.4799 5.23652C21.4894 5.22734 21.4951 5.21482 21.4956 5.20158ZM19.2473 3.21301C19.1452 3.15832 19.0228 3.13417 18.8802 3.14055C18.753 3.14556 18.6872 3.14807 18.6826 3.14807C16.887 3.14032 15.0912 3.14579 13.2952 3.16447C13.1767 3.16584 13.0924 3.18908 13.0423 3.2342C12.9721 3.29709 12.937 3.38823 12.937 3.50764C12.937 4.04904 12.937 4.62235 12.937 5.22756C12.937 5.23061 12.9376 5.23363 12.9388 5.23645C12.9399 5.23927 12.9417 5.24183 12.9438 5.24399C12.946 5.24615 12.9485 5.24786 12.9514 5.24903C12.9542 5.2502 12.9572 5.2508 12.9603 5.2508H19.3416C19.3563 5.2508 19.3704 5.24497 19.3808 5.23458C19.3911 5.2242 19.397 5.21011 19.397 5.19543C19.397 4.60572 19.3974 4.04312 19.3983 3.50764C19.3983 3.36499 19.348 3.26678 19.2473 3.21301ZM3.23135 15.0392C3.89443 15.5022 4.6432 15.7845 5.47764 15.8862C5.49027 15.8877 5.50309 15.8864 5.51519 15.8824C5.52728 15.8784 5.53835 15.8717 5.54761 15.8629C5.55687 15.8541 5.5641 15.8434 5.56879 15.8314C5.57347 15.8195 5.57549 15.8067 5.57471 15.7939C5.53643 15.2055 5.67747 14.7065 5.99785 14.2968C6.17559 14.0698 6.39388 13.8903 6.65273 13.7581C6.92572 13.6182 7.20895 13.551 7.50244 13.5565C8.13135 13.5679 8.63151 13.8076 9.00293 14.2756C9.17611 14.4939 9.2971 14.7354 9.36592 15.0002C9.43428 15.2623 9.45592 15.538 9.43086 15.8274C9.42991 15.8385 9.43129 15.8497 9.43492 15.8603C9.43855 15.8709 9.44434 15.8806 9.45193 15.8889C9.45951 15.8971 9.46873 15.9037 9.47899 15.9081C9.48925 15.9126 9.50033 15.9149 9.51152 15.9149H18.0079C18.0255 15.9149 18.0426 15.9085 18.0559 15.897C18.0692 15.8854 18.0779 15.8694 18.0804 15.852C18.3442 13.9707 19.1349 12.3554 20.4524 11.006C21.5293 9.90266 22.8236 9.15116 24.3353 8.75148C24.7737 8.63573 25.2221 8.55711 25.6806 8.51564C27.6858 8.33472 29.5408 8.80093 31.2457 9.91428C31.2648 9.92704 31.2751 9.92225 31.2765 9.89992C31.2842 9.73814 31.2892 9.40751 31.2915 8.90803C31.2947 8.26909 31.1085 7.71424 30.733 7.24347C30.2859 6.68338 29.7028 6.36939 28.9837 6.30148C28.8046 6.28462 28.5314 6.27619 28.1641 6.27619C20.1432 6.27619 12.1224 6.27277 4.10156 6.26594C3.77207 6.26548 3.51003 6.2746 3.31543 6.29328C2.7877 6.34341 2.31351 6.54712 1.89287 6.90441C1.3068 7.40161 1.01605 8.06948 1.02061 8.90803C1.0238 9.52326 1.02493 10.1385 1.02402 10.7537C1.02174 12.5817 1.75752 14.0101 3.23135 15.0392ZM33.9705 16.9676C33.9705 14.9869 33.1837 13.0873 31.7831 11.6867C30.3825 10.2862 28.483 9.49934 26.5022 9.49934C24.5215 9.49934 22.622 10.2862 21.2214 11.6867C19.8208 13.0873 19.034 14.9869 19.034 16.9676C19.034 18.9483 19.8208 20.8479 21.2214 22.2485C22.622 23.649 24.5215 24.4359 26.5022 24.4359C28.483 24.4359 30.3825 23.649 31.7831 22.2485C33.1837 20.8479 33.9705 18.9483 33.9705 16.9676ZM8.03496 14.7671C7.87363 14.6495 7.7 14.5896 7.51406 14.5873C7.33678 14.585 7.16953 14.6354 7.0123 14.7384C6.83366 14.8555 6.71221 15.0159 6.64795 15.2196C6.61377 15.3281 6.59668 15.5197 6.59668 15.7945C6.59668 16.2598 6.59668 16.7197 6.59668 17.174C6.59668 17.1846 6.60086 17.1946 6.60829 17.2021C6.61573 17.2095 6.62581 17.2137 6.63633 17.2137H8.37471C8.37911 17.2137 8.38346 17.2128 8.38753 17.2111C8.39159 17.2095 8.39528 17.207 8.39839 17.2039C8.4015 17.2008 8.40397 17.1971 8.40565 17.193C8.40734 17.1889 8.4082 17.1846 8.4082 17.1802C8.4082 16.6155 8.4041 16.0457 8.3959 15.4705C8.3918 15.1738 8.27148 14.9394 8.03496 14.7671ZM6.98701 19.5229C7.16383 19.6477 7.35182 19.7052 7.55098 19.6951C7.73828 19.6856 7.91077 19.6188 8.06846 19.4948C8.32458 19.2943 8.44147 19.0065 8.41914 18.6315C8.41185 18.5121 8.4082 18.4011 8.4082 18.2986C8.4082 18.2828 8.40194 18.2677 8.39078 18.2565C8.37963 18.2453 8.3645 18.2391 8.34873 18.2391H6.6418C6.63043 18.2391 6.6195 18.2435 6.61133 18.2514C6.60317 18.2593 6.5984 18.2701 6.59805 18.2815C6.59075 18.5212 6.596 18.7463 6.61377 18.9569C6.632 19.1715 6.75641 19.3602 6.98701 19.5229ZM20.8474 23.3577C20.8531 23.3521 20.8562 23.3444 20.8562 23.3364C20.8562 23.3285 20.853 23.3208 20.8473 23.3152L20.1539 22.6242C20.1512 22.6214 20.1478 22.6192 20.1442 22.6177C20.1405 22.6162 20.1366 22.6154 20.1327 22.6154C20.1287 22.6154 20.1248 22.6162 20.1212 22.6177C20.1175 22.6193 20.1142 22.6215 20.1114 22.6243L19.2631 23.4755C19.2575 23.4812 19.2543 23.4888 19.2544 23.4968C19.2544 23.5048 19.2575 23.5124 19.2632 23.5181L19.9566 24.209C19.9594 24.2118 19.9627 24.214 19.9664 24.2155C19.97 24.2171 19.9739 24.2178 19.9779 24.2178C19.9818 24.2178 19.9857 24.217 19.9894 24.2155C19.993 24.214 19.9963 24.2118 19.9991 24.209L20.8474 23.3577ZM18.1829 23.902C18.1719 23.8909 18.1588 23.8822 18.1442 23.8764C18.1297 23.8705 18.1141 23.8677 18.0982 23.8679C18.0824 23.8682 18.0667 23.8716 18.052 23.8779C18.0374 23.8842 18.024 23.8933 18.0127 23.9047L17.5239 24.3928C17.5108 24.4061 17.5035 24.424 17.5035 24.4427C17.5035 24.4614 17.5108 24.4793 17.5239 24.4926L18.9991 25.9671C19.0025 25.9706 19.0065 25.9734 19.0109 25.9754C19.0153 25.9773 19.02 25.9784 19.0247 25.9785C19.0295 25.9786 19.0341 25.9778 19.0384 25.9761C19.0427 25.9744 19.0465 25.9718 19.0497 25.9685L19.5986 25.412C19.611 25.3994 19.6177 25.3823 19.6173 25.3644C19.6169 25.3464 19.6095 25.3292 19.5966 25.3163L18.1829 23.902ZM13.9788 29.705C14.3183 29.9511 14.6706 30.0003 15.0356 29.8527C15.1364 29.8121 15.2425 29.7456 15.3542 29.653C15.4517 29.5719 15.5454 29.4862 15.6352 29.396C16.5079 28.5206 17.3874 27.6396 18.2738 26.7532C18.2777 26.7495 18.2808 26.7451 18.2829 26.7401C18.285 26.7351 18.286 26.7298 18.286 26.7244C18.286 26.719 18.285 26.7136 18.2829 26.7086C18.2808 26.7036 18.2777 26.699 18.2738 26.6951L16.7993 25.2206C16.7926 25.2139 16.7846 25.2085 16.7758 25.2049C16.767 25.2012 16.7576 25.1994 16.748 25.1994C16.7385 25.1994 16.7291 25.2012 16.7203 25.2049C16.7115 25.2085 16.7035 25.2139 16.6968 25.2206C15.7539 26.1631 14.8183 27.093 13.8899 28.0104C13.6461 28.2515 13.5279 28.5376 13.5352 28.869C13.5429 29.2176 13.6908 29.4963 13.9788 29.705Z" fill="black"/>
</svg>
