<svg width="31" height="32" viewBox="0 0 31 32" fill="none" xmlns="http://www.w3.org/2000/svg">
<g clip-path="url(#clip0_1_311)">
<path d="M2.31955 0.957031H18.9548C19.3145 0.985286 19.6349 1.07227 19.9163 1.21799C20.5581 1.551 20.975 2.05374 21.1672 2.72621C21.2233 2.92117 21.253 3.18798 21.2562 3.52664C21.2695 4.8502 21.2733 6.17375 21.2677 7.4973C21.2677 7.52919 21.2693 7.64968 21.2725 7.85877C21.2754 8.04122 21.2673 8.1613 21.2483 8.21902C21.1381 8.55082 20.9333 8.70986 20.6338 8.69613C20.4683 8.68846 20.3294 8.63417 20.2172 8.53326C20.0897 8.41822 20.0259 8.26928 20.0259 8.08643C20.0259 6.55257 20.0259 5.01872 20.0259 3.48486C20.0259 2.99605 19.8412 2.63196 19.4719 2.3926C19.3488 2.31268 19.2176 2.2596 19.0783 2.23336C18.9536 2.20995 18.8103 2.19824 18.6484 2.19824C13.328 2.19824 8.00732 2.19824 2.68646 2.19824C2.38978 2.19824 2.16617 2.22609 2.01561 2.2818C1.67977 2.40652 1.44949 2.63701 1.32477 2.97324C1.26906 3.1234 1.24121 3.34682 1.24121 3.6435C1.24121 12.185 1.24121 20.7268 1.24121 29.2688C1.24121 29.567 1.26906 29.7913 1.32477 29.9414C1.44909 30.2773 1.67937 30.5075 2.01561 30.6323C2.16576 30.688 2.38999 30.7158 2.68828 30.7158C7.98694 30.7158 13.2856 30.7158 18.5843 30.7158C18.8757 30.7158 19.0965 30.6882 19.2466 30.6329C19.5845 30.5081 19.8146 30.2801 19.9369 29.9487C19.9962 29.7884 20.0259 29.5293 20.0259 29.1713C20.0255 27.6172 20.0228 26.0634 20.018 24.5098C20.0168 24.2405 20.1215 24.045 20.3322 23.9231C20.4844 23.8355 20.6406 23.8135 20.8009 23.8571C20.9405 23.895 21.0523 23.9707 21.1363 24.0841C21.2215 24.1992 21.2643 24.336 21.2647 24.4946C21.2663 26.1496 21.2653 27.8045 21.2616 29.4595C21.2596 30.2393 20.9777 30.8738 20.4158 31.3631C20.0057 31.7199 19.5112 31.9179 18.9324 31.957H2.32742C1.91934 31.9264 1.56352 31.8242 1.25998 31.6507C0.499915 31.2159 0.0799219 30.5449 0 29.6375V3.26932C0.0609505 2.5363 0.35985 1.94839 0.896699 1.50559C1.28985 1.18186 1.76413 0.99901 2.31955 0.957031Z" fill="black"/>
<path d="M31.0004 16.3242V16.6118C30.9455 16.7502 30.8938 16.8437 30.8454 16.8921C29.1751 18.562 27.505 20.2321 25.8351 21.9024C25.6527 22.0848 25.5502 22.1837 25.5276 22.1991C25.4432 22.2568 25.3489 22.2931 25.2448 22.308C25.1463 22.3218 25.0492 22.3121 24.9536 22.279C24.7546 22.2096 24.6258 22.0701 24.5673 21.8606C24.5039 21.6346 24.5596 21.4331 24.7344 21.2563C26.1084 19.865 27.484 18.4887 28.8613 17.1276C28.8952 17.0941 28.8883 17.0774 28.8407 17.0774C22.3488 17.0774 15.8637 17.0774 9.38515 17.0774C9.23782 17.0774 9.10885 17.0362 8.99825 16.9539C8.8921 16.8748 8.81682 16.7706 8.77241 16.6415C8.71469 16.4731 8.73346 16.3068 8.82872 16.1426C8.94376 15.9448 9.12924 15.8457 9.38515 15.8453C15.8588 15.8392 22.3525 15.8362 28.8661 15.8362C28.8964 15.8362 28.9008 15.8255 28.8794 15.8041C27.6225 14.556 26.3679 13.3041 25.1158 12.0484C24.9867 11.9188 24.8791 11.8074 24.7931 11.7142C24.6615 11.5729 24.5836 11.4429 24.5594 11.3242C24.5291 11.1773 24.5521 11.0395 24.6284 10.9107C24.6962 10.7973 24.7945 10.7103 24.9233 10.6497C25.1723 10.5323 25.4057 10.5821 25.6232 10.7993C27.3084 12.4845 28.9937 14.1697 30.6789 15.855C30.848 16.0245 30.9552 16.1809 31.0004 16.3242Z" fill="black"/>
</g>
<defs>
<clipPath id="clip0_1_311">
<rect width="31" height="31" fill="white" transform="translate(0 0.957031)"/>
</clipPath>
</defs>
</svg>
