<svg xmlns="http://www.w3.org/2000/svg" width="30" height="30" viewBox="0 0 30 30" fill="none">
<path d="M6.5748 6.54701C6.56621 6.6181 6.58848 6.67572 6.6416 6.71986C6.6552 6.73122 6.6739 6.73745 6.69434 6.73744L8.5002 6.73392C8.5027 6.73389 8.50806 6.73618 8.51551 6.74048C8.52296 6.74478 8.53215 6.75089 8.5418 6.75795C8.55156 6.76498 8.56562 6.76146 8.58398 6.7474C8.59336 6.74037 8.59824 6.74271 8.59863 6.75443C8.60098 6.8224 8.60664 6.81967 8.61563 6.74623C8.61797 6.72709 8.62051 6.72728 8.62324 6.74681L8.64609 6.92494C8.65078 6.95931 8.65352 6.95892 8.6543 6.92377L8.68418 5.62416L8.68652 4.47631C8.68652 4.44545 8.67559 4.44095 8.65371 4.46283L6.5748 6.54701Z" fill="black"/>
<path d="M15.0334 4.99609H26.2166C26.235 4.99609 26.25 5.01105 26.25 5.02949V7.46816C26.25 7.48661 26.235 7.50156 26.2166 7.50156H15.0334C15.015 7.50156 15 7.48661 15 7.46816V5.02949C15 5.01105 15.015 4.99609 15.0334 4.99609Z" fill="black"/>
<path d="M8.68408 5.625L8.6542 6.92461C8.65342 6.95977 8.65068 6.96016 8.646 6.92578L8.62315 6.74766C8.62041 6.72813 8.61787 6.72793 8.61553 6.74707C8.60654 6.82051 8.60088 6.82324 8.59854 6.75527C8.59815 6.74355 8.59326 6.74121 8.58389 6.74824C8.56553 6.7623 8.55147 6.76582 8.5417 6.75879C8.53205 6.75173 8.52286 6.74563 8.51541 6.74132C8.50796 6.73702 8.50261 6.73473 8.5001 6.73477L6.69424 6.73828C6.67381 6.73829 6.6551 6.73206 6.6415 6.7207C6.58838 6.67656 6.56611 6.61895 6.57471 6.54785L5.52178 7.60371C5.34131 7.8416 5.13994 8.06055 4.91768 8.26055C4.91471 8.26323 4.91228 8.26645 4.91052 8.27003C4.90877 8.2736 4.90772 8.27746 4.90745 8.28138C4.90718 8.28529 4.90768 8.2892 4.90894 8.29286C4.91019 8.29653 4.91216 8.29988 4.91475 8.30273C5.02432 8.42812 5.12744 8.37891 5.26514 8.37891C6.33818 8.38281 7.43467 8.38281 8.55459 8.37891C8.56506 8.37875 8.57517 8.38272 8.58273 8.38995C8.5903 8.39719 8.59471 8.40711 8.59502 8.41758C8.60967 8.85117 8.62314 8.17324 8.62197 8.15859C8.62002 8.1293 8.62451 8.12129 8.63545 8.13457C8.64 8.14025 8.64249 8.14835 8.64248 8.15742C8.6417 8.28828 8.64561 8.32168 8.6542 8.25762C8.69522 7.94707 8.65596 7.59023 8.68408 7.26563V5.625Z" fill="black"/>
<path d="M8.68408 7.26562C8.65596 7.59023 8.69522 7.94707 8.6542 8.25762C8.64561 8.32168 8.6417 8.28828 8.64248 8.15742C8.64249 8.14835 8.64 8.14025 8.63545 8.13457C8.62451 8.12129 8.62002 8.1293 8.62197 8.15859C8.62314 8.17324 8.60967 8.85117 8.59502 8.41758C8.59471 8.40711 8.5903 8.39719 8.58273 8.38995C8.57517 8.38272 8.56506 8.37875 8.55459 8.37891C7.43467 8.38281 6.33818 8.38281 5.26514 8.37891C5.12744 8.37891 5.02432 8.42812 4.91475 8.30273C4.91216 8.29988 4.91019 8.29653 4.90894 8.29286C4.90768 8.2892 4.90718 8.28529 4.90745 8.28138C4.90772 8.27746 4.90877 8.2736 4.91052 8.27003C4.91228 8.26645 4.91471 8.26323 4.91768 8.26055C5.13994 8.06055 5.34131 7.8416 5.52178 7.60371L2.52354 10.5943C2.5201 10.5977 2.51735 10.6017 2.51546 10.6061C2.51356 10.6105 2.51256 10.6152 2.51251 10.62C2.51245 10.6248 2.51335 10.6295 2.51514 10.634C2.51693 10.6384 2.51959 10.6425 2.52295 10.6459L3.74756 11.8652C3.79404 11.7004 3.75146 11.6203 3.61982 11.625C3.61006 11.6253 3.60072 11.6235 3.59307 11.6197C3.58541 11.6159 3.57982 11.6104 3.57705 11.6039C3.57314 11.5949 3.57139 11.5854 3.57178 11.5752C3.57193 11.5675 3.57577 11.5602 3.58245 11.5548C3.58914 11.5495 3.59814 11.5465 3.60752 11.5465C5.21729 11.5422 6.82725 11.541 8.4374 11.543C8.49209 11.543 8.53135 11.5537 8.55518 11.5752C8.55799 11.5777 8.56123 11.5797 8.56467 11.581C8.5681 11.5824 8.57165 11.5831 8.57506 11.583C8.57847 11.583 8.58166 11.5822 8.5844 11.5807C8.58714 11.5793 8.58936 11.5772 8.59092 11.5746C8.59326 11.5711 8.67061 11.2729 8.63545 11.5758C8.63417 11.5872 8.6344 11.5979 8.63612 11.6073C8.63784 11.6167 8.64101 11.6246 8.64541 11.6303C8.66143 11.651 8.66865 11.6219 8.66709 11.543C8.65654 11.0543 8.66221 10.566 8.68408 10.0781V7.26562Z" fill="black"/>
<path d="M8.6841 10.0781C8.66222 10.566 8.65656 11.0543 8.66711 11.543C8.66867 11.6219 8.66144 11.651 8.64543 11.6303C8.64103 11.6246 8.63786 11.6167 8.63614 11.6073C8.63442 11.5979 8.63419 11.5872 8.63547 11.5758C8.67062 11.2729 8.59328 11.5711 8.59093 11.5746C8.58938 11.5772 8.58715 11.5793 8.58441 11.5807C8.58167 11.5822 8.57849 11.583 8.57508 11.583C8.57167 11.5831 8.56812 11.5824 8.56468 11.581C8.56125 11.5797 8.55801 11.5777 8.55519 11.5752C8.53136 11.5537 8.49211 11.543 8.43742 11.543C6.82726 11.541 5.2173 11.5422 3.60754 11.5465C3.59816 11.5465 3.58915 11.5495 3.58247 11.5548C3.57578 11.5602 3.57195 11.5675 3.57179 11.5752C3.5714 11.5854 3.57316 11.5949 3.57707 11.6039C3.57984 11.6104 3.58543 11.6159 3.59308 11.6197C3.60073 11.6235 3.61007 11.6253 3.61984 11.625C3.75148 11.6203 3.79406 11.7004 3.74757 11.8652L6.59172 14.71C6.48234 14.5213 6.3673 14.3734 6.2466 14.2664C6.18136 14.2086 6.1923 14.1797 6.27941 14.1797C7.02941 14.1797 7.73898 14.1797 8.40812 14.1797C8.47453 14.1797 8.52472 14.1916 8.55871 14.2154C8.562 14.2177 8.56568 14.2194 8.56949 14.2203C8.5733 14.2213 8.57713 14.2215 8.58073 14.2209C8.58432 14.2203 8.58757 14.219 8.59025 14.2171C8.59293 14.2151 8.59496 14.2125 8.59621 14.2096L8.61847 14.1539C8.62316 14.143 8.6257 14.143 8.62609 14.1539C8.63019 14.2084 8.63488 14.8254 8.67062 14.5271C8.70988 14.2008 8.67004 13.8135 8.6841 13.4766V10.0781Z" fill="black"/>
<path d="M8.6841 13.4766C8.67004 13.8135 8.70988 14.2008 8.67062 14.5271C8.63488 14.8254 8.63019 14.2084 8.62609 14.1539C8.6257 14.143 8.62316 14.143 8.61847 14.1539L8.59621 14.2096C8.59496 14.2125 8.59293 14.2151 8.59025 14.2171C8.58757 14.219 8.58432 14.2203 8.58073 14.2209C8.57713 14.2215 8.5733 14.2213 8.56949 14.2203C8.56568 14.2194 8.562 14.2177 8.55871 14.2154C8.52472 14.1916 8.47453 14.1797 8.40812 14.1797C7.73898 14.1797 7.02941 14.1797 6.27941 14.1797C6.1923 14.1797 6.18136 14.2086 6.2466 14.2664C6.3673 14.3734 6.48234 14.5213 6.59172 14.71L8.6507 16.7736C8.67453 16.7975 8.68644 16.7926 8.68644 16.759L8.6841 13.4766Z" fill="black"/>
<path d="M15.0311 13.7539H26.2189C26.2361 13.7539 26.25 13.7678 26.25 13.785V16.2131C26.25 16.2302 26.2361 16.2441 26.2189 16.2441H15.0311C15.0139 16.2441 15 16.2302 15 16.2131V13.785C15 13.7678 15.0139 13.7539 15.0311 13.7539Z" fill="black"/>
<path d="M3.78691 22.5H26.2131C26.2335 22.5 26.25 22.5165 26.25 22.5369V24.9674C26.25 24.9878 26.2335 25.0043 26.2131 25.0043H3.78691C3.76653 25.0043 3.75 24.9878 3.75 24.9674V22.5369C3.75 22.5165 3.76653 22.5 3.78691 22.5Z" fill="black"/>
</svg>
