<svg xmlns="http://www.w3.org/2000/svg" width="31" height="30" viewBox="0 0 31 30" fill="none">
  <path d="M23.9252 6.54701C23.9338 6.6181 23.9115 6.67572 23.8584 6.71986C23.8448 6.73122 23.8261 6.73745 23.8057 6.73744L21.9998 6.73392C21.9973 6.73389 21.9919 6.73618 21.9845 6.74048C21.977 6.74478 21.9679 6.75089 21.9582 6.75795C21.9484 6.76498 21.9344 6.76146 21.916 6.7474C21.9066 6.74037 21.9018 6.74271 21.9014 6.75443C21.899 6.8224 21.8934 6.81967 21.8844 6.74623C21.882 6.72709 21.8795 6.72728 21.8768 6.74681L21.8539 6.92494C21.8492 6.95931 21.8465 6.95892 21.8457 6.92377L21.8158 5.62416L21.8135 4.47631C21.8135 4.44545 21.8244 4.44095 21.8463 4.46283L23.9252 6.54701Z" fill="black"/>
  <path d="M15.4666 4.99609H4.2834C4.26495 4.99609 4.25 5.01105 4.25 5.02949V7.46816C4.25 7.48661 4.26495 7.50156 4.2834 7.50156H15.4666C15.485 7.50156 15.5 7.48661 15.5 7.46816V5.02949C15.5 5.01105 15.485 4.99609 15.4666 4.99609Z" fill="black"/>
  <path d="M21.8159 5.625L21.8458 6.92461C21.8466 6.95977 21.8493 6.96016 21.854 6.92578L21.8769 6.74766C21.8796 6.72813 21.8821 6.72793 21.8845 6.74707C21.8935 6.82051 21.8991 6.82324 21.9015 6.75527C21.9019 6.74355 21.9067 6.74121 21.9161 6.74824C21.9345 6.7623 21.9485 6.76582 21.9583 6.75879C21.968 6.75173 21.9771 6.74563 21.9846 6.74132C21.992 6.73702 21.9974 6.73473 21.9999 6.73477L23.8058 6.73828C23.8262 6.73829 23.8449 6.73206 23.8585 6.7207C23.9116 6.67656 23.9339 6.61895 23.9253 6.54785L24.9782 7.60371C25.1587 7.8416 25.3601 8.06055 25.5823 8.26055C25.5853 8.26323 25.5877 8.26645 25.5895 8.27003C25.5912 8.2736 25.5923 8.27746 25.5925 8.28138C25.5928 8.28529 25.5923 8.2892 25.5911 8.29286C25.5898 8.29653 25.5878 8.29988 25.5853 8.30273C25.4757 8.42812 25.3726 8.37891 25.2349 8.37891C24.1618 8.38281 23.0653 8.38281 21.9454 8.37891C21.9349 8.37875 21.9248 8.38272 21.9173 8.38995C21.9097 8.39719 21.9053 8.40711 21.905 8.41758C21.8903 8.85117 21.8769 8.17324 21.878 8.15859C21.88 8.1293 21.8755 8.12129 21.8645 8.13457C21.86 8.14025 21.8575 8.14835 21.8575 8.15742C21.8583 8.28828 21.8544 8.32168 21.8458 8.25762C21.8048 7.94707 21.844 7.59023 21.8159 7.26563V5.625Z" fill="black"/>
  <path d="M21.8159 7.26562C21.844 7.59023 21.8048 7.94707 21.8458 8.25762C21.8544 8.32168 21.8583 8.28828 21.8575 8.15742C21.8575 8.14835 21.86 8.14025 21.8645 8.13457C21.8755 8.12129 21.88 8.1293 21.878 8.15859C21.8769 8.17324 21.8903 8.85117 21.905 8.41758C21.9053 8.40711 21.9097 8.39719 21.9173 8.38995C21.9248 8.38272 21.9349 8.37875 21.9454 8.37891C23.0653 8.38281 24.1618 8.38281 25.2349 8.37891C25.3726 8.37891 25.4757 8.42812 25.5853 8.30273C25.5878 8.29988 25.5898 8.29653 25.5911 8.29286C25.5923 8.2892 25.5928 8.28529 25.5925 8.28138C25.5923 8.27746 25.5912 8.2736 25.5895 8.27003C25.5877 8.26645 25.5853 8.26323 25.5823 8.26055C25.3601 8.06055 25.1587 7.8416 24.9782 7.60371L27.9765 10.5943C27.9799 10.5977 27.9827 10.6017 27.9845 10.6061C27.9864 10.6105 27.9874 10.6152 27.9875 10.62C27.9875 10.6248 27.9867 10.6295 27.9849 10.634C27.9831 10.6384 27.9804 10.6425 27.9771 10.6459L26.7524 11.8652C26.706 11.7004 26.7485 11.6203 26.8802 11.625C26.8899 11.6253 26.8993 11.6235 26.9069 11.6197C26.9146 11.6159 26.9202 11.6104 26.9229 11.6039C26.9269 11.5949 26.9286 11.5854 26.9282 11.5752C26.9281 11.5675 26.9242 11.5602 26.9175 11.5548C26.9109 11.5495 26.9019 11.5465 26.8925 11.5465C25.2827 11.5422 23.6728 11.541 22.0626 11.543C22.0079 11.543 21.9687 11.5537 21.9448 11.5752C21.942 11.5777 21.9388 11.5797 21.9353 11.581C21.9319 11.5824 21.9283 11.5831 21.9249 11.583C21.9215 11.583 21.9183 11.5822 21.9156 11.5807C21.9129 11.5793 21.9106 11.5772 21.9091 11.5746C21.9067 11.5711 21.8294 11.2729 21.8645 11.5758C21.8658 11.5872 21.8656 11.5979 21.8639 11.6073C21.8622 11.6167 21.859 11.6246 21.8546 11.6303C21.8386 11.651 21.8313 11.6219 21.8329 11.543C21.8435 11.0543 21.8378 10.566 21.8159 10.0781V7.26562Z" fill="black"/>
  <path d="M21.8159 10.0781C21.8378 10.566 21.8434 11.0543 21.8329 11.543C21.8313 11.6219 21.8386 11.651 21.8546 11.6303C21.859 11.6246 21.8621 11.6167 21.8639 11.6073C21.8656 11.5979 21.8658 11.5872 21.8645 11.5758C21.8294 11.2729 21.9067 11.5711 21.9091 11.5746C21.9106 11.5772 21.9128 11.5793 21.9156 11.5807C21.9183 11.5822 21.9215 11.583 21.9249 11.583C21.9283 11.5831 21.9319 11.5824 21.9353 11.581C21.9388 11.5797 21.942 11.5777 21.9448 11.5752C21.9686 11.5537 22.0079 11.543 22.0626 11.543C23.6727 11.541 25.2827 11.5422 26.8925 11.5465C26.9018 11.5465 26.9108 11.5495 26.9175 11.5548C26.9242 11.5602 26.9281 11.5675 26.9282 11.5752C26.9286 11.5854 26.9268 11.5949 26.9229 11.6039C26.9202 11.6104 26.9146 11.6159 26.9069 11.6197C26.8993 11.6235 26.8899 11.6253 26.8802 11.625C26.7485 11.6203 26.7059 11.7004 26.7524 11.8652L23.9083 14.71C24.0177 14.5213 24.1327 14.3734 24.2534 14.2664C24.3186 14.2086 24.3077 14.1797 24.2206 14.1797C23.4706 14.1797 22.761 14.1797 22.0919 14.1797C22.0255 14.1797 21.9753 14.1916 21.9413 14.2154C21.938 14.2177 21.9343 14.2194 21.9305 14.2203C21.9267 14.2213 21.9229 14.2215 21.9193 14.2209C21.9157 14.2203 21.9124 14.219 21.9098 14.2171C21.9071 14.2151 21.905 14.2125 21.9038 14.2096L21.8815 14.1539C21.8768 14.143 21.8743 14.143 21.8739 14.1539C21.8698 14.2084 21.8651 14.8254 21.8294 14.5271C21.7901 14.2008 21.83 13.8135 21.8159 13.4766V10.0781Z" fill="black"/>
  <path d="M21.8159 13.4766C21.83 13.8135 21.7901 14.2008 21.8294 14.5271C21.8651 14.8254 21.8698 14.2084 21.8739 14.1539C21.8743 14.143 21.8768 14.143 21.8815 14.1539L21.9038 14.2096C21.905 14.2125 21.9071 14.2151 21.9098 14.2171C21.9124 14.219 21.9157 14.2203 21.9193 14.2209C21.9229 14.2215 21.9267 14.2213 21.9305 14.2203C21.9343 14.2194 21.938 14.2177 21.9413 14.2154C21.9753 14.1916 22.0255 14.1797 22.0919 14.1797C22.761 14.1797 23.4706 14.1797 24.2206 14.1797C24.3077 14.1797 24.3186 14.2086 24.2534 14.2664C24.1327 14.3734 24.0177 14.5213 23.9083 14.71L21.8493 16.7736C21.8255 16.7975 21.8136 16.7926 21.8136 16.759L21.8159 13.4766Z" fill="black"/>
  <path d="M15.4689 13.7539H4.28105C4.2639 13.7539 4.25 13.7678 4.25 13.785V16.2131C4.25 16.2302 4.2639 16.2441 4.28105 16.2441H15.4689C15.4861 16.2441 15.5 16.2302 15.5 16.2131V13.785C15.5 13.7678 15.4861 13.7539 15.4689 13.7539Z" fill="black"/>
  <path d="M26.7131 22.5H4.28691C4.26653 22.5 4.25 22.5165 4.25 22.5369V24.9674C4.25 24.9878 4.26653 25.0043 4.28691 25.0043H26.7131C26.7335 25.0043 26.75 24.9878 26.75 24.9674V22.5369C26.75 22.5165 26.7335 22.5 26.7131 22.5Z" fill="black"/>
</svg>