<svg width="35" height="35" viewBox="0 0 35 35" fill="none" xmlns="http://www.w3.org/2000/svg">
<path d="M25.0429 22.4361C25.037 22.4302 25.03 22.4255 25.0223 22.4223C25.0145 22.4191 25.0062 22.4175 24.9978 22.4175C24.9894 22.4176 24.9811 22.4193 24.9733 22.4226C24.9656 22.426 24.9585 22.4308 24.9526 22.4368C24.5156 22.8852 24.0599 23.001 23.5854 22.7841C23.4123 22.7052 23.1675 22.5074 22.8513 22.1907C22.4903 21.8289 22.1273 21.4691 21.7623 21.1113C21.7552 21.1044 21.7462 21.0998 21.7364 21.098C21.7265 21.0961 21.7163 21.0972 21.7069 21.1011C19.1881 22.1342 16.6923 22.1666 14.2195 21.1981C10.0681 19.5725 7.63789 15.2905 8.16904 10.9367C8.746 6.20761 12.8161 2.47177 17.6184 2.41571C24.7353 2.333 29.5566 9.36444 26.7867 16.0069C26.7805 16.0219 26.7788 16.0385 26.782 16.0544C26.7852 16.0703 26.793 16.085 26.8045 16.0965C27.2238 16.5157 27.6378 16.93 28.0466 17.3393C28.6536 17.9456 28.8054 18.541 28.1382 19.2451C28.1215 19.2627 28.1122 19.2859 28.1122 19.3098C28.1122 19.3337 28.1215 19.3563 28.1382 19.3729L28.789 20.0217C28.8168 20.049 28.8307 20.0431 28.8307 20.0039C28.8307 14.4034 28.8284 8.81757 28.8238 3.24628C28.8231 2.22226 28.0623 1.50175 27.0533 1.5038C20.3769 1.51474 13.7005 1.52021 7.02402 1.52021C6.25567 1.52021 5.61104 1.88935 5.3499 2.6037C5.28109 2.79146 5.24668 3.11025 5.24668 3.56005C5.24668 8.83284 5.24668 14.1059 5.24668 19.3791C5.24668 19.6279 5.27676 19.9519 5.15166 20.1365C5.0334 20.3101 4.8044 20.3737 4.60752 20.2958C4.27119 20.1632 4.30674 19.8891 4.30674 19.5268C4.30674 14.1113 4.30378 8.69589 4.29785 3.28046C4.29649 1.81689 5.37998 0.615812 6.87022 0.613078C13.5425 0.600773 20.2149 0.5969 26.8872 0.601457C27.3047 0.601457 27.6262 0.632446 27.8518 0.694426C29.0221 1.01435 29.7542 2.07118 29.7542 3.28046C29.7537 9.15937 29.7535 15.0515 29.7535 20.9568C29.7535 20.9687 29.7559 20.9805 29.7605 20.9914C29.7651 21.0023 29.7718 21.0122 29.7802 21.0204C30.7764 22.0171 31.7719 23.0126 32.7668 24.007C33.1738 24.414 33.4308 24.72 33.5379 24.9251C34.1046 26.0086 33.6691 27.3874 32.559 27.8939C31.563 28.3472 30.5615 28.0689 29.8547 27.2418C29.7872 27.1634 29.7535 27.1759 29.7535 27.2794C29.7535 28.8029 29.7521 30.3109 29.7494 31.8034C29.7467 33.2602 28.6037 34.3922 27.1572 34.4052C23.7598 34.4346 20.3589 34.4182 16.9553 34.4182C16.8696 34.4182 16.7839 34.4131 16.6982 34.4031C16.0618 34.3293 16.1056 33.483 16.8336 33.4823C20.165 33.4778 23.4961 33.4764 26.8271 33.4782C27.7068 33.4782 28.4287 33.2431 28.7261 32.3503C28.7926 32.1502 28.827 31.8469 28.8293 31.4404C28.8389 29.7105 28.8339 27.9803 28.8143 26.2499C28.8138 26.2276 28.805 26.2065 28.7896 26.1911L25.0429 22.4361ZM26.6432 12.148C26.6432 9.80981 25.7143 7.56735 24.0609 5.91397C22.4075 4.26059 20.1651 3.33173 17.8269 3.33173C15.4886 3.33173 13.2462 4.26059 11.5928 5.91397C9.93941 7.56735 9.01055 9.80981 9.01055 12.148C9.01055 14.4863 9.93941 16.7287 11.5928 18.3821C13.2462 20.0355 15.4886 20.9643 17.8269 20.9643C20.1651 20.9643 22.4075 20.0355 24.0609 18.3821C25.7143 16.7287 26.6432 14.4863 26.6432 12.148ZM26.2925 16.9728C25.399 18.5 24.2027 19.7141 22.6605 20.6055C22.6533 20.6097 22.6471 20.6155 22.6425 20.6225C22.6378 20.6295 22.6349 20.6375 22.6338 20.6458C22.6328 20.6542 22.6336 20.6626 22.6364 20.6706C22.6391 20.6785 22.6436 20.6857 22.6496 20.6916C23.0561 21.0981 23.4496 21.4903 23.8302 21.8681C23.9528 21.9897 24.0658 21.9989 24.1692 21.8954C25.2739 20.7912 26.3786 19.6867 27.4833 18.582C27.6467 18.418 27.6973 18.3059 27.5188 18.1274C27.1315 17.7401 26.7441 17.3525 26.3567 16.9646C26.3523 16.9602 26.3469 16.9569 26.341 16.9549C26.3351 16.9529 26.3288 16.9522 26.3226 16.953C26.3164 16.9538 26.3105 16.956 26.3052 16.9594C26.3 16.9629 26.2957 16.9675 26.2925 16.9728ZM31.1419 27.0873C32.2869 27.6055 33.3567 26.1809 32.6164 25.1835C32.5964 25.1557 32.4202 24.9761 32.088 24.6448C30.5381 23.0981 28.9947 21.5518 27.458 20.006C27.4525 20.0005 27.446 19.9962 27.4389 19.9933C27.4318 19.9903 27.4241 19.9888 27.4165 19.9888C27.4088 19.9888 27.4012 19.9903 27.3941 19.9933C27.3871 19.9962 27.3807 20.0005 27.3753 20.006L25.6984 21.6821C25.684 21.6969 25.6758 21.7167 25.6758 21.7373C25.6758 21.758 25.684 21.7777 25.6984 21.7922C27.2935 23.3954 28.8819 24.9793 30.4638 26.5438C30.7568 26.8341 30.9828 27.0153 31.1419 27.0873Z" fill="black"/>
<path d="M25.4515 12.1527C25.4515 13.1539 25.2543 14.1452 24.8712 15.0701C24.4881 15.995 23.9265 16.8354 23.2186 17.5433C22.5107 18.2512 21.6703 18.8128 20.7454 19.1959C19.8205 19.579 18.8292 19.7762 17.828 19.7762C15.8062 19.7762 13.8671 18.973 12.4374 17.5433C11.0078 16.1136 10.2046 14.1746 10.2046 12.1527C10.2046 10.1309 11.0078 8.19182 12.4374 6.76215C13.8671 5.33248 15.8062 4.5293 17.828 4.5293C19.8499 4.5293 21.7889 5.33248 23.2186 6.76215C24.6483 8.19182 25.4515 10.1309 25.4515 12.1527ZM22.4642 7.32246C20.0306 4.96064 16.2325 4.83897 13.6034 6.95195C12.9394 7.48607 12.4167 8.09788 12.0353 8.7874C10.8932 10.8537 10.826 12.9787 11.8336 15.1626C11.8459 15.1904 11.858 15.1902 11.8698 15.1619C12.5056 13.6464 13.8201 12.7851 15.4785 12.8397C15.5145 12.8407 15.5202 12.8281 15.4956 12.8021C15.2003 12.49 14.9674 12.1391 14.797 11.7494C13.9056 9.70752 15.3001 7.37305 17.4835 7.16523C20.5856 6.87061 22.296 10.5114 20.1618 12.7611C20.1108 12.8154 20.1224 12.8409 20.1967 12.8377C21.7587 12.7693 23.1676 13.6621 23.7541 15.112C23.7769 15.1676 23.801 15.1685 23.8266 15.1147C25.0892 12.4617 24.5922 9.38691 22.4642 7.32246ZM20.198 10.4451C20.198 10.1339 20.1367 9.82569 20.0176 9.53815C19.8985 9.25061 19.724 8.98934 19.5039 8.76926C19.2838 8.54918 19.0225 8.37461 18.735 8.25551C18.4474 8.1364 18.1393 8.0751 17.828 8.0751C17.1995 8.0751 16.5966 8.3248 16.1522 8.76926C15.7077 9.21373 15.458 9.81655 15.458 10.4451C15.458 11.0737 15.7077 11.6765 16.1522 12.121C16.5966 12.5654 17.1995 12.8151 17.828 12.8151C18.1393 12.8151 18.4474 12.7538 18.735 12.6347C19.0225 12.5156 19.2838 12.3411 19.5039 12.121C19.724 11.9009 19.8985 11.6396 20.0176 11.3521C20.1367 11.0645 20.198 10.7564 20.198 10.4451ZM17.8472 15.2576L18.9122 13.8255C18.9468 13.7795 18.9352 13.7564 18.8773 13.7564H16.7637C16.7104 13.7564 16.6994 13.7779 16.7309 13.8207L17.7918 15.2569C17.795 15.2613 17.7992 15.2648 17.8041 15.2673C17.8089 15.2698 17.8142 15.2711 17.8196 15.2712C17.825 15.2713 17.8303 15.2701 17.835 15.2677C17.8398 15.2653 17.844 15.2619 17.8472 15.2576ZM20.0723 13.8262L18.3264 16.188C18.3002 16.2235 18.286 16.2668 18.286 16.3117V18.7877C18.286 18.793 18.2871 18.7983 18.2892 18.8032C18.2914 18.8081 18.2945 18.8124 18.2984 18.816C18.3024 18.8197 18.307 18.8224 18.312 18.8241C18.3171 18.8258 18.3224 18.8265 18.3277 18.826C20.2532 18.6592 21.8257 17.8311 23.0452 16.3418C23.0593 16.3251 23.0663 16.3033 23.065 16.281C22.9741 14.723 21.7279 13.7674 20.2131 13.7558C20.1856 13.7556 20.1585 13.7618 20.134 13.7741C20.1095 13.7863 20.0883 13.8042 20.0723 13.8262ZM12.656 16.391C13.7805 17.8368 15.4922 18.6646 17.3263 18.8253C17.3304 18.8257 17.3347 18.8252 17.3386 18.8238C17.3426 18.8225 17.3462 18.8203 17.3493 18.8175C17.3524 18.8147 17.3549 18.8112 17.3566 18.8074C17.3582 18.8036 17.3591 18.7994 17.3591 18.7952L17.3632 16.3076C17.3632 16.2579 17.3466 16.2088 17.316 16.1675L15.5681 13.8057C15.5614 13.7968 15.553 13.7895 15.5435 13.7842C15.5339 13.7789 15.5234 13.7758 15.5127 13.7749C14.0573 13.6771 12.725 14.6848 12.5903 16.1668C12.5826 16.2502 12.6045 16.3249 12.656 16.391Z" fill="black"/>
<path d="M1.83955 29.415C1.47178 29.4765 1.21338 29.2687 1.21338 28.8948C1.21338 27.2843 1.21338 25.6735 1.21338 24.0625C1.21338 23.5648 1.47178 23.4985 1.91816 23.4985C2.94583 23.4985 3.99697 23.4985 5.07158 23.4985C5.08627 23.4985 5.10035 23.4927 5.11074 23.4823C5.12112 23.4719 5.12695 23.4578 5.12695 23.4431C5.12695 23.0476 5.12695 22.6684 5.12695 22.3056C5.12695 21.6091 5.37988 21.1955 6.15234 21.1914C7.74238 21.1832 9.33242 21.188 10.9225 21.2057C11.5315 21.2126 11.9 21.6043 11.8747 22.2346C11.8597 22.6201 11.8599 23.0287 11.8754 23.4602C11.8759 23.4706 11.8804 23.4803 11.8879 23.4874C11.8954 23.4946 11.9054 23.4985 11.9157 23.4985C12.9826 23.4985 14.031 23.4985 15.0609 23.4985C15.7343 23.4985 15.7739 23.6879 15.7739 24.286C15.7739 25.799 15.7739 27.3118 15.7739 28.8244C15.7739 29.2482 15.5894 29.456 15.1478 29.4089C15.1362 29.4076 15.1246 29.4088 15.1135 29.4124C15.1025 29.4159 15.0923 29.4217 15.0837 29.4295C15.075 29.4372 15.0681 29.4467 15.0634 29.4573C15.0586 29.4678 15.0562 29.4793 15.0562 29.4909C15.0562 30.9233 15.0562 32.3536 15.0562 33.7818C15.0562 34.2036 14.9283 34.4018 14.4922 34.4018C10.4932 34.4018 6.49414 34.4018 2.49512 34.4018C1.99746 34.4018 1.93115 34.1441 1.93115 33.6977C1.93115 32.2873 1.93115 30.8854 1.93115 29.4923C1.93111 29.4809 1.92859 29.4696 1.92377 29.4593C1.91894 29.449 1.91193 29.4398 1.90322 29.4325C1.8945 29.4251 1.8843 29.4197 1.8733 29.4167C1.86231 29.4137 1.85079 29.4131 1.83955 29.415ZM10.9375 22.1723C10.9375 22.1615 10.9332 22.151 10.9255 22.1433C10.9178 22.1356 10.9074 22.1313 10.8965 22.1313H6.09082C6.07994 22.1313 6.06951 22.1356 6.06182 22.1433C6.05413 22.151 6.0498 22.1615 6.0498 22.1723V23.4575C6.0498 23.4629 6.05087 23.4682 6.05293 23.4732C6.05499 23.4782 6.05801 23.4827 6.06182 23.4865C6.06563 23.4903 6.07015 23.4933 6.07512 23.4954C6.0801 23.4975 6.08543 23.4985 6.09082 23.4985H10.8965C10.9019 23.4985 10.9072 23.4975 10.9122 23.4954C10.9172 23.4933 10.9217 23.4903 10.9255 23.4865C10.9293 23.4827 10.9323 23.4782 10.9344 23.4732C10.9364 23.4682 10.9375 23.4629 10.9375 23.4575V22.1723ZM14.8511 24.4603C14.8511 24.45 14.847 24.4401 14.8397 24.4328C14.8324 24.4255 14.8224 24.4214 14.8121 24.4214H2.1752C2.16486 24.4214 2.15495 24.4255 2.14764 24.4328C2.14034 24.4401 2.13623 24.45 2.13623 24.4603V28.4498C2.13623 28.4601 2.14034 28.47 2.14764 28.4773C2.15495 28.4846 2.16486 28.4887 2.1752 28.4887H14.8121C14.8224 28.4887 14.8324 28.4846 14.8397 28.4773C14.847 28.47 14.8511 28.4601 14.8511 28.4498V24.4603ZM14.1025 29.4246L10.1821 29.4239C10.1728 29.4239 10.1637 29.4275 10.157 29.434C10.1502 29.4405 10.1463 29.4494 10.1459 29.4588C10.1249 30.1332 10.1211 30.5903 10.1343 30.8301C10.1719 31.5013 9.60654 31.4227 9.16016 31.4282C8.56042 31.4359 7.96068 31.4316 7.36094 31.4152C6.97334 31.4043 6.85303 31.1896 6.85303 30.815C6.85303 30.373 6.85303 29.9204 6.85303 29.4574C6.85303 29.4514 6.85184 29.4454 6.84954 29.4399C6.84724 29.4343 6.84387 29.4293 6.83961 29.425C6.83536 29.4208 6.83031 29.4174 6.82475 29.4151C6.8192 29.4128 6.81324 29.4116 6.80723 29.4116H2.91895C2.91042 29.4116 2.90197 29.4133 2.89409 29.4165C2.88621 29.4198 2.87906 29.4246 2.87302 29.4306C2.86699 29.4367 2.86221 29.4438 2.85895 29.4517C2.85568 29.4596 2.854 29.468 2.854 29.4765L2.85811 33.4311C2.85811 33.4438 2.86322 33.456 2.87232 33.465C2.88142 33.4739 2.89377 33.479 2.90664 33.479H14.0711C14.0793 33.479 14.0874 33.4774 14.0949 33.4742C14.1024 33.4711 14.1093 33.4665 14.1151 33.4608C14.1209 33.455 14.1254 33.4481 14.1286 33.4406C14.1317 33.433 14.1333 33.4249 14.1333 33.4168V29.4554C14.1333 29.4472 14.1301 29.4394 14.1243 29.4336C14.1185 29.4278 14.1107 29.4246 14.1025 29.4246ZM9.19689 29.4575C9.19688 29.4514 9.19567 29.4454 9.19333 29.4397C9.19098 29.4341 9.18755 29.429 9.18322 29.4247C9.1789 29.4204 9.17377 29.417 9.16812 29.4146C9.16248 29.4123 9.15643 29.4111 9.15033 29.4111L7.82143 29.4134C7.81532 29.4135 7.80928 29.4147 7.80364 29.417C7.79801 29.4194 7.79289 29.4228 7.78858 29.4271C7.78427 29.4314 7.78086 29.4366 7.77853 29.4422C7.77621 29.4479 7.77501 29.4539 7.77502 29.46L7.77674 30.443C7.77675 30.4491 7.77796 30.4552 7.78031 30.4608C7.78265 30.4664 7.78609 30.4716 7.79041 30.4759C7.79473 30.4802 7.79987 30.4836 7.80551 30.4859C7.81115 30.4882 7.8172 30.4894 7.82331 30.4894L9.15221 30.4871C9.15831 30.4871 9.16435 30.4859 9.16999 30.4835C9.17562 30.4812 9.18074 30.4777 9.18505 30.4734C9.18936 30.4691 9.19278 30.464 9.1951 30.4583C9.19743 30.4527 9.19862 30.4466 9.19861 30.4405L9.19689 29.4575Z" fill="black"/>
<path d="M20.6644 27.8571C20.6647 27.9878 20.613 28.1132 20.5207 28.2058C20.4284 28.2984 20.3032 28.3505 20.1724 28.3508L17.1947 28.356C17.064 28.3562 16.9385 28.3045 16.8459 28.2122C16.7534 28.12 16.7012 27.9947 16.701 27.864L16.6958 24.9013C16.6956 24.7706 16.7473 24.6451 16.8396 24.5525C16.9318 24.4599 17.0571 24.4078 17.1878 24.4075L20.1655 24.4023C20.2963 24.4021 20.4217 24.4538 20.5143 24.5461C20.6069 24.6384 20.659 24.7636 20.6593 24.8944L20.6644 27.8571ZM19.7226 25.3907C19.7226 25.3846 19.7214 25.3785 19.7191 25.3729C19.7167 25.3673 19.7133 25.3621 19.709 25.3578C19.7047 25.3535 19.6995 25.3501 19.6939 25.3477C19.6883 25.3454 19.6822 25.3442 19.6761 25.3442H17.6841C17.6718 25.3442 17.66 25.3491 17.6513 25.3578C17.6425 25.3665 17.6376 25.3784 17.6376 25.3907V27.3991C17.6376 27.4114 17.6425 27.4232 17.6513 27.432C17.66 27.4407 17.6718 27.4456 17.6841 27.4456H19.6761C19.6822 27.4456 19.6883 27.4444 19.6939 27.442C19.6995 27.4397 19.7047 27.4363 19.709 27.432C19.7133 27.4276 19.7167 27.4225 19.7191 27.4169C19.7214 27.4112 19.7226 27.4052 19.7226 27.3991V25.3907Z" fill="black"/>
<path d="M25.945 24.8828H22.0622C21.8089 24.8828 21.6035 25.0882 21.6035 25.3415V25.362C21.6035 25.6153 21.8089 25.8207 22.0622 25.8207H25.945C26.1983 25.8207 26.4037 25.6153 26.4037 25.362V25.3415C26.4037 25.0882 26.1983 24.8828 25.945 24.8828Z" fill="black"/>
<path d="M25.9528 26.9668H22.0522C21.8031 26.9668 21.6011 27.1688 21.6011 27.418V27.4385C21.6011 27.6877 21.8031 27.8896 22.0522 27.8896H25.9528C26.202 27.8896 26.404 27.6877 26.404 27.4385V27.418C26.404 27.1688 26.202 26.9668 25.9528 26.9668Z" fill="black"/>
<path d="M25.9383 29.0352H17.1773C16.9214 29.0352 16.7139 29.2427 16.7139 29.4986V29.5109C16.7139 29.7669 16.9214 29.9744 17.1773 29.9744H25.9383C26.1943 29.9744 26.4018 29.7669 26.4018 29.5109V29.4986C26.4018 29.2427 26.1943 29.0352 25.9383 29.0352Z" fill="black"/>
<path d="M25.9374 31.1035H17.1778C16.9219 31.1035 16.7144 31.311 16.7144 31.567V31.5793C16.7144 31.8353 16.9219 32.0428 17.1778 32.0428H25.9374C26.1934 32.0428 26.4009 31.8353 26.4009 31.5793V31.567C26.4009 31.311 26.1934 31.1035 25.9374 31.1035Z" fill="black"/>
</svg>
