<svg width="35" height="36" viewBox="0 0 35 36" fill="none" xmlns="http://www.w3.org/2000/svg">
<g clip-path="url(#clip0_1_307)">
<path d="M15.7268 0.957031H19.2814C20.1833 1.07871 20.7977 1.51872 21.1244 2.27705C21.2133 2.48304 21.2846 2.79521 21.3384 3.21357C21.4405 4.00426 21.5453 4.7945 21.6528 5.58428C21.6541 5.59449 21.6583 5.60415 21.6649 5.61214C21.6716 5.62014 21.6804 5.62612 21.6904 5.62939C22.3426 5.84723 22.9788 6.11315 23.599 6.42715C23.6146 6.43494 23.6321 6.43818 23.6495 6.43649C23.6669 6.43479 23.6835 6.42824 23.6975 6.41758C24.4066 5.86341 25.1228 5.31061 25.846 4.75918C26.3851 4.34902 26.9903 4.21527 27.6616 4.35791C28.0627 4.44359 28.4076 4.63066 28.6966 4.91914C29.4467 5.66699 30.1962 6.41576 30.9449 7.16543C31.6522 7.87318 31.8413 8.66523 31.5123 9.5416C31.4357 9.74622 31.2938 9.98639 31.0864 10.2621C30.5824 10.932 30.0752 11.5851 29.5647 12.2213C29.5471 12.2434 29.5361 12.2699 29.5328 12.2978C29.5295 12.3257 29.5342 12.3539 29.5463 12.3792C29.8535 13.0127 30.1121 13.6366 30.3222 14.2509C30.3279 14.2671 30.338 14.2814 30.3514 14.2921C30.3648 14.3029 30.381 14.3096 30.398 14.3117C31.1336 14.4056 31.8541 14.4979 32.5596 14.5886C33.0873 14.6565 33.4646 14.7392 33.6916 14.8367C34.4545 15.1648 34.8906 15.7919 35 16.718V20.2556C34.8596 21.1657 34.4142 21.7766 33.6636 22.0883C33.4339 22.184 33.0073 22.2701 32.3839 22.3467C31.7336 22.4269 31.0675 22.5128 30.3857 22.6044C30.372 22.6063 30.359 22.6119 30.3484 22.6208C30.3378 22.6296 30.3298 22.6412 30.3256 22.6543C30.1073 23.2978 29.8423 23.9328 29.5306 24.5595C29.524 24.5728 29.5213 24.5877 29.5227 24.6026C29.5242 24.6174 29.5297 24.6316 29.5388 24.6436C30.0875 25.354 30.6368 26.0663 31.1869 26.7805C31.4531 27.1255 31.6076 27.4898 31.6504 27.8735C31.7064 28.3767 31.6139 28.8283 31.3729 29.2284C31.2785 29.3847 30.9825 29.7119 30.4849 30.2101C29.8892 30.8057 29.2936 31.4011 28.6979 31.9963C28.3192 32.3755 27.866 32.5817 27.3383 32.6149C27.0644 32.6318 26.7978 32.6004 26.5385 32.5206C26.2714 32.4386 26.0285 32.3123 25.8098 32.1419C24.7853 31.3425 24.075 30.7925 23.679 30.4917C23.671 30.4855 23.6613 30.4817 23.651 30.4808C23.6408 30.4798 23.6303 30.4817 23.6209 30.4862C23.0029 30.7893 22.3604 31.0534 21.6932 31.2785C21.6811 31.2824 21.6704 31.2896 21.6621 31.2994C21.6539 31.3092 21.6486 31.3211 21.6467 31.3339C21.5492 32.0799 21.4534 32.8291 21.3596 33.5815C21.3003 34.0564 21.2251 34.4023 21.134 34.6192C20.8104 35.3871 20.1902 35.8331 19.2732 35.957H15.7356C14.8278 35.8413 14.2076 35.402 13.8749 34.6391C13.7851 34.4344 13.7145 34.1323 13.663 33.7326C13.5618 32.9524 13.4595 32.1578 13.3561 31.3489C13.3541 31.332 13.3473 31.316 13.3365 31.3028C13.3257 31.2896 13.3114 31.2798 13.2952 31.2744C12.6485 31.0579 12.0148 30.7959 11.3941 30.4883C11.3796 30.4811 11.3634 30.4782 11.3473 30.4799C11.3312 30.4816 11.3159 30.4878 11.3032 30.4979C10.6989 30.9736 10.0996 31.4394 9.50537 31.8951C9.118 32.1918 8.81061 32.3843 8.5832 32.4728C7.96751 32.712 7.36937 32.6712 6.78877 32.3504C6.59098 32.241 6.34329 32.0375 6.0457 31.7399C5.51888 31.2131 4.99206 30.6863 4.46523 30.1595C4.0528 29.7475 3.82311 29.5103 3.77617 29.4479C3.56882 29.174 3.43392 28.8647 3.37148 28.5202C3.32546 28.2659 3.32477 28.0171 3.36943 27.7737C3.41501 27.524 3.50296 27.2866 3.6333 27.0614C3.70212 26.9425 3.85387 26.7303 4.08857 26.425C4.52425 25.8585 4.9777 25.2722 5.44893 24.6661C5.46202 24.6493 5.47012 24.6291 5.4723 24.608C5.47448 24.5868 5.47064 24.5655 5.46123 24.5465C5.15999 23.9458 4.90046 23.3174 4.68262 22.6611C4.67771 22.646 4.66862 22.6326 4.6564 22.6224C4.64418 22.6123 4.62933 22.6058 4.61357 22.6037C3.85159 22.5035 3.10739 22.408 2.38096 22.3173C1.89925 22.2571 1.54948 22.181 1.33164 22.089C0.566016 21.7663 0.122135 21.1467 0 20.2303V16.6756C0.113932 15.7947 0.541406 15.1851 1.28242 14.847C1.48021 14.7572 1.76117 14.6872 2.12529 14.6371C2.94743 14.5245 3.76774 14.4197 4.58623 14.3227C4.60667 14.3202 4.62599 14.3121 4.64196 14.2993C4.65792 14.2865 4.66988 14.2695 4.67647 14.2502C4.90205 13.6003 5.16113 12.9785 5.45371 12.3847C5.46618 12.3597 5.47126 12.3317 5.46836 12.304C5.46545 12.2763 5.45468 12.2499 5.4373 12.2281C4.95286 11.6161 4.47184 10.9967 3.99424 10.3701C3.73447 10.0288 3.56335 9.74919 3.48086 9.53135C3.24753 8.91839 3.28831 8.32344 3.60322 7.74648C3.70758 7.55553 3.8958 7.3238 4.16787 7.05127C4.79678 6.42282 5.42546 5.79414 6.05391 5.16523C6.19427 5.02533 6.31709 4.90843 6.42236 4.81455C6.55635 4.69606 6.69535 4.60081 6.83936 4.52881C7.4637 4.21618 8.11061 4.21185 8.78008 4.51582C8.93503 4.58646 9.14329 4.72546 9.40488 4.93281C10.0388 5.43594 10.6775 5.93245 11.321 6.42236C11.329 6.42853 11.3387 6.43231 11.349 6.43328C11.3592 6.43424 11.3697 6.43236 11.3791 6.42783C11.9984 6.1307 12.6394 5.86523 13.3021 5.63144C13.3177 5.62588 13.3314 5.6161 13.3418 5.60319C13.3522 5.59028 13.3588 5.57474 13.3608 5.5583C13.4433 4.90296 13.5258 4.24603 13.6083 3.5875C13.6899 2.93581 13.7815 2.49147 13.8831 2.25449C14.2003 1.51484 14.8148 1.08236 15.7268 0.957031ZM6.76895 30.4124C6.98451 30.6389 7.15495 30.8066 7.28027 30.9155C7.64577 31.2323 8.02174 31.2266 8.4082 30.8984C8.64746 30.6952 9.40739 30.1084 10.688 29.1382C10.8826 28.9905 11.0432 28.9087 11.1699 28.8928C11.3609 28.8695 11.5582 28.9158 11.7619 29.0315C12.3247 29.351 12.9942 29.6383 13.7703 29.8936C14.1486 30.018 14.3536 30.0897 14.3855 30.1089C14.5929 30.2338 14.7139 30.4343 14.7485 30.7104C14.8684 31.6606 14.9878 32.6111 15.1067 33.5617C15.1386 33.8165 15.1817 33.996 15.2359 34.1004C15.3348 34.2923 15.4854 34.4164 15.6878 34.4729C15.7621 34.4935 16.0141 34.5049 16.4438 34.5071C17.2924 34.5108 18.141 34.5058 18.9896 34.4921C19.2243 34.4884 19.3981 34.454 19.5111 34.3889C19.7094 34.2749 19.8238 34.0956 19.8543 33.8509C19.976 32.866 20.1029 31.8821 20.2351 30.8991C20.2355 30.8964 20.241 30.8358 20.2515 30.7173C20.2697 30.5172 20.3431 30.3538 20.4716 30.2271C20.5573 30.1424 20.7313 30.0583 20.9938 29.9749C21.8064 29.7165 22.5889 29.3854 23.3413 28.9816C23.6448 28.8189 23.9251 28.8369 24.1821 29.0356C25.002 29.6682 25.8193 30.3039 26.6342 30.9429C27.0329 31.2555 27.4132 31.2307 27.7751 30.8684C28.5043 30.1392 29.2334 29.41 29.9626 28.6809C30.1754 28.468 30.2502 28.2361 30.1868 27.985C30.1549 27.8605 30.0403 27.6714 29.843 27.4176C29.2751 26.6889 28.7084 25.9592 28.1429 25.2287C27.9588 24.9917 27.8913 24.7561 27.9405 24.5219C27.9474 24.4895 28.0428 24.2851 28.227 23.9087C28.4963 23.3582 28.7305 22.7931 28.9297 22.2134C29.0714 21.7996 29.1457 21.5872 29.1525 21.5763C29.2801 21.3648 29.4918 21.2422 29.7876 21.2085C30.2502 21.1561 31.2038 21.0335 32.6484 20.8407C32.9387 20.802 33.1404 20.7409 33.2534 20.6575C33.4494 20.5135 33.5474 20.2984 33.5474 20.0122C33.5474 19.0552 33.5519 18.0981 33.561 17.1411C33.5629 16.9374 33.5469 16.7722 33.5132 16.6455C33.4626 16.4546 33.3582 16.3108 33.2001 16.2142C33.1058 16.1567 32.9442 16.113 32.7154 16.0829C31.7839 15.9617 30.8524 15.8411 29.9209 15.7213C29.678 15.6898 29.5132 15.652 29.4267 15.6078C29.2594 15.5217 29.1462 15.3834 29.0869 15.1929C28.7962 14.2568 28.4487 13.4187 28.0444 12.6786C27.905 12.4234 27.8804 12.1832 27.9706 11.9581C27.9984 11.8893 28.1274 11.7072 28.3575 11.4119C28.898 10.7174 29.4369 10.0215 29.9742 9.32422C30.0763 9.19206 30.1408 9.08382 30.1677 8.99951C30.2096 8.86781 30.2144 8.73747 30.182 8.6085C30.1515 8.48591 30.0526 8.3387 29.8854 8.16689C29.1799 7.44046 28.4635 6.72451 27.7361 6.01904C27.6181 5.90465 27.5128 5.83105 27.4203 5.79824C27.2863 5.75039 27.1528 5.74264 27.0197 5.775C26.9108 5.80098 26.7538 5.89349 26.5487 6.05254C25.8752 6.57526 25.2007 7.0973 24.5253 7.61865C24.2414 7.83786 24.0673 7.96068 24.003 7.98711C23.7875 8.07506 23.5587 8.05365 23.3167 7.92285C22.6053 7.53776 21.8647 7.22126 21.095 6.97334C21.0914 6.97197 21.0178 6.9526 20.8742 6.91523C20.6714 6.86283 20.5144 6.75869 20.4032 6.60283C20.3226 6.48981 20.2647 6.29339 20.2296 6.01357C20.1243 5.17412 20.0177 4.33512 19.9097 3.49658C19.8677 3.16891 19.8429 2.99186 19.8352 2.96543C19.7782 2.77083 19.6631 2.6234 19.4899 2.52314C19.3806 2.45934 19.2206 2.42539 19.0101 2.42129C17.976 2.39987 16.9422 2.40033 15.9086 2.42266C15.7564 2.42585 15.637 2.44977 15.5504 2.49443C15.4324 2.55596 15.3378 2.64072 15.2667 2.74873C15.2029 2.84671 15.1553 3.0151 15.1238 3.25391C15.0017 4.18861 14.8818 5.12354 14.7643 6.05869C14.7342 6.30023 14.6882 6.46999 14.6262 6.56797C14.5255 6.72656 14.3744 6.83594 14.1729 6.89609C13.4123 7.12305 12.6777 7.41426 11.969 7.76973C11.9668 7.77064 11.8884 7.81667 11.7339 7.90781C11.5452 8.01855 11.3506 8.05592 11.1501 8.01992C11.0157 7.99577 10.8461 7.90439 10.6415 7.7458C9.86859 7.14652 9.09567 6.54701 8.32275 5.94727C8.10218 5.77591 7.87682 5.71986 7.64668 5.7791C7.52363 5.811 7.37939 5.90716 7.21396 6.06758C6.37861 6.87741 5.64443 7.61341 5.01143 8.27559C4.83187 8.4638 4.76283 8.66934 4.8043 8.89219C4.82754 9.01934 4.92393 9.19206 5.09346 9.41035C5.57562 10.032 6.05687 10.6545 6.53721 11.2779C6.82705 11.6544 6.98018 11.8597 6.99658 11.8938C7.12236 12.1559 7.1014 12.4334 6.93369 12.7265C6.86123 12.8532 6.82409 12.9181 6.82227 12.9213C6.45723 13.6286 6.16214 14.3648 5.93701 15.13C5.87594 15.3373 5.76338 15.4902 5.59932 15.5887C5.50453 15.6456 5.33203 15.6905 5.08184 15.7233C4.09017 15.8532 3.09827 15.9797 2.10615 16.1027C1.86143 16.1333 1.68141 16.2506 1.56611 16.4548C1.50231 16.5674 1.46859 16.7351 1.46494 16.9579C1.44899 17.9701 1.44443 18.9825 1.45127 19.9951C1.45309 20.2936 1.55472 20.516 1.75615 20.6623C1.86735 20.7434 2.0624 20.802 2.34131 20.838C3.271 20.9569 4.20046 21.0761 5.12969 21.1955C5.34616 21.2233 5.49883 21.262 5.5877 21.3117C5.74036 21.3979 5.8445 21.5273 5.9001 21.7C6.2027 22.6361 6.55111 23.4865 6.94531 24.2512C7.02279 24.402 7.06563 24.5248 7.07383 24.6196C7.08568 24.7614 7.06175 24.894 7.00205 25.0175C6.98519 25.0526 6.87376 25.2027 6.66777 25.468C6.13776 26.1516 5.60843 26.8356 5.07978 27.5201C4.92301 27.7229 4.83118 27.8827 4.8043 27.9993C4.75553 28.2085 4.80475 28.4015 4.95195 28.5783C5.14336 28.8089 5.58063 29.2505 6.26377 29.9031C6.41462 30.0471 6.58301 30.2169 6.76895 30.4124Z" fill="black"/>
<path d="M24.7844 18.4557C24.7844 20.388 24.0168 22.2411 22.6504 23.6075C21.2841 24.9738 19.4309 25.7414 17.4986 25.7414C15.5663 25.7414 13.7132 24.9738 12.3468 23.6075C10.9805 22.2411 10.2129 20.388 10.2129 18.4557C10.2129 16.5234 10.9805 14.6702 12.3468 13.3039C13.7132 11.9375 15.5663 11.1699 17.4986 11.1699C19.4309 11.1699 21.2841 11.9375 22.6504 13.3039C24.0168 14.6702 24.7844 16.5234 24.7844 18.4557ZM23.3276 18.4557C23.3276 16.9097 22.7135 15.4271 21.6204 14.3339C20.5272 13.2408 19.0446 12.6267 17.4986 12.6267C15.9527 12.6267 14.4701 13.2408 13.3769 14.3339C12.2838 15.4271 11.6696 16.9097 11.6696 18.4557C11.6696 20.0016 12.2838 21.4842 13.3769 22.5774C14.4701 23.6705 15.9527 24.2847 17.4986 24.2847C19.0446 24.2847 20.5272 23.6705 21.6204 22.5774C22.7135 21.4842 23.3276 20.0016 23.3276 18.4557Z" fill="black"/>
</g>
<defs>
<clipPath id="clip0_1_307">
<rect width="35" height="35" fill="white" transform="translate(0 0.957031)"/>
</clipPath>
</defs>
</svg>
