<svg width="20" height="20" viewBox="0 0 20 20" fill="none" xmlns="http://www.w3.org/2000/svg">
<path d="M20 14.9332V18.1754C19.9609 18.3319 19.8727 18.4149 19.7352 18.4246C19.6505 18.4303 19.5779 18.4093 19.5172 18.3617C19.4484 18.3075 19.4141 18.2316 19.4141 18.134C19.4141 17.0954 19.4109 16.057 19.4047 15.0187C19.4029 14.7088 19.2832 14.4577 19.0457 14.2652C18.8702 14.123 18.6772 14.0519 18.4668 14.0519C17.077 14.0519 15.6871 14.0519 14.2973 14.0519C14.0986 14.0519 13.9812 14.0541 13.9453 14.0586C13.8206 14.0734 13.7074 14.111 13.6059 14.1715C13.2629 14.3756 13.0979 14.6811 13.1109 15.0879C13.1141 15.1894 13.1156 15.2409 13.1156 15.2422C13.1198 16.1888 13.1168 17.1353 13.1066 18.0816C13.1056 18.184 13.0876 18.2603 13.0527 18.3105C12.9986 18.3884 12.9212 18.4272 12.8207 18.4269C12.7462 18.4269 12.6816 18.4056 12.627 18.3629C12.5618 18.3123 12.5293 18.2458 12.5293 18.1633C12.5306 16.6471 12.5296 15.131 12.5262 13.6148C12.5257 13.2687 12.4262 12.9758 12.2277 12.7359C12.1855 12.6846 11.9906 12.5126 11.643 12.2199C11.4388 12.0478 11.2309 11.8746 11.0191 11.7004C11.0149 11.6968 11.0099 11.6944 11.0044 11.6934C10.999 11.6923 10.9934 11.6927 10.9882 11.6944C10.9829 11.6961 10.9782 11.6991 10.9745 11.7032C10.9707 11.7073 10.9681 11.7122 10.9668 11.7176C10.9303 11.8626 10.9134 12.0097 10.916 12.159C10.9173 12.2327 10.918 12.2708 10.918 12.2734C10.918 14.1989 10.918 16.1246 10.918 18.0504C10.918 18.1496 10.9065 18.2229 10.8836 18.2703C10.8445 18.3508 10.7818 18.4005 10.6953 18.4195C10.6031 18.4401 10.5215 18.4238 10.4504 18.3707C10.3746 18.3139 10.3363 18.2285 10.3355 18.1144C10.3332 17.828 10.332 17.5256 10.332 17.2074C10.332 17.1994 10.3289 17.1918 10.3233 17.1861C10.3178 17.1805 10.3102 17.1773 10.3023 17.1773C9.8263 17.1737 9.36536 17.1764 8.91953 17.1855C8.89167 17.186 8.8569 17.1843 8.81523 17.1804C8.7806 17.1771 8.74583 17.1754 8.71094 17.1754C5.9401 17.1764 3.16914 17.1769 0.398047 17.1769C0.28138 17.1769 0.2 17.1653 0.153906 17.1422C0.0723958 17.1008 0.0210938 17.0269 0 16.9207V16.8523C0.0320312 16.6997 0.116667 16.6159 0.253906 16.6008C0.370313 16.588 0.484635 16.587 0.596875 16.5976C0.600456 16.598 0.604065 16.5975 0.607472 16.5964C0.610878 16.5953 0.614007 16.5935 0.616655 16.5911C0.619304 16.5887 0.621415 16.5858 0.622852 16.5825C0.624289 16.5793 0.625021 16.5758 0.625 16.5722C0.625 15.4293 0.625 14.2864 0.625 13.1437C0.625 12.4789 0.841536 11.8843 1.27461 11.3601C1.73112 10.8078 2.33724 10.4711 3.09297 10.35C3.10403 10.3482 3.1141 10.3427 3.1214 10.3343C3.12869 10.3259 3.13274 10.3153 3.13281 10.3043L3.13477 9.63708C3.13477 9.62255 3.13172 9.60814 3.1258 9.59476C3.11989 9.58138 3.11123 9.56932 3.10039 9.55935C2.71211 9.20414 2.44557 8.78135 2.30078 8.29099C2.29242 8.2621 2.27486 8.23673 2.25078 8.21872C1.65417 7.77002 1.32057 7.17536 1.25 6.43474C1.22083 6.12875 1.25195 5.78018 1.34336 5.38903C1.34467 5.38331 1.34442 5.37731 1.34264 5.37162C1.34086 5.36593 1.3376 5.36076 1.3332 5.35661C0.869141 4.91911 0.629818 4.38982 0.615234 3.76872C0.605599 3.36456 0.713802 2.97471 0.939844 2.59919C1.17656 2.20622 1.50781 1.92068 1.93359 1.74255C2.17057 1.64333 2.42357 1.58799 2.69258 1.57653C3.44753 1.5445 4.06732 1.84476 4.55195 2.47732C4.56315 2.49187 4.57777 2.50344 4.59453 2.511C4.61129 2.51856 4.62967 2.52189 4.64805 2.52068C5.78216 2.44437 6.70677 2.79086 7.42188 3.56013C7.59661 3.74789 7.74948 3.95791 7.88047 4.19021C8.23333 4.81573 8.40742 5.4988 8.40273 6.23943C8.39883 6.85844 8.19245 7.40062 7.78359 7.86599C7.76134 7.89131 7.74624 7.92205 7.73984 7.95505C7.56328 8.86755 7.06419 9.5458 6.24258 9.98981C6.23596 9.99335 6.23043 9.9986 6.22658 10.005C6.22273 10.0114 6.2207 10.0187 6.2207 10.0261V10.3211C6.22068 10.3309 6.22405 10.3404 6.23025 10.348C6.23644 10.3556 6.24507 10.3609 6.25469 10.3629C6.78437 10.4751 7.19193 10.7454 7.47734 11.1738C7.66927 11.4618 7.77174 11.7952 7.78477 12.1738C7.78507 12.1827 7.78888 12.1911 7.79538 12.1972C7.80188 12.2034 7.81055 12.2067 7.81953 12.2066C8.08672 12.2037 8.3457 12.2049 8.59649 12.2101C8.79154 12.214 8.9431 12.2364 9.05117 12.2773C9.32201 12.3799 9.50703 12.5695 9.60625 12.8461C9.64062 12.9422 9.65859 13.0715 9.66016 13.234C9.66927 14.1462 9.67214 15.0584 9.66875 15.9707C9.66797 16.1644 9.66719 16.2656 9.66641 16.2742C9.65833 16.3758 9.63594 16.4751 9.59922 16.5722C9.59814 16.5752 9.59781 16.5783 9.59824 16.5814C9.59867 16.5845 9.59987 16.5874 9.60171 16.5899C9.60356 16.5925 9.606 16.5945 9.60883 16.5959C9.61167 16.5973 9.6148 16.5981 9.61797 16.598L10.3102 16.5886C10.3154 16.5885 10.3203 16.5864 10.324 16.5828C10.3276 16.5791 10.3297 16.5742 10.3297 16.5691C10.3323 15.1832 10.3332 13.7971 10.3324 12.4109C10.3322 12.0333 10.3499 11.7746 10.3855 11.6347C10.4785 11.2717 10.6893 10.9747 11.018 10.7437C11.1013 10.6851 11.2384 10.6093 11.4293 10.5164C11.9892 10.2429 12.5564 9.96091 13.1309 9.67028C13.1379 9.66663 13.1438 9.66113 13.148 9.65438C13.1521 9.64763 13.1543 9.63989 13.1543 9.632V9.23161C13.1543 9.22093 13.1511 9.21051 13.1451 9.20172C13.1391 9.19293 13.1306 9.18619 13.1207 9.18239C12.6363 8.99593 12.2349 8.71403 11.9164 8.33669C11.6234 7.98929 11.4296 7.58825 11.3348 7.13357C11.298 6.95778 11.2777 6.69893 11.2738 6.357C11.2673 5.79294 11.266 5.22107 11.2699 4.64138C11.2699 4.63133 11.2671 4.6215 11.2618 4.61305C11.2564 4.60461 11.2488 4.5979 11.2398 4.59372C11.0182 4.48982 10.8572 4.34502 10.7566 4.15935C10.6686 3.99659 10.6354 3.79528 10.657 3.55544C10.6776 3.33096 10.7385 3.11885 10.8398 2.91911C11.1104 2.38604 11.5434 2.05075 12.1387 1.91325C12.2668 1.88357 12.4516 1.86963 12.693 1.87146C12.8888 1.87276 12.9882 1.87341 12.991 1.87341C13.5954 1.87054 14.2 1.8725 14.8047 1.87927C15.1482 1.88291 15.4068 1.90505 15.5805 1.94568C16.0427 2.05401 16.4424 2.28005 16.7797 2.6238C17.1211 2.97146 17.3406 3.38044 17.4383 3.85075C17.4729 4.01742 17.4902 4.2764 17.4902 4.62771C17.4902 5.21026 17.4902 5.79281 17.4902 6.37536C17.4902 6.62979 17.4724 6.82393 17.4367 6.95778C17.3167 7.40752 17.0385 7.7389 16.6023 7.95192C16.5875 7.95917 16.5749 7.97044 16.5662 7.98446C16.5574 7.99848 16.5527 8.01468 16.5527 8.03122C16.5527 8.45466 16.553 8.86651 16.5535 9.26677C16.5538 9.3501 16.5753 9.42315 16.618 9.48591C16.6484 9.53044 16.7059 9.57406 16.7902 9.61677C17.1793 9.8139 17.5686 10.0105 17.9582 10.2066C18.2431 10.3501 18.4401 10.4705 18.5492 10.5679C18.8857 10.869 19.0552 11.2686 19.0578 11.7668C19.0609 12.3527 19.0625 12.9437 19.0625 13.5398C19.0625 13.552 19.0658 13.5639 19.072 13.5743C19.0782 13.5847 19.087 13.5931 19.0977 13.5988C19.6443 13.8954 19.9451 14.3402 20 14.9332ZM3.9125 2.62614C3.59505 2.32588 3.23398 2.16898 2.8293 2.15544C2.64596 2.14945 2.46797 2.17497 2.29531 2.232C2.11797 2.2906 1.9569 2.37666 1.81211 2.49021C1.61185 2.6475 1.45534 2.85206 1.34258 3.10388C1.10482 3.63461 1.16875 4.17081 1.53437 4.71247C1.54844 4.73357 1.56081 4.73265 1.57148 4.70974C2.0543 3.68734 2.8319 3.00492 3.9043 2.66247C3.90785 2.66136 3.91105 2.65934 3.91357 2.6566C3.91609 2.65385 3.91785 2.65049 3.91867 2.64682C3.9195 2.64316 3.91937 2.63933 3.91829 2.63571C3.9172 2.63208 3.91521 2.62879 3.9125 2.62614ZM15.6746 7.71325C15.697 7.65023 15.7352 7.60075 15.7891 7.56482C15.8268 7.53955 15.8966 7.5225 15.9984 7.51364C16.2849 7.4889 16.5155 7.37015 16.6902 7.15739C16.7717 7.05817 16.8281 6.95206 16.8594 6.83903C16.8893 6.73122 16.9043 6.60948 16.9043 6.4738C16.9043 5.83969 16.9043 5.20557 16.9043 4.57146C16.9043 4.30062 16.8924 4.10479 16.8687 3.98396C16.8294 3.78239 16.7599 3.59672 16.6602 3.42693C16.3867 2.96156 15.9977 2.66273 15.493 2.53044C15.3404 2.4906 15.1206 2.46872 14.8336 2.46482C14.0865 2.45492 13.3395 2.45544 12.5926 2.46638C12.4053 2.46898 12.2546 2.48812 12.1402 2.5238C11.7118 2.65713 11.4299 2.9376 11.2945 3.36521C11.2372 3.54541 11.221 3.69255 11.2457 3.80661C11.2876 4.00114 11.4419 4.08838 11.7086 4.06833C11.9753 4.04828 12.2178 4.09476 12.4363 4.20778C12.6491 4.31768 12.8129 4.4712 12.9277 4.66833C13.041 4.86234 13.101 5.08903 13.1078 5.34841C13.1141 5.58278 13.1171 5.81729 13.1168 6.05193C13.1168 6.30245 13.1331 6.48422 13.1656 6.59724C13.2516 6.89568 13.4331 7.13435 13.7102 7.31325C13.8885 7.42862 14.0842 7.49216 14.2973 7.50388C14.3931 7.50909 14.4889 7.51351 14.5848 7.51716C14.5876 7.51716 14.6169 7.5169 14.6727 7.51638C14.7794 7.51508 14.862 7.55088 14.9203 7.6238C14.9724 7.6889 14.9914 7.76729 14.9773 7.85896C14.9589 7.97875 14.8915 8.05297 14.7754 8.08161C14.7353 8.09151 14.644 8.0988 14.5016 8.10349C14.0518 8.11833 13.6523 8.00075 13.3031 7.75075C12.9216 7.47732 12.6796 7.11469 12.577 6.66286C12.5465 6.52771 12.5312 6.31586 12.5312 6.02732C12.5312 5.81403 12.5289 5.60088 12.5242 5.38786C12.5208 5.23161 12.4997 5.11247 12.4609 5.03044C12.3617 4.82107 12.1779 4.69541 11.9094 4.65349C11.9028 4.65248 11.896 4.6529 11.8896 4.65473C11.8832 4.65656 11.8772 4.65975 11.8722 4.66409C11.8671 4.66843 11.863 4.67381 11.8602 4.67986C11.8574 4.68592 11.8559 4.69251 11.8559 4.69919C11.852 5.26586 11.8534 5.82432 11.8602 6.37458C11.8641 6.69151 11.8865 6.93148 11.9273 7.0945C12.0104 7.42653 12.1615 7.72172 12.3805 7.98005C12.6555 8.30505 13.0035 8.53448 13.4246 8.66833C13.5382 8.70453 13.6115 8.73812 13.6445 8.76911C13.7083 8.82875 13.7402 8.91 13.7402 9.01286C13.7402 9.2212 13.7402 9.44476 13.7402 9.68357C13.7402 9.68654 13.7408 9.68949 13.742 9.69224C13.7431 9.69498 13.7448 9.69748 13.7469 9.69959C13.749 9.70169 13.7515 9.70336 13.7542 9.7045C13.757 9.70564 13.7599 9.70622 13.7629 9.70622H16.0391C16.0417 9.70621 16.0442 9.70557 16.0465 9.70434C16.0488 9.70312 16.0508 9.70135 16.0523 9.6992C16.0537 9.69704 16.0546 9.69457 16.0549 9.69198C16.0552 9.68939 16.0549 9.68677 16.0539 9.68435C15.9956 9.53903 15.9665 9.38682 15.9668 9.22771C15.9668 8.86312 15.9668 8.49711 15.9668 8.12966C15.9668 8.12355 15.9647 8.11762 15.9609 8.11281C15.9571 8.108 15.9517 8.10458 15.9457 8.1031C15.8014 8.07107 15.7104 8.00023 15.6727 7.8906C15.6526 7.83226 15.6533 7.77315 15.6746 7.71325ZM6.78086 3.74528C6.41602 3.42653 5.99414 3.22354 5.51523 3.1363C4.95456 3.03422 4.39219 3.09203 3.82812 3.30974C3.26302 3.52771 2.7957 3.89359 2.42617 4.40739C2.05586 4.9225 1.85846 5.49086 1.83398 6.11247C1.82487 6.34502 1.84466 6.55153 1.89336 6.732C1.94831 6.93565 2.03581 7.12719 2.15586 7.30661C2.17487 7.335 2.18555 7.33213 2.18789 7.29802C2.22669 6.72302 2.40156 6.20088 2.7125 5.73161C2.78958 5.61521 2.91484 5.45778 3.08828 5.25935C3.22057 5.10752 3.35417 4.95674 3.48906 4.807C3.57188 4.71482 3.67448 4.68396 3.79688 4.71443C3.83646 4.72458 3.90951 4.76338 4.01602 4.83083C4.39362 5.07015 4.8237 5.25791 5.30625 5.39411C5.79245 5.53135 6.28594 5.6294 6.78672 5.68825C6.99089 5.71221 7.13737 5.74359 7.22617 5.78239C7.53763 5.91781 7.72526 6.17068 7.78906 6.54099C7.79141 6.55427 7.79531 6.55609 7.80078 6.54646C7.80208 6.54385 7.80286 6.54099 7.80312 6.53786C7.86094 5.83265 7.72878 5.16807 7.40664 4.54411C7.24857 4.23812 7.03997 3.97185 6.78086 3.74528ZM7.04102 6.34528C7.00065 6.31638 6.95573 6.29932 6.90625 6.29411C6.29505 6.23239 5.68307 6.11117 5.07031 5.93044C4.62578 5.79945 4.19987 5.61677 3.79258 5.38239C3.78761 5.37953 3.78181 5.37843 3.77614 5.37928C3.77046 5.38013 3.76524 5.38288 3.76133 5.38708C3.65742 5.50114 3.55768 5.61117 3.46211 5.71716C3.03919 6.18565 2.81146 6.73747 2.77891 7.37263C2.75208 7.89893 2.88698 8.36755 3.18359 8.77849C3.53672 9.26755 4.01901 9.56403 4.63047 9.66794C4.97188 9.72601 5.29609 9.7087 5.60313 9.61599C6.12448 9.45817 6.53789 9.14567 6.84336 8.67849C7.08529 8.30818 7.20156 7.88708 7.19219 7.41521C7.18906 7.26937 7.1875 7.19515 7.1875 7.19255C7.18776 7.00505 7.18893 6.81755 7.19102 6.63005C7.19206 6.51312 7.14206 6.4182 7.04102 6.34528ZM4.08125 11.0543C4.25286 11.1915 4.4401 11.2631 4.64297 11.2691C4.83359 11.2748 5.01628 11.2237 5.19102 11.1156C5.4918 10.9294 5.63971 10.6319 5.63477 10.223C5.63475 10.2217 5.63443 10.2204 5.63382 10.2192C5.63322 10.218 5.63234 10.2169 5.63125 10.2161C5.63017 10.2153 5.62891 10.2147 5.62755 10.2144C5.6262 10.2141 5.6248 10.2141 5.62344 10.2144C4.9849 10.3597 4.35924 10.2894 3.74648 10.0035C3.74376 10.0022 3.74074 10.0016 3.73772 10.0017C3.7347 10.0019 3.73176 10.0028 3.72919 10.0044C3.72662 10.006 3.72449 10.0082 3.72301 10.0109C3.72152 10.0135 3.72073 10.0165 3.7207 10.0195C3.7207 10.1526 3.72357 10.2694 3.7293 10.3699C3.74596 10.6519 3.86328 10.8801 4.08125 11.0543ZM12.7703 12.4863C13.026 12.8504 13.1378 13.2716 13.1055 13.75C13.1029 13.7885 13.1171 13.7962 13.148 13.773C13.4283 13.5631 13.7493 13.4591 14.1113 13.4609C15.5577 13.4679 17.0039 13.4673 18.45 13.459C18.4552 13.4589 18.4601 13.4567 18.4637 13.453C18.4673 13.4493 18.4694 13.4443 18.4695 13.439C18.481 12.8862 18.4815 12.3332 18.4711 11.7801C18.468 11.6118 18.4496 11.4815 18.416 11.389C18.3684 11.2586 18.2973 11.1446 18.2027 11.0472C18.1233 10.9652 17.9618 10.8636 17.7184 10.7425C17.4434 10.6058 17.1685 10.4686 16.8938 10.3308C16.8422 10.305 16.7875 10.2922 16.7297 10.2922C15.5609 10.2922 14.3971 10.2922 13.2383 10.2922C13.2167 10.2922 13.1964 10.2968 13.1773 10.3062L11.3996 11.1949C11.3946 11.1974 11.3903 11.2012 11.3871 11.2058C11.3839 11.2105 11.3819 11.2158 11.3813 11.2214C11.3807 11.227 11.3816 11.2327 11.3837 11.2379C11.3859 11.2431 11.3893 11.2476 11.3937 11.2511C11.6849 11.4892 11.9737 11.7298 12.2602 11.973C12.5068 12.1819 12.6768 12.353 12.7703 12.4863ZM2.24297 16.5941C2.24493 16.594 2.24686 16.5935 2.24861 16.5927C2.25035 16.5918 2.25186 16.5905 2.25303 16.589C2.2542 16.5875 2.25499 16.5858 2.25535 16.584C2.2557 16.5821 2.25561 16.5803 2.25508 16.5785C2.23945 16.5259 2.22565 16.4725 2.21367 16.4183C2.20273 16.3689 2.19674 16.3142 2.1957 16.2543C2.18581 15.748 2.18242 15.2418 2.18555 14.7355C2.18633 14.6332 2.2181 14.5517 2.28086 14.491C2.34049 14.434 2.4151 14.4069 2.50469 14.4097C2.60547 14.4131 2.68034 14.4578 2.7293 14.5437C2.75898 14.5955 2.77331 14.6739 2.77227 14.7789C2.76654 15.5448 2.77018 16.0349 2.7832 16.2492C2.79102 16.3789 2.84362 16.4737 2.94102 16.5336C3.00039 16.5703 3.09596 16.5886 3.22773 16.5886C5.03294 16.5912 6.83828 16.592 8.64375 16.591C8.75937 16.591 8.84609 16.5735 8.90391 16.5386C9.02083 16.4678 9.07943 16.3518 9.07969 16.1906C9.08125 15.2992 9.08203 14.4077 9.08203 13.516C9.08203 13.2574 9.07643 13.1074 9.06524 13.066C9.01523 12.8829 8.86784 12.7914 8.62305 12.7914C6.91732 12.7919 5.21159 12.7896 3.50586 12.7843C3.28086 12.7836 3.14089 12.7894 3.08594 12.8019C2.90391 12.8433 2.80299 12.9475 2.7832 13.1144C2.77956 13.1454 2.7763 13.2316 2.77344 13.373C2.77109 13.4863 2.75247 13.5687 2.71758 13.6203C2.6543 13.7143 2.55651 13.75 2.42422 13.7273C2.30964 13.7078 2.23398 13.6337 2.19727 13.5051C2.18529 13.4629 2.18255 13.363 2.18906 13.2054C2.19427 13.0872 2.20833 12.9888 2.23125 12.9101C2.32943 12.575 2.54427 12.3565 2.87578 12.2547C2.96068 12.2286 3.06992 12.2135 3.20352 12.2093C3.31393 12.2062 3.42448 12.2049 3.53516 12.2054C4.7388 12.2114 5.95 12.2125 7.16875 12.2086C7.17249 12.2086 7.1762 12.2078 7.17966 12.2064C7.18312 12.205 7.18627 12.2029 7.18891 12.2002C7.19156 12.1976 7.19366 12.1944 7.1951 12.191C7.19653 12.1875 7.19727 12.1838 7.19727 12.18C7.20013 11.948 7.13724 11.7298 7.00859 11.5254C6.81458 11.2176 6.52786 11.0221 6.14844 10.939C6.13365 10.9359 6.11823 10.9376 6.10449 10.9439C6.09076 10.9503 6.07945 10.9609 6.07227 10.9742C5.81003 11.4588 5.43255 11.7436 4.93984 11.8285C4.6737 11.8743 4.41745 11.8539 4.17109 11.7672C3.78229 11.6302 3.48112 11.3586 3.26758 10.9523C3.26414 10.9456 3.25875 10.9401 3.25212 10.9366C3.2455 10.933 3.23794 10.9316 3.23047 10.9324C2.9599 10.9592 2.70807 11.0272 2.475 11.1363C2.24609 11.2436 2.03789 11.3929 1.85039 11.5843C1.42409 12.019 1.21094 12.5681 1.21094 13.2316C1.21094 14.335 1.21094 15.4474 1.21094 16.5687C1.21094 16.5765 1.21411 16.5839 1.21975 16.5894C1.22539 16.5949 1.23304 16.598 1.24102 16.598L2.24297 16.5941Z" fill="#B9B9B9"/>
<path d="M4.37548 6.5856L4.33798 6.5854C4.18827 6.58462 4.06626 6.70536 4.06548 6.85507L4.0637 7.19413C4.06292 7.34385 4.18365 7.46586 4.33337 7.46664L4.37087 7.46684C4.52059 7.46762 4.6426 7.34689 4.64338 7.19717L4.64515 6.85811C4.64594 6.70839 4.5252 6.58638 4.37548 6.5856Z" fill="#B9B9B9"/>
<path d="M6.24687 6.58573L6.20859 6.586C6.05887 6.58704 5.93835 6.70926 5.93939 6.85898L5.94176 7.19803C5.9428 7.34775 6.06502 7.46827 6.21474 7.46723L6.25302 7.46696C6.40274 7.46591 6.52326 7.3437 6.52221 7.19398L6.51985 6.85493C6.5188 6.70521 6.39658 6.58469 6.24687 6.58573Z" fill="#B9B9B9"/>
<path d="M6.08679 8.19964C6.20398 8.28662 6.23888 8.3982 6.19148 8.5344C6.16674 8.60576 6.11362 8.65849 6.03211 8.69261C5.56283 8.8887 5.09447 8.90081 4.62703 8.72893C4.53822 8.69638 4.47638 8.65862 4.44148 8.61565C4.40711 8.57346 4.38627 8.52425 4.37898 8.468C4.37273 8.41747 4.38093 8.36708 4.40359 8.31682C4.44994 8.21422 4.52612 8.15784 4.63211 8.14768C4.67586 8.14378 4.76075 8.16135 4.88679 8.20042C5.19356 8.29625 5.5088 8.28141 5.8325 8.15589C5.91791 8.12281 6.00268 8.1374 6.08679 8.19964Z" fill="#B9B9B9"/>
<path d="M6.84551 14.6977C6.84551 14.818 6.8218 14.9372 6.77575 15.0483C6.7297 15.1595 6.66219 15.2606 6.5771 15.3457C6.492 15.4308 6.39098 15.4983 6.27979 15.5443C6.16861 15.5904 6.04945 15.6141 5.9291 15.6141C5.68606 15.6141 5.45296 15.5175 5.2811 15.3457C5.10925 15.1738 5.0127 14.9407 5.0127 14.6977C5.0127 14.4546 5.10925 14.2215 5.2811 14.0497C5.45296 13.8778 5.68606 13.7813 5.9291 13.7813C6.04945 13.7812 6.16861 13.805 6.27979 13.851C6.39098 13.8971 6.492 13.9646 6.5771 14.0497C6.66219 14.1348 6.7297 14.2358 6.77575 14.347C6.8218 14.4581 6.84551 14.5773 6.84551 14.6977ZM6.25996 14.6977C6.25996 14.61 6.22514 14.526 6.16317 14.464C6.10119 14.402 6.01714 14.3672 5.92949 14.3672C5.84185 14.3672 5.75779 14.402 5.69582 14.464C5.63384 14.526 5.59902 14.61 5.59902 14.6977C5.59902 14.7853 5.63384 14.8694 5.69582 14.9313C5.75779 14.9933 5.84185 15.0281 5.92949 15.0281C6.01714 15.0281 6.10119 14.9933 6.16317 14.9313C6.22514 14.8694 6.25996 14.7853 6.25996 14.6977Z" fill="#B9B9B9"/>
</svg>
