<svg width="20" height="20" viewBox="0 0 20 20" fill="none" xmlns="http://www.w3.org/2000/svg">
<path d="M3.8207 0H5.66641C5.84193 0.04375 5.92734 0.142318 5.92266 0.295703C5.92005 0.380078 5.89245 0.448047 5.83984 0.499609C5.78281 0.555599 5.70794 0.583724 5.61523 0.583984C5.05221 0.585286 4.48906 0.584635 3.92578 0.582031C3.70911 0.58099 3.52122 0.651563 3.36211 0.79375C3.24206 0.900781 3.16107 1.02669 3.11914 1.17148C3.09701 1.24805 3.08594 1.39258 3.08594 1.60508C3.08594 7.21654 3.08594 12.828 3.08594 18.4395C3.08594 18.6324 3.10378 18.7785 3.13945 18.8777C3.22487 19.1142 3.38581 19.275 3.62227 19.3602C3.72148 19.3961 3.86758 19.4141 4.06055 19.4141C8.01315 19.4141 11.9658 19.4141 15.9184 19.4141C16.1243 19.4141 16.2781 19.3958 16.3797 19.3594C16.6151 19.2747 16.7758 19.1137 16.8617 18.8762C16.8966 18.7796 16.9141 18.6411 16.9141 18.4609C16.9141 12.8273 16.9141 7.19388 16.9141 1.56055C16.9141 1.36784 16.8962 1.22187 16.8605 1.12266C16.7751 0.885938 16.6141 0.72487 16.3773 0.639453C16.2781 0.603776 16.1322 0.585938 15.9395 0.585938C12.9212 0.585938 9.903 0.585938 6.88477 0.585938C6.78112 0.585938 6.70508 0.573828 6.65664 0.549609C6.57409 0.508724 6.52461 0.442057 6.5082 0.349609C6.49362 0.266797 6.50781 0.193359 6.55078 0.129297C6.59661 0.0608073 6.66641 0.0177083 6.76016 0H16.1742C16.4794 0.0236979 16.7415 0.122135 16.9605 0.295312C17.3204 0.580729 17.5004 0.964063 17.5004 1.44531C17.5001 7.16484 17.4977 12.8842 17.493 18.6035C17.4927 18.8613 17.4357 19.0884 17.3219 19.2848C17.0693 19.7197 16.6819 19.9581 16.1598 20H3.83555C3.34049 19.9594 2.96445 19.7372 2.70742 19.3336C2.5707 19.1185 2.50221 18.8719 2.50195 18.5938C2.50065 12.8581 2.5 7.1224 2.5 1.38672C2.5 1.04375 2.61966 0.736979 2.85898 0.466406C3.1043 0.188542 3.42487 0.0330729 3.8207 0Z" fill="#B9B9B9"/>
<path d="M15.3051 3.17245C15.4678 3.34146 15.6233 3.51672 15.7715 3.69823C15.8376 3.77948 15.8737 3.84914 15.8797 3.90722C15.8862 3.96867 15.8733 4.02649 15.841 4.08065C15.8124 4.12909 15.7703 4.16633 15.7148 4.19237C15.5818 4.25513 15.4603 4.22544 15.3504 4.10331C15.1514 3.88195 14.9509 3.65044 14.7488 3.40878C14.7275 3.383 14.7168 3.38677 14.7168 3.42011C14.7168 3.59849 14.7151 3.76412 14.7117 3.91698C14.7091 4.03208 14.6685 4.11633 14.5898 4.16972C14.518 4.21841 14.4365 4.23143 14.3453 4.20878C14.2565 4.1869 14.1945 4.13339 14.1594 4.04823C14.1404 4.00214 14.1309 3.92636 14.1309 3.82089C14.1309 3.21854 14.1309 2.6162 14.1309 2.01386C14.1309 1.83313 14.1326 1.73495 14.1359 1.71932C14.1529 1.64172 14.1944 1.58 14.2605 1.53417C14.3066 1.50214 14.3738 1.48378 14.4621 1.47909C14.7587 1.46347 14.9706 1.46555 15.0977 1.48534C15.4029 1.533 15.6223 1.66998 15.7559 1.89628C15.8827 2.11086 15.9113 2.3382 15.8418 2.57831C15.7691 2.82961 15.5934 3.01307 15.3145 3.1287C15.3104 3.13043 15.3068 3.13312 15.3039 3.13653C15.3011 3.13994 15.2991 3.14397 15.2982 3.14827C15.2973 3.15258 15.2974 3.15703 15.2986 3.16124C15.2998 3.16545 15.302 3.1693 15.3051 3.17245ZM15.2824 2.39276C15.3079 2.30969 15.2931 2.23677 15.2379 2.17401C15.198 2.1287 15.1387 2.09654 15.0598 2.07753C14.9551 2.05253 14.8501 2.04901 14.7449 2.06698C14.737 2.06828 14.7299 2.07237 14.7247 2.07853C14.7196 2.08469 14.7168 2.0925 14.7168 2.10057V2.57714C14.7168 2.58049 14.7175 2.5838 14.7188 2.58689C14.7201 2.58997 14.722 2.59276 14.7244 2.5951C14.7268 2.59743 14.7296 2.59925 14.7328 2.60046C14.7359 2.60167 14.7392 2.60224 14.7426 2.60214C14.84 2.59849 14.929 2.59628 15.0098 2.5955C15.0783 2.59471 15.1368 2.57557 15.1855 2.53807C15.2314 2.50266 15.2637 2.45422 15.2824 2.39276Z" fill="#B9B9B9"/>
<path d="M12.4145 3.63086C12.6941 3.63503 12.8724 3.63568 12.9492 3.63281C13.094 3.6276 13.1936 3.67513 13.248 3.77539C13.2988 3.86888 13.3001 3.96315 13.252 4.0582C13.2004 4.15977 13.1027 4.21146 12.959 4.21328C12.6822 4.21693 12.4055 4.21771 12.1289 4.21562C12.0076 4.21484 11.918 4.17331 11.8602 4.09102C11.8245 4.04023 11.8066 3.95846 11.8066 3.8457C11.8066 3.18398 11.8066 2.52227 11.8066 1.86055C11.8066 1.74414 11.8243 1.6599 11.8598 1.60781C11.9155 1.52552 12.002 1.48438 12.1191 1.48438C12.3991 1.48438 12.679 1.48555 12.959 1.48789C13.1035 1.48893 13.2017 1.54206 13.2535 1.64727C13.2967 1.73529 13.2983 1.82227 13.2582 1.9082C13.2272 1.97435 13.1759 2.02083 13.1043 2.04766C13.0637 2.06276 12.9984 2.07031 12.9086 2.07031C12.7484 2.07031 12.5861 2.07031 12.4215 2.07031C12.4169 2.07031 12.4123 2.07128 12.408 2.07317C12.4038 2.07505 12.3999 2.07781 12.3966 2.0813C12.3934 2.08478 12.3908 2.08891 12.389 2.09346C12.3872 2.09801 12.3863 2.10289 12.3863 2.10781L12.3887 2.51797C12.3888 2.52877 12.3929 2.5391 12.4001 2.54671C12.4074 2.55432 12.4172 2.55859 12.4273 2.55859C12.5831 2.55859 12.7473 2.55937 12.9199 2.56094C13.0556 2.56198 13.1467 2.62474 13.1934 2.74922C13.2467 2.89219 13.2167 3.00365 13.1031 3.08359C13.0352 3.13125 12.9527 3.15339 12.8559 3.15C12.7741 3.14714 12.7319 3.1457 12.7293 3.1457C12.622 3.14727 12.5173 3.14466 12.4152 3.13789C12.412 3.13767 12.4087 3.13812 12.4057 3.13921C12.4026 3.14029 12.3998 3.14199 12.3975 3.1442C12.3951 3.1464 12.3933 3.14906 12.392 3.15201C12.3908 3.15496 12.3902 3.15813 12.3902 3.16133L12.3945 3.61133C12.3946 3.61648 12.3968 3.62139 12.4005 3.62503C12.4042 3.62867 12.4092 3.63076 12.4145 3.63086Z" fill="#B9B9B9"/>
<path d="M6.78535 2.8707C6.78535 3.23424 6.64094 3.58288 6.38388 3.83994C6.12683 4.09699 5.77818 4.24141 5.41465 4.24141C5.05112 4.24141 4.70247 4.09699 4.44542 3.83994C4.18836 3.58288 4.04395 3.23424 4.04395 2.8707C4.04395 2.50717 4.18836 2.15853 4.44542 1.90147C4.70247 1.64441 5.05112 1.5 5.41465 1.5C5.77818 1.5 6.12683 1.64441 6.38388 1.90147C6.64094 2.15853 6.78535 2.50717 6.78535 2.8707ZM6.2002 2.8707C6.2002 2.66236 6.11743 2.46256 5.97011 2.31524C5.8228 2.16792 5.62299 2.08516 5.41465 2.08516C5.20631 2.08516 5.0065 2.16792 4.85918 2.31524C4.71186 2.46256 4.6291 2.66236 4.6291 2.8707C4.6291 2.97386 4.64942 3.07601 4.6889 3.17132C4.72838 3.26663 4.78624 3.35322 4.85918 3.42617C5.0065 3.57349 5.20631 3.65625 5.41465 3.65625C5.62299 3.65625 5.8228 3.57349 5.97011 3.42617C6.11743 3.27885 6.2002 3.07904 6.2002 2.8707Z" fill="#B9B9B9"/>
<path d="M8.80313 2.62266C8.89401 2.69687 8.92552 2.79206 8.89766 2.9082C8.85911 3.06888 8.75456 3.14831 8.58398 3.14648C8.45065 3.14518 8.30456 3.14453 8.1457 3.14453C8.13762 3.14453 8.12987 3.14774 8.12416 3.15346C8.11844 3.15917 8.11523 3.16692 8.11523 3.175C8.11523 3.40312 8.11523 3.62266 8.11523 3.83359C8.11523 3.95443 8.10156 4.03932 8.07422 4.08828C8.04115 4.14792 7.99102 4.19036 7.92383 4.21562C7.86393 4.23828 7.80247 4.23945 7.73945 4.21914C7.59935 4.17409 7.5293 4.06328 7.5293 3.88672C7.5293 3.2487 7.5293 2.61068 7.5293 1.97266C7.5293 1.89896 7.5319 1.8362 7.53711 1.78438C7.54388 1.71328 7.56497 1.65599 7.60039 1.6125C7.65925 1.5401 7.73971 1.50391 7.8418 1.50391C8.11523 1.50391 8.38867 1.5043 8.66211 1.50508C8.77253 1.50534 8.85716 1.54154 8.91602 1.61367C8.96628 1.67539 8.98672 1.75039 8.97734 1.83867C8.96641 1.93945 8.91849 2.01029 8.83359 2.05117C8.78021 2.07695 8.67695 2.08984 8.52383 2.08984C8.39675 2.08984 8.26914 2.08984 8.14102 2.08984C8.13418 2.08984 8.12762 2.09256 8.12279 2.09739C8.11795 2.10223 8.11523 2.10879 8.11523 2.11563V2.53281C8.11523 2.53965 8.11795 2.54621 8.12279 2.55104C8.12762 2.55588 8.13418 2.55859 8.14102 2.55859C8.30612 2.55859 8.46354 2.55794 8.61328 2.55664C8.68516 2.55586 8.74844 2.57786 8.80313 2.62266Z" fill="#B9B9B9"/>
<path d="M10.3346 3.16641C10.3301 3.54661 10.3294 3.78021 10.3322 3.86719C10.338 4.03385 10.2814 4.14557 10.1627 4.20234C10.0786 4.24245 9.99616 4.24349 9.91543 4.20547C9.85475 4.17708 9.80931 4.1319 9.7791 4.06992C9.75905 4.02852 9.74876 3.96836 9.74824 3.88945C9.7459 3.24102 9.74512 2.59258 9.7459 1.94414C9.74616 1.80508 9.76022 1.70924 9.78809 1.65664C9.84095 1.55742 9.9377 1.50729 10.0783 1.50625C10.3484 1.50469 10.6186 1.50391 10.8889 1.50391C11.0113 1.50391 11.0995 1.54961 11.1537 1.64102C11.2024 1.72305 11.2107 1.8099 11.1787 1.90156C11.1368 2.02135 11.0369 2.08229 10.8791 2.08438C10.7041 2.08672 10.529 2.08932 10.3537 2.09219C10.3485 2.09219 10.3436 2.09429 10.3399 2.09802C10.3362 2.10176 10.3342 2.10683 10.3342 2.11211L10.3326 2.53008C10.3326 2.53764 10.3357 2.54489 10.3411 2.55024C10.3465 2.55559 10.3539 2.55859 10.3615 2.55859C10.5243 2.55859 10.6708 2.55703 10.801 2.55391C10.8924 2.55182 10.9683 2.57708 11.0287 2.62969C11.0847 2.67813 11.1165 2.74453 11.124 2.82891C11.1344 2.94271 11.0956 3.0276 11.0076 3.08359C10.9472 3.12214 10.8429 3.14219 10.6947 3.14375C10.5814 3.14479 10.468 3.14583 10.3545 3.14687C10.3492 3.14687 10.3441 3.14893 10.3404 3.1526C10.3367 3.15626 10.3346 3.16123 10.3346 3.16641Z" fill="#B9B9B9"/>
<path d="M4.38506 5.8375C4.54514 5.8375 4.6749 5.70773 4.6749 5.54766C4.6749 5.38758 4.54514 5.25781 4.38506 5.25781C4.22498 5.25781 4.09521 5.38758 4.09521 5.54766C4.09521 5.70773 4.22498 5.8375 4.38506 5.8375Z" fill="#B9B9B9"/>
<path d="M15.696 5.25391H5.46787C5.30736 5.25391 5.17725 5.38402 5.17725 5.54453V5.54922C5.17725 5.70973 5.30736 5.83984 5.46787 5.83984H15.696C15.8565 5.83984 15.9866 5.70973 15.9866 5.54922V5.54453C15.9866 5.38402 15.8565 5.25391 15.696 5.25391Z" fill="#B9B9B9"/>
<path d="M4.38496 7.41641C4.54525 7.41641 4.6752 7.28646 4.6752 7.12617C4.6752 6.96588 4.54525 6.83594 4.38496 6.83594C4.22467 6.83594 4.09473 6.96588 4.09473 7.12617C4.09473 7.28646 4.22467 7.41641 4.38496 7.41641Z" fill="#B9B9B9"/>
<path d="M15.696 6.83594H5.46787C5.30736 6.83594 5.17725 6.96605 5.17725 7.12656V7.13125C5.17725 7.29176 5.30736 7.42188 5.46787 7.42188H15.696C15.8565 7.42188 15.9866 7.29176 15.9866 7.13125V7.12656C15.9866 6.96605 15.8565 6.83594 15.696 6.83594Z" fill="#B9B9B9"/>
<path d="M4.38496 8.99648C4.54525 8.99648 4.6752 8.86654 4.6752 8.70625C4.6752 8.54596 4.54525 8.41602 4.38496 8.41602C4.22467 8.41602 4.09473 8.54596 4.09473 8.70625C4.09473 8.86654 4.22467 8.99648 4.38496 8.99648Z" fill="#B9B9B9"/>
<path d="M15.6952 8.41797H5.46787C5.30736 8.41797 5.17725 8.54809 5.17725 8.70859V8.71328C5.17725 8.87379 5.30736 9.00391 5.46787 9.00391H15.6952C15.8557 9.00391 15.9858 8.87379 15.9858 8.71328V8.70859C15.9858 8.54809 15.8557 8.41797 15.6952 8.41797Z" fill="#B9B9B9"/>
<path d="M15.696 9.99023H5.46787C5.30736 9.99023 5.17725 10.1204 5.17725 10.2809V10.2855C5.17725 10.4461 5.30736 10.5762 5.46787 10.5762H15.696C15.8565 10.5762 15.9866 10.4461 15.9866 10.2855V10.2809C15.9866 10.1204 15.8565 9.99023 15.696 9.99023Z" fill="#B9B9B9"/>
<path d="M4.38496 10.5766C4.54525 10.5766 4.6752 10.4466 4.6752 10.2863C4.6752 10.126 4.54525 9.99609 4.38496 9.99609C4.22467 9.99609 4.09473 10.126 4.09473 10.2863C4.09473 10.4466 4.22467 10.5766 4.38496 10.5766Z" fill="#B9B9B9"/>
<path d="M4.38457 12.1559C4.54465 12.1559 4.67441 12.0261 4.67441 11.866C4.67441 11.7059 4.54465 11.5762 4.38457 11.5762C4.22449 11.5762 4.09473 11.7059 4.09473 11.866C4.09473 12.0261 4.22449 12.1559 4.38457 12.1559Z" fill="#B9B9B9"/>
<path d="M10.0015 11.5723H5.46553C5.30631 11.5723 5.17725 11.7013 5.17725 11.8605V11.8691C5.17725 12.0284 5.30631 12.1574 5.46553 12.1574H10.0015C10.1607 12.1574 10.2897 12.0284 10.2897 11.8691V11.8605C10.2897 11.7013 10.1607 11.5723 10.0015 11.5723Z" fill="#B9B9B9"/>
<path d="M13.2015 12.1161C13.2039 12.0552 13.205 11.9942 13.205 11.9333C13.205 11.8362 13.2349 11.7583 13.2945 11.6997C13.3508 11.6442 13.4217 11.6174 13.5074 11.6192C13.6035 11.6213 13.679 11.6618 13.734 11.7407C13.7649 11.7852 13.7827 11.8459 13.7871 11.9227C13.791 11.9873 13.7916 12.0517 13.789 12.1157C13.7889 12.1201 13.7896 12.1245 13.7912 12.1286C13.7928 12.1326 13.7953 12.1363 13.7984 12.1394C13.8015 12.1425 13.8053 12.1449 13.8094 12.1465C13.8135 12.1481 13.8179 12.1487 13.8222 12.1485C14.2178 12.1306 14.5186 12.2838 14.7246 12.6083C14.81 12.7429 14.857 12.9045 14.8656 13.0931C14.8726 13.2415 14.8273 13.3457 14.7297 13.4056C14.6435 13.4584 14.5532 13.4653 14.459 13.4263C14.3793 13.3932 14.3267 13.3313 14.3011 13.2407C14.3009 13.2397 14.2945 13.1881 14.282 13.086C14.2531 12.8537 14.1062 12.7338 13.8414 12.7263C13.8346 12.726 13.8278 12.7272 13.8215 12.7296C13.8151 12.7321 13.8093 12.7358 13.8044 12.7405C13.7996 12.7452 13.7957 12.7508 13.793 12.757C13.7904 12.7632 13.789 12.7699 13.789 12.7766L13.7914 13.9306C13.7913 13.943 13.796 13.9549 13.8045 13.964C13.813 13.9732 13.8246 13.9788 13.8371 13.9798C14.3202 14.0155 14.6383 14.2194 14.7914 14.5915C14.8422 14.7149 14.8695 14.8799 14.8734 15.0864C14.8755 15.1992 14.8743 15.3118 14.8699 15.4243C14.8647 15.555 14.8466 15.6655 14.8156 15.7556C14.6784 16.155 14.3841 16.3742 13.9328 16.413C13.9299 16.4132 13.906 16.4123 13.8609 16.4102C13.8018 16.4076 13.7778 16.4453 13.789 16.5231C13.8 16.5989 13.7819 16.669 13.7347 16.7333C13.7009 16.7794 13.6586 16.8128 13.6078 16.8337C13.5521 16.8563 13.4957 16.8612 13.4386 16.8481C13.3592 16.8302 13.2983 16.7871 13.2558 16.7188C13.2136 16.6509 13.1968 16.567 13.2054 16.4673C13.206 16.4607 13.2052 16.454 13.2029 16.4478C13.2007 16.4416 13.1971 16.4359 13.1925 16.4312C13.1878 16.4265 13.1822 16.4228 13.176 16.4205C13.1698 16.4181 13.1632 16.4172 13.1566 16.4177C12.9694 16.4309 12.7877 16.3862 12.6117 16.2833C12.3299 16.1184 12.169 15.8696 12.1289 15.5368C12.1138 15.4105 12.1428 15.3135 12.216 15.2458C12.2858 15.1815 12.3711 15.1567 12.4718 15.1716C12.5599 15.1849 12.625 15.2319 12.6672 15.3126C12.6695 15.317 12.6881 15.3898 12.723 15.5309C12.7767 15.7474 12.9295 15.8467 13.1816 15.829C13.1869 15.8286 13.1919 15.8262 13.1955 15.8223C13.1992 15.8184 13.2012 15.8132 13.2011 15.8079L13.1961 14.5966C13.1961 14.5915 13.194 14.5865 13.1904 14.5829C13.1867 14.5792 13.1817 14.5771 13.1765 14.577C12.6606 14.5705 12.3273 14.3437 12.1765 13.8966C12.1448 13.8026 12.1289 13.6829 12.1289 13.5376C12.1289 13.4222 12.1289 13.3067 12.1289 13.1911C12.1289 13.0424 12.1399 12.9277 12.1621 12.847C12.2298 12.5988 12.3758 12.4089 12.6 12.2774C12.7669 12.1798 12.9606 12.1325 13.1812 12.1356C13.1865 12.1356 13.1915 12.1336 13.1953 12.13C13.1991 12.1263 13.2013 12.1214 13.2015 12.1161ZM12.8777 13.9192C12.9543 13.9731 13.0545 13.9931 13.1785 13.979C13.1852 13.9782 13.1915 13.975 13.196 13.9699C13.2005 13.9648 13.2031 13.9581 13.2031 13.9513V12.7634C13.2031 12.755 13.1998 12.7469 13.1938 12.741C13.1879 12.7351 13.1798 12.7317 13.1715 12.7317C12.9808 12.7315 12.8472 12.7915 12.7707 12.9118C12.7332 12.9709 12.7144 13.0648 12.7144 13.1934C12.7142 13.3273 12.7147 13.4612 12.716 13.595C12.717 13.6729 12.7286 13.7332 12.7508 13.7759C12.7804 13.8326 12.8228 13.8804 12.8777 13.9192ZM14.1433 14.6653C14.0475 14.588 13.9381 14.5576 13.8152 14.5743C13.8098 14.5751 13.8048 14.5777 13.8012 14.5818C13.7976 14.5859 13.7956 14.5912 13.7957 14.5966V15.8032C13.7957 15.8085 13.7977 15.8137 13.8014 15.8176C13.8051 15.8215 13.8102 15.8239 13.8156 15.8243C14.0398 15.8436 14.1851 15.7658 14.2515 15.5911C14.2752 15.5291 14.2871 15.4263 14.2871 15.2825C14.2871 15.1786 14.2871 15.0746 14.2871 14.9704C14.2868 14.8441 14.2389 14.7424 14.1433 14.6653Z" fill="#B9B9B9"/>
<path d="M4.38496 13.7348C4.54525 13.7348 4.6752 13.6048 4.6752 13.4445C4.6752 13.2842 4.54525 13.1543 4.38496 13.1543C4.22467 13.1543 4.09473 13.2842 4.09473 13.4445C4.09473 13.6048 4.22467 13.7348 4.38496 13.7348Z" fill="#B9B9B9"/>
<path d="M10.0015 13.1543H5.46553C5.30631 13.1543 5.17725 13.2834 5.17725 13.4426V13.4512C5.17725 13.6104 5.30631 13.7395 5.46553 13.7395H10.0015C10.1607 13.7395 10.2897 13.6104 10.2897 13.4512V13.4426C10.2897 13.2834 10.1607 13.1543 10.0015 13.1543Z" fill="#B9B9B9"/>
<path d="M4.38447 15.3148C4.54476 15.3148 4.67471 15.1849 4.67471 15.0246C4.67471 14.8643 4.54476 14.7344 4.38447 14.7344C4.22418 14.7344 4.09424 14.8643 4.09424 15.0246C4.09424 15.1849 4.22418 15.3148 4.38447 15.3148Z" fill="#B9B9B9"/>
<path d="M10.0015 14.7363H5.46553C5.30631 14.7363 5.17725 14.8654 5.17725 15.0246V15.0324C5.17725 15.1916 5.30631 15.3207 5.46553 15.3207H10.0015C10.1607 15.3207 10.2897 15.1916 10.2897 15.0324V15.0246C10.2897 14.8654 10.1607 14.7363 10.0015 14.7363Z" fill="#B9B9B9"/>
<path d="M10.0012 16.3086H5.46602C5.3068 16.3086 5.17773 16.4377 5.17773 16.5969V16.6055C5.17773 16.7647 5.3068 16.8938 5.46602 16.8938H10.0012C10.1604 16.8938 10.2895 16.7647 10.2895 16.6055V16.5969C10.2895 16.4377 10.1604 16.3086 10.0012 16.3086Z" fill="#B9B9B9"/>
<path d="M4.38447 16.8949C4.54476 16.8949 4.67471 16.765 4.67471 16.6047C4.67471 16.4444 4.54476 16.3145 4.38447 16.3145C4.22418 16.3145 4.09424 16.4444 4.09424 16.6047C4.09424 16.765 4.22418 16.8949 4.38447 16.8949Z" fill="#B9B9B9"/>
<path d="M6.0332 17.8926H4.3793C4.22267 17.8926 4.0957 18.0195 4.0957 18.1762V18.1926C4.0957 18.3492 4.22267 18.4762 4.3793 18.4762H6.0332C6.18983 18.4762 6.3168 18.3492 6.3168 18.1926V18.1762C6.3168 18.0195 6.18983 17.8926 6.0332 17.8926Z" fill="#B9B9B9"/>
<path d="M15.4053 17.8926H13.7514C13.5947 17.8926 13.4678 18.0195 13.4678 18.1762V18.1926C13.4678 18.3492 13.5947 18.4762 13.7514 18.4762H15.4053C15.5619 18.4762 15.6889 18.3492 15.6889 18.1926V18.1762C15.6889 18.0195 15.5619 17.8926 15.4053 17.8926Z" fill="#B9B9B9"/>
</svg>
