<svg width="20" height="20" viewBox="0 0 20 20" fill="none" xmlns="http://www.w3.org/2000/svg">
<g clip-path="url(#clip0_1156_13399)">
<path d="M20 5.82261V5.95933C19.9339 6.51506 19.6665 6.89514 19.198 7.09956C19.0241 7.17534 18.8512 7.21428 18.6793 7.21636C18.4949 7.21844 18.3172 7.18224 18.1461 7.10777C18.1339 7.10243 18.1207 7.09993 18.1078 7.10047C18.0948 7.10102 18.0824 7.10459 18.0715 7.11089L17.4996 7.44292C17.4945 7.44597 17.4901 7.45027 17.4868 7.45548C17.4835 7.46069 17.4813 7.46668 17.4805 7.473C17.3805 8.24253 17.048 8.86349 16.4832 9.33589C16.3538 9.44422 16.1366 9.58693 15.8316 9.76402C15.147 10.1617 14.4555 10.5617 13.757 10.964C13.749 10.9686 13.7423 10.9753 13.7376 10.9833C13.7329 10.9913 13.7305 11.0004 13.7305 11.0097V11.9925C13.7305 12.0178 13.7396 12.0217 13.7578 12.0042C13.8677 11.8998 13.9772 11.7898 14.0863 11.6742C14.323 11.4229 14.6148 11.2842 14.9617 11.2582C15.2547 11.2363 15.5181 11.3019 15.752 11.455C16.0561 11.6542 16.2419 11.938 16.3094 12.3062C16.3745 12.6619 16.3038 12.9855 16.0973 13.2769C16.0405 13.3569 15.9409 13.4682 15.7984 13.6109C15.538 13.8713 15.2784 14.1325 15.0195 14.3945C14.951 14.4638 14.8736 14.497 14.7871 14.4941C14.7059 14.4912 14.6357 14.4589 14.5766 14.3972C14.5102 14.3272 14.488 14.2442 14.5102 14.1484C14.524 14.088 14.5669 14.0221 14.6391 13.9507C14.9198 13.6726 15.1979 13.3921 15.4734 13.1093C15.5805 12.9994 15.653 12.9006 15.691 12.8128C15.7824 12.6014 15.7779 12.404 15.6773 12.2207C15.5687 12.0225 15.4044 11.8983 15.1844 11.848C14.9484 11.7941 14.728 11.8687 14.523 12.0718C14.2355 12.3572 13.9366 12.6535 13.6262 12.9605C13.5923 12.9938 13.5518 13.0138 13.5047 13.0203C13.3503 13.0416 13.2444 12.9951 13.1871 12.8808C13.1587 12.824 13.1445 12.7243 13.1445 12.5816C13.1445 10.9503 13.1445 9.31909 13.1445 7.68784C13.1445 7.49045 13.1255 7.34852 13.0875 7.26206C13.0177 7.10373 12.8956 7.00438 12.7211 6.96402C12.5956 6.93485 12.4763 6.94448 12.3633 6.99292C12.2365 7.04735 12.1448 7.13615 12.0883 7.25933C12.0503 7.3424 12.0312 7.47977 12.0312 7.67144C12.0323 8.73524 12.0316 9.79904 12.0293 10.8628C12.029 10.9795 12.0156 11.0645 11.9891 11.1179C11.9404 11.2158 11.8592 11.2647 11.7457 11.2644C11.6592 11.2641 11.5887 11.2384 11.534 11.1871C11.4738 11.1303 11.4437 11.0536 11.4437 10.957C11.4448 9.68745 11.4443 8.41792 11.4422 7.14839C11.4419 6.93433 11.3717 6.77274 11.2316 6.66362C11.0983 6.55946 10.9452 6.52274 10.7723 6.55347C10.6022 6.58368 10.4753 6.68263 10.3914 6.85034C10.3615 6.90972 10.3422 6.97391 10.3336 7.04292C10.326 7.10204 10.3223 7.16974 10.3223 7.24605C10.3223 8.45751 10.3223 9.66896 10.3223 10.8804C10.3223 10.9989 10.3052 11.0856 10.2711 11.1406C10.2133 11.2343 10.1234 11.2753 10.0016 11.2636C9.94479 11.2584 9.89531 11.2398 9.85313 11.2078C9.80417 11.1705 9.77174 11.126 9.75586 11.0742C9.73633 11.0101 9.72682 10.9157 9.72734 10.791C9.73307 9.73342 9.73607 8.67573 9.73633 7.61792C9.73633 7.46818 9.71914 7.35334 9.68476 7.27339C9.60456 7.08797 9.4638 6.98211 9.2625 6.95581C9.12943 6.93862 9.00729 6.96206 8.89609 7.02612C8.77083 7.09852 8.68841 7.20256 8.64883 7.33823C8.63164 7.39761 8.62305 7.57131 8.62305 7.85933C8.62305 8.895 8.62305 9.93081 8.62305 10.9668C8.62305 11.0571 8.59232 11.1307 8.53086 11.1875C8.47643 11.2377 8.40794 11.2634 8.32539 11.2644C8.21003 11.2654 8.1276 11.2175 8.07812 11.1207C8.05078 11.0673 8.03711 10.982 8.03711 10.8648C8.03711 10.0067 8.03711 9.14878 8.03711 8.29097C8.03711 8.10503 7.98346 7.9562 7.87617 7.84448C7.76914 7.73329 7.63594 7.67638 7.47656 7.67378C7.30547 7.67118 7.15951 7.74592 7.03867 7.898C6.97331 7.98029 6.93555 8.07339 6.92539 8.1773C6.92513 8.18172 6.9224 8.24448 6.91719 8.36558C6.9151 8.41662 6.91406 8.47964 6.91406 8.55464C6.91484 10.5815 6.91745 12.0787 6.92188 13.0464C6.92396 13.4917 6.92891 13.752 6.93672 13.8273C7.00286 14.4489 7.28984 14.9589 7.79766 15.3574C7.79922 15.3587 7.84531 15.389 7.93594 15.4484C8.02526 15.5067 8.07852 15.5786 8.0957 15.664C8.11185 15.7442 8.11445 15.9696 8.10352 16.3402C8.10346 16.3427 8.10392 16.3453 8.10486 16.3476C8.1058 16.35 8.1072 16.3522 8.10898 16.354C8.11076 16.3558 8.11289 16.3572 8.11524 16.3582C8.11759 16.3592 8.12011 16.3597 8.12266 16.3597H12.5609C12.5662 16.3597 12.5713 16.3578 12.5752 16.3542C12.579 16.3506 12.5813 16.3458 12.5816 16.3406C12.5895 16.1901 12.5926 16.0394 12.591 15.8886C12.5897 15.7753 12.6302 15.6964 12.7125 15.6519C13.1086 15.4376 13.4358 15.1824 13.6941 14.8863C13.8405 14.7186 13.988 14.6906 14.1367 14.8023C14.1982 14.8486 14.2355 14.9072 14.2488 14.9781C14.2639 15.0598 14.25 15.1337 14.207 15.1996C14.2029 15.2058 14.1349 15.2772 14.0031 15.4136C13.7719 15.6535 13.5048 15.8677 13.202 16.0562C13.1933 16.0616 13.1862 16.069 13.1813 16.0778C13.1764 16.0867 13.1738 16.0966 13.1738 16.1066V16.5898C13.1738 16.5954 13.1751 16.6009 13.1775 16.6059C13.18 16.6109 13.1835 16.6153 13.1879 16.6187C13.4473 16.8234 13.6137 17.0713 13.6871 17.3625C13.7496 17.6104 13.7421 17.8571 13.6645 18.1027C13.585 18.355 13.437 18.5667 13.2203 18.7378C13.0927 18.8384 12.9475 18.9131 12.7848 18.9621C12.672 18.9962 12.5128 19.014 12.307 19.0156C11.2727 19.0229 9.95352 19.0255 8.34961 19.0234C7.91003 19.0229 7.55599 18.8737 7.2875 18.5757C7.17708 18.4533 7.09258 18.3188 7.03398 18.1722C6.97227 18.0175 6.94206 17.8585 6.94336 17.6953C6.94648 17.2731 7.11328 16.9256 7.44375 16.6527C7.5 16.6063 7.5263 16.555 7.52266 16.4988C7.52083 16.4683 7.51992 16.452 7.51992 16.45C7.52383 16.2661 7.52083 16.0822 7.51094 15.8984C7.51057 15.8923 7.50891 15.8863 7.50608 15.881C7.50324 15.8757 7.4993 15.8711 7.49453 15.8675C6.90938 15.4251 6.54323 14.8571 6.39609 14.1636C6.35781 13.9834 6.33724 13.7255 6.33438 13.3898C6.32604 12.3893 6.32409 11.3738 6.32852 10.3433C6.3285 10.3325 6.32568 10.3219 6.32033 10.3126C6.31499 10.3033 6.3073 10.2955 6.29805 10.2902L5.6 9.88823C5.57917 9.87626 5.57174 9.88185 5.57773 9.90503C5.61549 10.0561 5.65586 10.2118 5.69883 10.3722C5.80742 10.7774 5.75664 11.1391 5.54648 11.4574C5.44492 11.6108 5.31901 11.7369 5.16875 11.8359C5.01146 11.9393 4.8405 12.0041 4.65586 12.0304C4.3931 12.0677 4.14049 12.0278 3.89805 11.9109C3.68398 11.8078 3.51289 11.6541 3.38477 11.45C3.31445 11.338 3.24349 11.152 3.17188 10.8921C2.92786 10.0046 2.68789 9.11623 2.45195 8.22691C2.3806 7.95764 2.34531 7.67638 2.34609 7.38316C2.3461 7.37689 2.34452 7.37077 2.3415 7.36542C2.33848 7.36007 2.33414 7.35568 2.32891 7.35269L1.90469 7.10933C1.89799 7.10554 1.89042 7.10333 1.88252 7.10286C1.87461 7.10239 1.86658 7.10366 1.85898 7.10659C1.6681 7.18159 1.47799 7.21714 1.28867 7.21323C1.10456 7.20933 0.922005 7.16232 0.741016 7.07222C0.300651 6.85321 0.0536458 6.47417 0 5.93511V5.82769C0.0192708 5.59904 0.0973958 5.36545 0.234375 5.12691C0.61276 4.46753 0.992839 3.8092 1.37461 3.15191C1.44076 3.03784 1.52682 2.97756 1.63281 2.97105C1.73307 2.9648 1.81719 3.00191 1.88516 3.08237C1.96667 3.17821 1.96901 3.29253 1.89219 3.42534C1.5099 4.08524 1.12904 4.74605 0.749609 5.40777C0.686589 5.5174 0.641667 5.62001 0.614844 5.71558C0.585417 5.82027 0.583333 5.92964 0.608594 6.0437C0.649219 6.22652 0.739323 6.37014 0.878906 6.47456C1.05 6.60295 1.2431 6.65086 1.4582 6.61831C1.68346 6.5842 1.86146 6.4549 1.99219 6.23042C2.47005 5.41063 3.13737 4.25503 3.99414 2.76362C4.05612 2.65555 4.09844 2.55112 4.12109 2.45034C4.14531 2.34279 4.14271 2.23303 4.11328 2.12105C4.07344 1.96948 3.99505 1.845 3.87812 1.74761C3.76979 1.65724 3.64141 1.60086 3.49297 1.57847C3.29948 1.54956 3.12552 1.59097 2.97109 1.70269C2.88646 1.76388 2.79401 1.87638 2.69375 2.04019C2.61693 2.16545 2.5418 2.29188 2.46836 2.41948C2.4319 2.4825 2.37474 2.52026 2.29688 2.53276C2.23307 2.54318 2.16992 2.53381 2.10742 2.50464C2.00638 2.4575 1.95312 2.3812 1.94766 2.27573C1.94427 2.20646 1.97383 2.11571 2.03633 2.00347C2.08841 1.91076 2.14049 1.81818 2.19258 1.72573C2.46419 1.24579 2.85052 1.00073 3.35156 0.990578C3.62656 0.984849 3.87461 1.04969 4.0957 1.18511C4.43711 1.39396 4.64479 1.72235 4.71875 2.17027C4.7207 2.18219 4.72537 2.19355 4.7324 2.2035C4.73944 2.21344 4.74866 2.22171 4.75937 2.22769L5.27812 2.52261C5.31719 2.54474 5.35729 2.548 5.39844 2.53237C6.20078 2.22925 6.95951 2.23849 7.67461 2.56011C7.76602 2.60125 7.99388 2.72691 8.3582 2.93706C9.10117 3.36519 9.84453 3.7924 10.5883 4.2187C10.5938 4.22182 10.5998 4.22356 10.6059 4.22376C10.612 4.22397 10.6179 4.22263 10.623 4.21987L10.9961 4.01206C11.0286 3.99383 11.0264 3.98055 10.9895 3.97222C10.9184 3.95633 10.8479 3.93836 10.7781 3.91831C10.7299 3.90451 10.6596 3.88667 10.5672 3.8648C10.1138 3.75829 9.79857 3.49461 9.62148 3.07378C9.53008 2.85633 9.50325 2.63172 9.54102 2.39995C9.57617 2.18407 9.66393 1.98459 9.8043 1.80152C10.0488 1.48277 10.3831 1.3187 10.807 1.30933C10.9266 1.30672 11.0763 1.32912 11.2563 1.37652C12.1927 1.62365 13.1281 1.87443 14.0625 2.12886C14.3219 2.19969 14.5671 2.30386 14.798 2.44136C14.8033 2.44444 14.8091 2.44614 14.815 2.44628C14.8209 2.44641 14.8266 2.44499 14.8316 2.44214L15.2434 2.20737C15.2532 2.20174 15.2617 2.19386 15.2683 2.18428C15.2749 2.17471 15.2794 2.16366 15.2816 2.15191C15.3702 1.67795 15.6009 1.34201 15.9738 1.14409C16.2077 1.02014 16.4589 0.969223 16.7273 0.991359C17.0312 1.01636 17.2926 1.13316 17.5113 1.34175C17.6134 1.43915 17.7444 1.62547 17.9043 1.90073C18.9652 3.73042 19.6142 4.85542 19.8512 5.27573C19.9327 5.42053 19.9823 5.60282 20 5.82261ZM17.2409 1.93068C17.1439 1.76325 16.9843 1.64124 16.7973 1.59147C16.6103 1.54171 16.4111 1.56828 16.2437 1.66534L16.2174 1.68062C16.1344 1.72867 16.0618 1.79259 16.0036 1.86871C15.9454 1.94484 15.9028 2.03168 15.8781 2.12428C15.8535 2.21688 15.8473 2.31343 15.86 2.40841C15.8727 2.5034 15.9039 2.59495 15.952 2.67785L18.0325 6.26688C18.1295 6.43431 18.2891 6.55633 18.4762 6.60609C18.6632 6.65585 18.8623 6.62928 19.0297 6.53223L19.0561 6.51695C19.139 6.46889 19.2116 6.40497 19.2698 6.32885C19.328 6.25273 19.3707 6.16588 19.3953 6.07328C19.4199 5.98068 19.4261 5.88413 19.4134 5.78915C19.4007 5.69417 19.3695 5.60261 19.3214 5.51971L17.2409 1.93068ZM10.2613 2.16558C10.141 2.31766 10.0928 2.48472 10.1168 2.66675C10.1376 2.82586 10.2025 2.96193 10.3113 3.07495C10.4194 3.18719 10.5598 3.26245 10.7324 3.30073C10.9991 3.35985 11.3664 3.4605 11.8344 3.60269C11.9203 3.62873 11.9827 3.66493 12.0215 3.71128C12.0978 3.80269 12.11 3.90112 12.0582 4.00659C12.0296 4.06493 11.9716 4.1204 11.8844 4.173C11.6768 4.29852 11.4602 4.42391 11.2344 4.54917C11.2063 4.5648 11.2063 4.58055 11.2344 4.59644C11.6203 4.81597 12.0008 5.03589 12.3758 5.2562C12.5982 5.38667 12.7525 5.49995 12.8387 5.59605C13.0467 5.82756 13.1428 6.10633 13.127 6.43237C13.1262 6.44755 13.1294 6.46267 13.1362 6.47627C13.1429 6.48988 13.1531 6.50153 13.1656 6.51011C13.4185 6.68485 13.5867 6.898 13.6703 7.14956C13.7104 7.2704 13.7305 7.49331 13.7305 7.81831C13.7305 8.62873 13.7305 9.44579 13.7305 10.2695C13.7305 10.2927 13.7405 10.2984 13.7605 10.2867C14.4152 9.90751 15.0738 9.52717 15.7363 9.14566C16.4249 8.74904 16.8129 8.15412 16.9004 7.36089C16.9007 7.35907 16.9021 7.33459 16.9047 7.28745C16.9115 7.16271 16.9764 7.06428 17.0996 6.99214C17.2642 6.89579 17.4245 6.80334 17.5805 6.7148C17.5839 6.71285 17.5869 6.71024 17.5894 6.70712C17.5918 6.70399 17.5935 6.70041 17.5946 6.69659C17.5956 6.69277 17.5958 6.68878 17.5953 6.68487C17.5947 6.68095 17.5934 6.67718 17.5914 6.67378C16.9034 5.49618 16.2275 4.32678 15.5637 3.16558C15.5632 3.1648 15.5362 3.12053 15.4828 3.03277C15.4451 2.97105 15.4145 2.90985 15.391 2.84917C15.3889 2.84369 15.3855 2.83874 15.3813 2.83469C15.377 2.83063 15.3719 2.82757 15.3663 2.8257C15.3607 2.82384 15.3548 2.82323 15.3489 2.82391C15.3431 2.82459 15.3374 2.82654 15.3324 2.82964C15.2243 2.89631 15.1167 2.95959 15.0094 3.01948C14.9391 3.05881 14.8831 3.08159 14.8414 3.08784C14.7721 3.09826 14.7103 3.08537 14.6559 3.04917C14.4702 2.92651 14.2863 2.82964 14.1043 2.75855C14.0319 2.73042 13.8336 2.67261 13.5094 2.58511C12.7984 2.39266 12.0868 2.20243 11.3746 2.01441C11.06 1.93133 10.873 1.88915 10.8137 1.88784C10.5949 1.88342 10.4108 1.97599 10.2613 2.16558ZM11.757 6.35972C11.8091 6.42274 11.8536 6.48876 11.8906 6.55777C11.8924 6.56095 11.8947 6.56375 11.8976 6.56596C11.9005 6.56817 11.9038 6.56975 11.9073 6.5706C11.9108 6.57145 11.9144 6.57154 11.918 6.57088C11.9215 6.57022 11.9248 6.56881 11.9277 6.56675C12.1074 6.44097 12.2977 6.37157 12.4984 6.35855C12.505 6.35813 12.5113 6.35637 12.5171 6.35336C12.523 6.35036 12.5281 6.34618 12.5321 6.3411C12.5362 6.33603 12.5392 6.33016 12.5409 6.32388C12.5425 6.3176 12.5428 6.31105 12.5418 6.30464C12.5095 6.11037 12.4137 5.96662 12.2543 5.87339C10.7882 5.01402 9.31745 4.16245 7.84219 3.3187C7.54271 3.14735 7.31146 3.03693 7.14844 2.98745C6.59505 2.81948 6.04375 2.87196 5.49453 3.14487C5.38568 3.19904 5.28268 3.19891 5.18555 3.14448C5.01914 3.05125 4.84284 2.94956 4.65664 2.83941C4.65342 2.83746 4.64985 2.83618 4.64612 2.83564C4.64239 2.8351 4.63858 2.8353 4.63491 2.83625C4.63125 2.83719 4.62779 2.83885 4.62475 2.84114C4.62171 2.84342 4.61914 2.84629 4.61719 2.84956L2.40039 6.68628C2.39866 6.68925 2.39754 6.69253 2.39709 6.69593C2.39665 6.69934 2.39689 6.7028 2.3978 6.70611C2.3987 6.70942 2.40027 6.71252 2.40239 6.71522C2.40451 6.71791 2.40715 6.72016 2.41016 6.72183C2.52109 6.78381 2.62852 6.84605 2.73242 6.90855C2.81576 6.95829 2.8694 7.00191 2.89336 7.03941C2.93086 7.09826 2.94622 7.1704 2.93945 7.25581C2.92878 7.38889 2.93164 7.53263 2.94805 7.68706C2.96003 7.79748 2.98841 7.9381 3.0332 8.10894C3.25404 8.95165 3.47878 9.79331 3.70742 10.6339C3.77747 10.8904 3.82005 11.0346 3.83516 11.0664C3.90547 11.213 4.01784 11.3222 4.17227 11.3941C4.33138 11.4678 4.48906 11.4825 4.64531 11.4382C4.79479 11.3958 4.91888 11.3138 5.01758 11.1921C5.10169 11.089 5.15117 10.9694 5.16602 10.8332C5.17591 10.7446 5.1599 10.6208 5.11797 10.4617C5.02917 10.1255 4.94023 9.78928 4.85117 9.45308C4.85013 9.44943 4.84258 9.42534 4.82852 9.38081C4.80169 9.29592 4.80443 9.2174 4.83672 9.14527C4.86927 9.07287 4.92266 9.02066 4.99687 8.98862C5.07786 8.95321 5.15951 8.95907 5.2418 9.0062C5.58711 9.20412 5.93997 9.40724 6.30039 9.61558C6.32487 9.6299 6.33672 9.62274 6.33594 9.59409C6.32083 9.15269 6.32135 8.71428 6.3375 8.27886C6.34453 8.08693 6.36888 7.93537 6.41055 7.82417C6.47044 7.66402 6.55612 7.53237 6.66758 7.42925C7.07878 7.04878 7.53828 6.98277 8.04609 7.2312C8.04862 7.23246 8.0514 7.23313 8.05423 7.23319C8.05705 7.23324 8.05985 7.23266 8.06243 7.23151C8.065 7.23035 8.06729 7.22864 8.06913 7.22649C8.07096 7.22434 8.0723 7.22182 8.07305 7.21909C8.13607 7.0006 8.24167 6.82 8.38984 6.6773C8.53464 6.53797 8.71146 6.4424 8.92031 6.39058C9.2362 6.31219 9.54258 6.36844 9.83945 6.55933C9.84458 6.56254 9.85048 6.56415 9.85629 6.56394C9.86211 6.56373 9.86756 6.56171 9.87187 6.55816C9.92005 6.51857 9.91393 6.48094 9.85352 6.44527C9.60872 6.30073 9.36302 6.15764 9.11641 6.01597C9.03385 5.96883 8.97838 5.92782 8.95 5.89292C8.89922 5.83016 8.87969 5.75985 8.89141 5.68198C8.90651 5.58224 8.9582 5.50829 9.04648 5.46011C9.14727 5.4049 9.25924 5.41506 9.38242 5.49058C9.6168 5.63459 9.94401 5.82274 10.3641 6.05503C10.3693 6.05797 10.3752 6.05966 10.3813 6.06C10.3874 6.06034 10.3935 6.05931 10.3992 6.05698C10.8354 5.88172 11.2309 5.92834 11.5855 6.19683C11.6504 6.24579 11.7076 6.30008 11.757 6.35972ZM13.1395 17.6699C13.1395 17.4777 13.0631 17.2934 12.9272 17.1575C12.7913 17.0216 12.607 16.9453 12.4148 16.9453H8.25859C8.06642 16.9453 7.88211 17.0216 7.74622 17.1575C7.61033 17.2934 7.53398 17.4777 7.53398 17.6699V17.7105C7.53398 17.9027 7.61033 18.087 7.74622 18.2229C7.88211 18.3588 8.06642 18.4351 8.25859 18.4351H12.4148C12.607 18.4351 12.7913 18.3588 12.9272 18.2229C13.0631 18.087 13.1395 17.9027 13.1395 17.7105V17.6699Z" fill="#B9B9B9"/>
</g>
<defs>
<clipPath id="clip0_1156_13399">
<rect width="20" height="20" fill="white"/>
</clipPath>
</defs>
</svg>
