<svg width="20" height="20" viewBox="0 0 20 20" fill="none" xmlns="http://www.w3.org/2000/svg">
<g clip-path="url(#clip0_1156_13342)">
<path d="M8.44961 0H8.55703C9.06719 0.0382813 9.48203 0.253776 9.80156 0.646484C9.80866 0.655042 9.81753 0.661929 9.82752 0.666655C9.83751 0.671382 9.84839 0.673831 9.85938 0.673828C10.0398 0.673828 10.2134 0.673828 10.3801 0.673828C10.5754 0.673828 10.7234 0.691667 10.8242 0.727344C11.0906 0.821875 11.2882 1.01367 11.4168 1.30273C11.4215 1.31319 11.429 1.32208 11.4386 1.32832C11.4482 1.33455 11.4593 1.33788 11.4707 1.33789C12.2741 1.33789 13.0664 1.33789 13.8477 1.33789C14.1609 1.33789 14.4434 1.44284 14.6949 1.65273C14.9228 1.8431 15.0665 2.08073 15.1262 2.36563C15.1462 2.46224 15.1562 2.72187 15.1562 3.14453C15.1562 5.96016 15.1562 8.77591 15.1562 11.5918C15.1562 11.6905 15.1365 11.7729 15.0969 11.8391C15.0557 11.9083 14.9913 11.9535 14.9035 11.9746C14.7743 12.0056 14.6673 11.9618 14.5824 11.8434C14.5439 11.7895 14.526 11.7177 14.5289 11.6281C14.5305 11.582 14.5312 11.5579 14.5312 11.5559C14.5312 8.66914 14.5312 5.78242 14.5312 2.8957C14.5312 2.65456 14.5116 2.48451 14.4723 2.38555C14.4025 2.21081 14.2783 2.08828 14.0996 2.01797C14.0059 1.98125 13.8616 1.96289 13.6668 1.96289C12.9467 1.96289 12.2303 1.96289 11.5176 1.96289C11.5132 1.96289 11.5089 1.96375 11.5049 1.96542C11.5008 1.96709 11.4972 1.96953 11.4941 1.97262C11.491 1.9757 11.4886 1.97936 11.4869 1.98339C11.4852 1.98742 11.4844 1.99173 11.4844 1.99609C11.4844 2.20651 11.4844 2.41224 11.4844 2.61328C11.4844 2.87318 11.4806 3.01849 11.473 3.04922C11.4387 3.18776 11.3464 3.26966 11.1961 3.29492C11.1719 3.29883 11.0579 3.30078 10.8543 3.30078C9.18607 3.30078 7.51784 3.30078 5.84961 3.30078C5.72695 3.30078 5.63568 3.25807 5.57578 3.17266C5.5375 3.11849 5.51667 3.03008 5.51328 2.90742C5.50573 2.61471 5.50417 2.31042 5.50859 1.99453C5.50865 1.9904 5.50787 1.98629 5.5063 1.98245C5.50473 1.97862 5.50241 1.97513 5.49947 1.97218C5.49652 1.96924 5.49302 1.9669 5.48915 1.96531C5.48529 1.96371 5.48114 1.96289 5.47695 1.96289C4.73893 1.96289 4.01406 1.96289 3.30234 1.96289C3.12266 1.96289 2.98724 1.98073 2.89609 2.01641C2.71146 2.08906 2.58477 2.21615 2.51602 2.39766C2.4793 2.49479 2.46094 2.66289 2.46094 2.90195C2.46094 7.39414 2.46094 11.8862 2.46094 16.3781C2.46094 16.6609 2.48177 16.8529 2.52344 16.9539C2.61172 17.1685 2.78945 17.3049 3.05664 17.3633C3.11237 17.3755 3.27188 17.3813 3.53516 17.3805C5.56719 17.3755 7.59922 17.373 9.63125 17.373C9.78203 17.373 9.86497 17.3742 9.88008 17.3766C9.97982 17.3924 10.0526 17.4419 10.0984 17.525C10.1531 17.6247 10.1557 17.726 10.1062 17.8289C10.0518 17.9417 9.94805 17.998 9.79492 17.998C7.68893 17.998 5.58281 17.998 3.47656 17.998C3.28177 17.998 3.13542 17.9936 3.0375 17.9848C2.78984 17.9626 2.56758 17.8762 2.3707 17.7254C2.01471 17.4522 1.83672 17.0874 1.83672 16.6309C1.8362 11.9988 1.83594 7.36667 1.83594 2.73438C1.83594 2.59531 1.85026 2.4638 1.87891 2.33984C1.90807 2.21432 1.95833 2.09336 2.02969 1.97695C2.23828 1.63737 2.53242 1.43281 2.91211 1.36328C3.00404 1.34635 3.2638 1.33789 3.69141 1.33789C4.29036 1.33789 4.89583 1.33789 5.50781 1.33789C5.52109 1.33788 5.53411 1.33418 5.54542 1.32722C5.55673 1.32025 5.56588 1.31029 5.57188 1.29844C5.71406 1.01146 5.9151 0.820964 6.175 0.726953C6.27344 0.691536 6.4168 0.673828 6.60508 0.673828C6.77461 0.673828 6.9487 0.673828 7.12734 0.673828C7.1409 0.673834 7.15433 0.670829 7.16668 0.665025C7.17903 0.659221 7.19 0.650759 7.19883 0.640234C7.52669 0.246224 7.94362 0.0328125 8.44961 0ZM9.44453 1.2168C9.39583 1.16237 9.3487 1.10586 9.30313 1.04727C9.05755 0.730339 8.74987 0.594401 8.38008 0.639453C8.2194 0.658724 8.07695 0.708594 7.95273 0.789062C7.82201 0.873698 7.71406 0.985417 7.62891 1.12422C7.56432 1.22917 7.47253 1.28411 7.35352 1.28906C7.13242 1.29792 6.87604 1.30156 6.58437 1.3C6.47135 1.29922 6.38724 1.31198 6.33203 1.33828C6.24037 1.38177 6.18164 1.45091 6.15586 1.5457C6.14701 1.57826 6.14258 1.69401 6.14258 1.89297C6.14258 2.13281 6.14258 2.38151 6.14258 2.63906C6.14258 2.6488 6.14645 2.65814 6.15333 2.66503C6.16022 2.67191 6.16956 2.67578 6.1793 2.67578L10.8328 2.66875C10.838 2.66875 10.8429 2.66672 10.8466 2.66307C10.8503 2.65943 10.8525 2.65447 10.8527 2.64922C10.8642 2.32682 10.8645 2.0043 10.8535 1.68164C10.8507 1.59779 10.8378 1.53346 10.8148 1.48867C10.7815 1.42305 10.7335 1.37383 10.6707 1.34102C10.6173 1.31289 10.5259 1.29935 10.3965 1.30039C10.1309 1.30221 9.8651 1.29844 9.59922 1.28906C9.53724 1.28698 9.48568 1.26289 9.44453 1.2168Z" fill="#B9B9B9"/>
<path d="M8.49922 1.95742C8.6703 1.95742 8.80898 1.81874 8.80898 1.64766C8.80898 1.47658 8.6703 1.33789 8.49922 1.33789C8.32814 1.33789 8.18945 1.47658 8.18945 1.64766C8.18945 1.81874 8.32814 1.95742 8.49922 1.95742Z" fill="#B9B9B9"/>
<path d="M4.64268 2.7168C4.76273 2.79596 4.81351 2.90599 4.79502 3.04688C4.78382 3.13307 4.74007 3.19935 4.66377 3.2457C4.61507 3.27565 4.5432 3.29206 4.44814 3.29492C4.23903 3.30143 4.02992 3.3043 3.8208 3.30352C3.81825 3.30346 3.81572 3.30392 3.81336 3.30486C3.81099 3.3058 3.80883 3.3072 3.80701 3.30898C3.80519 3.31076 3.80375 3.31289 3.80276 3.31524C3.80178 3.31759 3.80127 3.32011 3.80127 3.32266L3.79893 16.0031C3.79893 16.0116 3.8023 16.0198 3.80831 16.0258C3.81431 16.0318 3.82246 16.0352 3.83096 16.0352C5.84085 16.0352 7.83538 16.0352 9.81455 16.0352C9.93252 16.0352 10.0209 16.076 10.0798 16.1578C10.1332 16.2323 10.1507 16.3177 10.1325 16.4141C10.114 16.5109 10.0597 16.5803 9.96963 16.6223C9.91833 16.646 9.83747 16.6578 9.72705 16.6578C7.70387 16.6604 5.6807 16.6612 3.65752 16.6602C3.50205 16.6602 3.39645 16.6464 3.34072 16.6187C3.22848 16.563 3.17236 16.4564 3.17236 16.2988C3.1734 11.8749 3.17393 7.45104 3.17393 3.02734C3.17393 2.88958 3.2195 2.79063 3.31064 2.73047C3.36611 2.69401 3.46117 2.67578 3.5958 2.67578C3.90804 2.67578 4.21156 2.67578 4.50635 2.67578C4.55583 2.67578 4.60127 2.68945 4.64268 2.7168Z" fill="#B9B9B9"/>
<path d="M13.1715 3.3033C12.8483 3.29913 12.6505 3.29848 12.5781 3.30135C12.4627 3.30603 12.3699 3.27713 12.2996 3.21463C12.2306 3.15291 12.197 3.07153 12.1988 2.97049C12.2009 2.8671 12.245 2.78741 12.3312 2.73142C12.3849 2.69653 12.4639 2.67869 12.5683 2.67791C12.847 2.67609 13.1255 2.67543 13.4039 2.67595C13.5317 2.67622 13.6228 2.6921 13.6769 2.72361C13.7709 2.77804 13.8181 2.8697 13.8183 2.99861C13.8212 4.03116 13.8204 6.89887 13.816 11.6017C13.816 11.6999 13.8023 11.774 13.775 11.824C13.7315 11.9029 13.6664 11.9513 13.5797 11.9693C13.4773 11.9901 13.3879 11.9697 13.3113 11.908C13.2324 11.8444 13.1931 11.749 13.1933 11.6217C13.1962 10.3045 13.1954 7.53832 13.191 3.32322C13.191 3.318 13.1889 3.313 13.1853 3.30927C13.1816 3.30554 13.1767 3.3034 13.1715 3.3033Z" fill="#B9B9B9"/>
<path d="M7.00883 6.5155C7.07394 6.62175 7.06092 6.74063 6.96977 6.87214C6.82654 7.07943 6.63188 7.2129 6.38579 7.27253C6.13553 7.33321 5.89972 7.29949 5.67836 7.17136C5.39008 7.00443 5.22576 6.75912 5.1854 6.43542C5.15987 6.23204 5.20245 6.03581 5.31313 5.84675C5.46599 5.58529 5.68396 5.42514 5.96704 5.36628C6.08917 5.34076 6.19386 5.34454 6.2811 5.37761C6.41652 5.42917 6.47537 5.53334 6.45766 5.69011C6.44777 5.77943 6.41274 5.84831 6.35258 5.89675C6.30363 5.93634 6.24646 5.9612 6.1811 5.97136C6.09256 5.9849 6.04764 5.99193 6.04633 5.99245C5.91144 6.03464 5.83279 6.12696 5.8104 6.26941C5.79243 6.38425 5.81873 6.47943 5.8893 6.55495C5.95258 6.62266 6.03305 6.66277 6.13071 6.67527C6.26378 6.69219 6.37433 6.63751 6.46235 6.5112C6.54672 6.38959 6.64724 6.33699 6.76391 6.35339C6.87068 6.3685 6.95232 6.42253 7.00883 6.5155Z" fill="#B9B9B9"/>
<path d="M10.5047 5.34375H8.15781C7.98975 5.34375 7.85352 5.47999 7.85352 5.64805V5.66289C7.85352 5.83095 7.98975 5.96719 8.15781 5.96719H10.5047C10.6727 5.96719 10.809 5.83095 10.809 5.66289V5.64805C10.809 5.47999 10.6727 5.34375 10.5047 5.34375Z" fill="#B9B9B9"/>
<path d="M11.5071 6.67969H8.16025C7.99112 6.67969 7.854 6.8168 7.854 6.98594V6.99687C7.854 7.16601 7.99112 7.30312 8.16025 7.30312H11.5071C11.6763 7.30312 11.8134 7.16601 11.8134 6.99687V6.98594C11.8134 6.8168 11.6763 6.67969 11.5071 6.67969Z" fill="#B9B9B9"/>
<path d="M10.5044 8.68359H8.1583C7.99024 8.68359 7.854 8.81983 7.854 8.98789V9.00273C7.854 9.17079 7.99024 9.30703 8.1583 9.30703H10.5044C10.6725 9.30703 10.8087 9.17079 10.8087 9.00273V8.98789C10.8087 8.81983 10.6725 8.68359 10.5044 8.68359Z" fill="#B9B9B9"/>
<path d="M6.90688 9.7446C7.01729 9.81777 7.06443 9.91126 7.04828 10.0251C7.0376 10.1001 6.99529 10.1833 6.92133 10.2747C6.73201 10.5083 6.49216 10.6301 6.2018 10.6403C5.9932 10.6476 5.80596 10.5994 5.64008 10.4958C5.52159 10.4216 5.42276 10.3252 5.34359 10.2067C5.26964 10.0952 5.22068 9.96973 5.19672 9.83014C5.13656 9.47572 5.25076 9.1722 5.5393 8.9196C5.68826 8.78939 5.8699 8.71361 6.08422 8.69225C6.21339 8.67949 6.3126 8.71035 6.38188 8.78483C6.44568 8.85358 6.47029 8.94199 6.4557 9.05007C6.43643 9.19538 6.34841 9.28145 6.19164 9.30827C6.09451 9.32494 6.03188 9.34043 6.00375 9.35475C5.85245 9.4321 5.78982 9.55046 5.81586 9.70983C5.83513 9.82806 5.88943 9.91478 5.97875 9.96999C6.07823 10.0314 6.19399 10.0344 6.32602 9.97897C6.36612 9.96204 6.40753 9.92676 6.45023 9.87311C6.50492 9.80462 6.53969 9.76426 6.55453 9.75202C6.66339 9.66348 6.78083 9.661 6.90688 9.7446Z" fill="#B9B9B9"/>
<path d="M11.5069 10.0215H8.15928C7.99014 10.0215 7.85303 10.1586 7.85303 10.3277V10.3387C7.85303 10.5078 7.99014 10.6449 8.15928 10.6449H11.5069C11.6761 10.6449 11.8132 10.5078 11.8132 10.3387V10.3277C11.8132 10.1586 11.6761 10.0215 11.5069 10.0215Z" fill="#B9B9B9"/>
<path d="M10.5047 12.0234H8.15781C7.98975 12.0234 7.85352 12.1597 7.85352 12.3277V12.3426C7.85352 12.5106 7.98975 12.6469 8.15781 12.6469H10.5047C10.6727 12.6469 10.809 12.5106 10.809 12.3426V12.3277C10.809 12.1597 10.6727 12.0234 10.5047 12.0234Z" fill="#B9B9B9"/>
<path d="M5.55508 13.7716C5.38997 13.6385 5.27865 13.4773 5.22109 13.288C5.16641 13.1075 5.16654 12.9212 5.22148 12.729C5.31081 12.4165 5.52422 12.1979 5.86172 12.0731C5.92656 12.0492 6.00378 12.0338 6.09336 12.027C6.23008 12.0166 6.33216 12.0553 6.39961 12.1431C6.46159 12.2238 6.47956 12.3174 6.45352 12.4239C6.42018 12.5609 6.31901 12.6377 6.15 12.6544C6.04271 12.6648 5.95898 12.7035 5.89883 12.7704C5.83997 12.8355 5.80977 12.9153 5.8082 13.0099C5.8069 13.0901 5.83138 13.1614 5.88164 13.2239C5.92643 13.2797 5.98594 13.3183 6.06016 13.3399C6.22161 13.3866 6.36055 13.3289 6.47695 13.1669C6.56133 13.0497 6.66445 13.005 6.78633 13.0329C6.88841 13.0561 6.96497 13.1117 7.01602 13.1997C7.07435 13.3007 7.06563 13.4087 6.98984 13.5235C6.78073 13.8399 6.48854 13.9937 6.11328 13.9849C5.91146 13.9802 5.72539 13.9091 5.55508 13.7716Z" fill="#B9B9B9"/>
<path d="M14.6168 20.0004H14.3629C13.6512 19.9613 13.0205 19.753 12.4707 19.3754C11.6009 18.778 11.0797 17.963 10.907 16.9305C10.8633 16.6685 10.8482 16.4093 10.8617 16.1527C10.8992 15.4465 11.1206 14.8093 11.5258 14.241C12.0357 13.5262 12.7128 13.0535 13.557 12.8231C13.811 12.7535 14.0675 12.7125 14.3266 12.7C15.1281 12.661 15.8662 12.8654 16.5406 13.3133C16.9599 13.5919 17.3099 13.9543 17.5906 14.4004C18.0417 15.1176 18.2263 15.8873 18.1445 16.7094C18.0802 17.3557 17.8578 17.9432 17.4774 18.4719C17.3253 18.6831 17.1517 18.8766 16.9567 19.0524C16.3077 19.6383 15.5278 19.9543 14.6168 20.0004ZM17.5332 16.3469C17.5332 15.5448 17.2146 14.7756 16.6474 14.2084C16.0803 13.6413 15.3111 13.3227 14.509 13.3227C13.7069 13.3227 12.9377 13.6413 12.3706 14.2084C11.8034 14.7756 11.4848 15.5448 11.4848 16.3469C11.4848 17.149 11.8034 17.9182 12.3706 18.4853C12.9377 19.0525 13.7069 19.3711 14.509 19.3711C15.3111 19.3711 16.0803 19.0525 16.6474 18.4853C17.2146 17.9182 17.5332 17.149 17.5332 16.3469Z" fill="#B9B9B9"/>
<path d="M10.5044 13.3613H8.1583C7.99024 13.3613 7.854 13.4976 7.854 13.6656V13.6805C7.854 13.8485 7.99024 13.9848 8.1583 13.9848H10.5044C10.6725 13.9848 10.8087 13.8485 10.8087 13.6805V13.6656C10.8087 13.4976 10.6725 13.3613 10.5044 13.3613Z" fill="#B9B9B9"/>
<path d="M16.0961 17.4974C16.1937 17.5974 16.2285 17.7012 16.2004 17.8087C16.1741 17.9103 16.1118 17.9825 16.0137 18.0255C15.935 18.0599 15.8547 18.0574 15.7727 18.0181C15.7292 17.9975 15.6699 17.9501 15.5949 17.8759C15.1441 17.4288 14.7043 16.9855 14.2754 16.5462C14.2246 16.4941 14.1992 16.4318 14.1992 16.3591C14.1992 15.645 14.1992 14.9348 14.1992 14.2282C14.1992 14.1582 14.2038 14.0987 14.2129 14.0497C14.2238 13.9914 14.251 13.9402 14.2945 13.8962C14.3992 13.7897 14.5229 13.7742 14.6656 13.8497C14.7706 13.9055 14.823 14.0056 14.823 14.1501C14.8225 14.8329 14.8237 15.5159 14.8266 16.199C14.8266 16.205 14.8278 16.211 14.8302 16.2167C14.8326 16.2223 14.8362 16.2274 14.8406 16.2318C15.263 16.6497 15.6815 17.0716 16.0961 17.4974Z" fill="#B9B9B9"/>
</g>
<defs>
<clipPath id="clip0_1156_13342">
<rect width="20" height="20" fill="white"/>
</clipPath>
</defs>
</svg>
