<svg width="20" height="20" viewBox="0 0 20 20" fill="none" xmlns="http://www.w3.org/2000/svg">
<g clip-path="url(#clip0_1156_13300)">
<path d="M14.6115 0H16.3693C16.9842 0.0859375 17.3753 0.402995 17.5428 0.951172C17.579 1.07018 17.5986 1.22591 17.6018 1.41836C17.6083 1.82331 17.6105 2.22813 17.6084 2.63281C17.6084 2.63724 17.609 2.76979 17.6104 3.03047C17.6117 3.28151 17.6008 3.47253 17.5779 3.60352C17.5251 3.9069 17.4131 4.19089 17.242 4.45547C17.2251 4.48151 17.2322 4.49414 17.2635 4.49336C17.6192 4.48164 17.9497 4.53919 18.2549 4.66602C18.496 4.76628 18.7117 4.90898 18.9018 5.09414C19.1874 5.37227 19.3794 5.70846 19.4775 6.10273C19.513 6.24414 19.5316 6.43503 19.5334 6.67539C19.5417 7.79023 19.5446 8.90508 19.542 10.0199C19.5409 10.454 19.5334 10.7139 19.5193 10.7996C19.4675 11.1139 19.3307 11.3902 19.1088 11.6285C18.89 11.8632 18.6115 12.0195 18.2732 12.0977C18.2678 12.099 18.263 12.1021 18.2595 12.1065C18.256 12.1109 18.2541 12.1163 18.2541 12.1219C18.2515 14.3641 18.2507 16.6061 18.2518 18.848C18.2518 19.1746 18.2312 19.3934 18.19 19.5043C18.0911 19.7702 17.8765 19.9354 17.5463 20H13.4154C13.0881 19.9367 12.8718 19.7638 12.7666 19.4813C12.732 19.3885 12.7146 19.2566 12.7146 19.0855C12.7146 16.7603 12.7146 14.4379 12.7146 12.1184C12.7146 12.1141 12.7133 12.1099 12.7107 12.1065C12.7082 12.1032 12.7046 12.1007 12.7006 12.0996C12.0415 11.9087 11.6364 11.519 11.4854 10.9305C11.4455 10.7753 11.4252 10.5243 11.4244 10.1777C11.4215 9.02669 11.4244 7.87552 11.433 6.72422C11.4348 6.45026 11.4542 6.2401 11.4912 6.09375C11.5454 5.87917 11.6303 5.67799 11.7459 5.49023C11.8592 5.3069 12.0002 5.14388 12.1689 5.00117C12.589 4.64648 13.0979 4.47708 13.6955 4.49297C13.74 4.49401 13.7494 4.4763 13.7236 4.43984C13.5062 4.13099 13.388 3.77734 13.3689 3.37891C13.3489 2.9625 13.3473 2.30859 13.3643 1.41719C13.3679 1.22526 13.3878 1.07018 13.424 0.951953C13.5936 0.398047 13.9894 0.0807292 14.6115 0ZM14.1166 0.855469C13.9973 1 13.942 1.16745 13.9506 1.35781C13.9568 1.49687 13.9558 1.63594 13.9475 1.775C13.9469 1.78528 13.9504 1.79536 13.9572 1.80309C13.964 1.81083 13.9735 1.81561 13.9838 1.81641C14.3176 1.84271 14.6113 1.75586 14.8646 1.55586C14.9175 1.51419 14.9615 1.48906 14.9967 1.48047C15.0511 1.46719 15.104 1.46836 15.1553 1.48398C15.1985 1.49727 15.2568 1.5401 15.3303 1.6125C15.7857 2.0612 16.3352 2.21549 16.9787 2.07539C16.9905 2.07285 17.001 2.06641 17.0087 2.05713C17.0163 2.04784 17.0206 2.03625 17.0209 2.02422C17.0243 1.8224 17.0235 1.62617 17.0186 1.43555C17.0141 1.2543 16.9903 1.11445 16.9471 1.01602C16.8609 0.819922 16.718 0.690755 16.5186 0.628516C16.4274 0.60013 16.2469 0.585938 15.9771 0.585938C15.6045 0.585938 15.232 0.585938 14.8596 0.585938C14.6661 0.585938 14.5329 0.597266 14.46 0.619922C14.3261 0.661589 14.2117 0.740104 14.1166 0.855469ZM13.9521 2.4207C13.9482 2.63841 13.9473 2.85781 13.9494 3.07891C13.9523 3.36693 13.9766 3.58385 14.0225 3.72969C14.0829 3.92083 14.177 4.09375 14.3049 4.24844C14.4252 4.39375 14.5745 4.51562 14.7529 4.61406C15.1683 4.84323 15.5955 4.87109 16.0346 4.69766C16.2541 4.61094 16.4394 4.48841 16.5904 4.33008C16.7511 4.16159 16.8678 3.9651 16.9404 3.74063C16.9831 3.60833 17.0087 3.43646 17.017 3.225C17.0238 3.05651 17.0248 2.88177 17.0201 2.70078C17.02 2.69611 17.0189 2.69151 17.0169 2.6873C17.0148 2.68309 17.0119 2.67937 17.0083 2.67637C17.0048 2.67337 17.0006 2.67118 16.9961 2.66993C16.9916 2.66869 16.9868 2.66842 16.9822 2.66914C16.8666 2.68659 16.7437 2.6974 16.6135 2.70156C16.0265 2.72031 15.5106 2.5418 15.0658 2.16602C15.0575 2.15894 15.0471 2.15465 15.0363 2.15374C15.0254 2.15283 15.0146 2.15535 15.0053 2.16094C14.699 2.34219 14.3553 2.42214 13.974 2.40078C13.9712 2.40062 13.9685 2.40102 13.9658 2.40194C13.9632 2.40287 13.9608 2.4043 13.9588 2.40616C13.9567 2.40802 13.9551 2.41027 13.9539 2.41277C13.9528 2.41527 13.9522 2.41797 13.9521 2.4207ZM12.3803 11.3109C12.5329 11.4406 12.7096 11.5133 12.9104 11.5289C13.0979 11.5435 13.2808 11.5475 13.4592 11.541C13.469 11.5407 13.4784 11.5366 13.4852 11.5295C13.4921 11.5224 13.4959 11.513 13.4959 11.5031C13.4959 10.1365 13.4959 8.77604 13.4959 7.42188C13.4959 7.33125 13.5205 7.25586 13.5697 7.1957C13.6161 7.13893 13.6811 7.10586 13.7646 7.09648C13.8844 7.0832 13.973 7.12513 14.0303 7.22227C14.0628 7.27747 14.0792 7.36341 14.0795 7.48008C14.0824 8.81523 14.0831 10.1581 14.0818 11.5086C14.0818 11.5177 14.0855 11.5265 14.0919 11.5329C14.0984 11.5393 14.1071 11.543 14.1162 11.543H16.8459C16.8562 11.543 16.866 11.5389 16.8732 11.5316C16.8805 11.5244 16.8846 11.5146 16.8846 11.5043C16.8846 10.166 16.8846 8.82474 16.8846 7.48047C16.8846 7.37057 16.8992 7.2888 16.9283 7.23516C16.9788 7.14271 17.0572 7.09583 17.1635 7.09453C17.2617 7.09349 17.338 7.12682 17.3924 7.19453C17.4458 7.2612 17.4718 7.35 17.4705 7.46094C17.4624 8.09479 17.4648 9.44635 17.4775 11.5156C17.4776 11.5211 17.4797 11.5263 17.4834 11.5303C17.4871 11.5343 17.4921 11.5367 17.4975 11.5371C17.6019 11.5447 17.7062 11.5466 17.8104 11.543C17.9708 11.5375 18.076 11.5309 18.126 11.523C18.2322 11.5069 18.3333 11.4716 18.4291 11.4172C18.6593 11.2862 18.8141 11.1076 18.8936 10.8813C18.9344 10.7651 18.9549 10.5465 18.9549 10.2254C18.9549 9.17695 18.9549 8.12852 18.9549 7.08008C18.9549 6.66471 18.9447 6.40495 18.9244 6.30078C18.8697 6.0224 18.7439 5.77682 18.5471 5.56406C18.3885 5.39245 18.199 5.2651 17.9787 5.18203C17.824 5.12396 17.6118 5.09023 17.342 5.08086C17.1206 5.07331 16.8992 5.07357 16.6775 5.08164C16.6213 5.08372 16.5662 5.09896 16.5123 5.12734C15.8167 5.48984 15.117 5.48177 14.4131 5.10313C14.3839 5.0875 14.3527 5.07943 14.3193 5.07891C14.0985 5.07604 13.8869 5.07643 13.6846 5.08008C13.426 5.08477 13.2303 5.10638 13.0975 5.14492C12.8988 5.20273 12.7215 5.29688 12.5658 5.42734C12.201 5.73281 12.0179 6.13398 12.0166 6.63086C12.0135 7.79544 12.0118 8.9599 12.0115 10.1242C12.0115 10.4727 12.0192 10.6822 12.0346 10.7527C12.0822 10.9697 12.1975 11.1557 12.3803 11.3109ZM15.2893 13.2129C15.4796 13.1001 15.6238 13.1215 15.7217 13.277C15.7532 13.3272 15.7689 13.3941 15.7689 13.4777C15.7708 15.4475 15.774 17.4173 15.7787 19.3871C15.7787 19.3923 15.7808 19.3973 15.7844 19.4011C15.7881 19.4048 15.793 19.4069 15.7982 19.407C16.3329 19.4154 16.8675 19.4177 17.4021 19.4141C17.5415 19.413 17.6258 19.3637 17.6553 19.266C17.6623 19.2428 17.6658 19.1589 17.6658 19.0141C17.6671 16.7263 17.6663 14.4385 17.6635 12.1508C17.6635 12.1456 17.6614 12.1406 17.6578 12.137C17.6541 12.1333 17.6491 12.1313 17.6439 12.1313C16.284 12.1284 14.9242 12.1293 13.5643 12.134C13.4859 12.1342 13.4101 12.1296 13.3369 12.1199C13.3324 12.1193 13.3278 12.1197 13.3234 12.121C13.3191 12.1223 13.315 12.1246 13.3116 12.1276C13.3082 12.1307 13.3054 12.1344 13.3035 12.1386C13.3016 12.1428 13.3006 12.1473 13.3006 12.152C13.3006 14.5129 13.3006 16.8685 13.3006 19.2188C13.3006 19.2987 13.3339 19.3551 13.4006 19.3879C13.4363 19.4053 13.4949 19.4141 13.5764 19.4141C14.0915 19.4141 14.6205 19.4141 15.1635 19.4141C15.1719 19.4141 15.1799 19.4107 15.1858 19.4048C15.1918 19.3989 15.1951 19.3908 15.1951 19.3824V13.3785C15.1951 13.3053 15.2265 13.2501 15.2893 13.2129Z" fill="#B6B6B6"/>
<path d="M5.46836 6.10781C5.46836 6.18158 5.45383 6.25462 5.4256 6.32277C5.39737 6.39092 5.356 6.45285 5.30384 6.50501C5.25168 6.55717 5.18975 6.59854 5.1216 6.62677C5.05345 6.655 4.98041 6.66953 4.90664 6.66953H1.0207C0.871726 6.66953 0.728851 6.61035 0.623508 6.50501C0.518165 6.39966 0.458984 6.25679 0.458984 6.10781V2.22188C0.458984 2.0729 0.518165 1.93002 0.623508 1.82468C0.728851 1.71934 0.871726 1.66016 1.0207 1.66016H4.90664C4.98041 1.66016 5.05345 1.67469 5.1216 1.70291C5.18975 1.73114 5.25168 1.77252 5.30384 1.82468C5.356 1.87684 5.39737 1.93876 5.4256 2.00691C5.45383 2.07507 5.46836 2.14811 5.46836 2.22188V6.10781ZM4.88242 2.27188C4.88242 2.26742 4.88065 2.26315 4.8775 2.26C4.87435 2.25685 4.87008 2.25508 4.86562 2.25508H1.06172C1.05726 2.25508 1.05299 2.25685 1.04984 2.26C1.04669 2.26315 1.04492 2.26742 1.04492 2.27188V6.06641C1.04492 6.07086 1.04669 6.07513 1.04984 6.07828C1.05299 6.08143 1.05726 6.0832 1.06172 6.0832H4.86562C4.87008 6.0832 4.87435 6.08143 4.8775 6.07828C4.88065 6.07513 4.88242 6.07086 4.88242 6.06641V2.27188Z" fill="#B6B6B6"/>
<path d="M9.97295 2.62695H6.31436C6.15557 2.62695 6.02686 2.75567 6.02686 2.91445V2.92461C6.02686 3.08339 6.15557 3.21211 6.31436 3.21211H9.97295C10.1317 3.21211 10.2604 3.08339 10.2604 2.92461V2.91445C10.2604 2.75567 10.1317 2.62695 9.97295 2.62695Z" fill="#B6B6B6"/>
<path d="M2.08206 4.43104C2.03023 4.38104 1.97971 4.32948 1.93049 4.27636C1.86904 4.21021 1.83075 4.15031 1.81565 4.09667C1.79221 4.01359 1.80328 3.9382 1.84885 3.8705C1.90172 3.79159 1.97424 3.74654 2.06643 3.73534C2.16331 3.72362 2.25172 3.76164 2.33167 3.8494C2.43922 3.96737 2.58075 4.10461 2.75628 4.26112C2.76033 4.2647 2.76555 4.26665 2.77091 4.26658C2.77627 4.26651 2.78136 4.26442 2.78518 4.26073C3.03857 4.01698 3.28896 3.77011 3.53635 3.52011C3.61474 3.44094 3.67685 3.3912 3.72268 3.37089C3.81148 3.33182 3.89677 3.3382 3.97854 3.39003C4.04859 3.43456 4.09325 3.49354 4.11253 3.56698C4.12711 3.62219 4.12463 3.67753 4.1051 3.733C4.09156 3.77102 4.06109 3.81464 4.0137 3.86386C3.69391 4.19641 3.36799 4.52297 3.03596 4.84354C2.94924 4.92714 2.87346 4.97427 2.80862 4.98495C2.73206 4.99771 2.66135 4.98013 2.59651 4.93221C2.59312 4.92961 2.54352 4.88117 2.44768 4.7869C2.32633 4.66789 2.20445 4.54927 2.08206 4.43104Z" fill="#B6B6B6"/>
<path d="M9.97256 3.87695H6.31475C6.15575 3.87695 6.02686 4.00585 6.02686 4.16484V4.17422C6.02686 4.33322 6.15575 4.46211 6.31475 4.46211H9.97256C10.1316 4.46211 10.2604 4.33322 10.2604 4.17422V4.16484C10.2604 4.00585 10.1316 3.87695 9.97256 3.87695Z" fill="#B6B6B6"/>
<path d="M8.78496 5.12695H6.3123C6.15439 5.12695 6.02637 5.25497 6.02637 5.41289V5.42617C6.02637 5.58409 6.15439 5.71211 6.3123 5.71211H8.78496C8.94288 5.71211 9.0709 5.58409 9.0709 5.42617V5.41289C9.0709 5.25497 8.94288 5.12695 8.78496 5.12695Z" fill="#B6B6B6"/>
<path d="M5.47173 11.9432C5.47186 12.0157 5.45771 12.0875 5.43009 12.1545C5.40246 12.2215 5.36191 12.2824 5.31075 12.3337C5.25959 12.3851 5.19881 12.4259 5.13189 12.4537C5.06498 12.4816 4.99323 12.496 4.92074 12.4961L1.01528 12.5029C0.942798 12.503 0.870999 12.4889 0.803984 12.4613C0.736969 12.4336 0.676051 12.3931 0.624708 12.3419C0.573365 12.2908 0.532602 12.23 0.504747 12.1631C0.476892 12.0961 0.46249 12.0244 0.462364 11.9519L0.455567 8.05583C0.45544 7.98335 0.469592 7.91155 0.497213 7.84453C0.524834 7.77752 0.565384 7.7166 0.616548 7.66526C0.667712 7.61391 0.728488 7.57315 0.795406 7.5453C0.862323 7.51744 0.934072 7.50304 1.00656 7.50291L4.91202 7.49609C4.9845 7.49597 5.0563 7.51012 5.12331 7.53774C5.19033 7.56536 5.25125 7.60591 5.30259 7.65708C5.35393 7.70824 5.3947 7.76902 5.42255 7.83594C5.45041 7.90285 5.46481 7.9746 5.46493 8.04709L5.47173 11.9432ZM4.88279 8.1077C4.88279 8.1018 4.88044 8.09614 4.87627 8.09196C4.87209 8.08778 4.86643 8.08544 4.86052 8.08544H1.06756C1.06165 8.08544 1.05599 8.08778 1.05181 8.09196C1.04764 8.09614 1.04529 8.1018 1.04529 8.1077V11.8913C1.04529 11.8972 1.04764 11.9029 1.05181 11.907C1.05599 11.9112 1.06165 11.9136 1.06756 11.9136H4.86052C4.86643 11.9136 4.87209 11.9112 4.87627 11.907C4.88044 11.9029 4.88279 11.8972 4.88279 11.8913V8.1077Z" fill="#B6B6B6"/>
<path d="M9.97285 8.45703H6.31426C6.15526 8.45703 6.02637 8.58592 6.02637 8.74492V8.7543C6.02637 8.91329 6.15526 9.04219 6.31426 9.04219H9.97285C10.1318 9.04219 10.2607 8.91329 10.2607 8.7543V8.74492C10.2607 8.58592 10.1318 8.45703 9.97285 8.45703Z" fill="#B6B6B6"/>
<path d="M4.06675 9.30808C4.13419 9.39767 4.1424 9.49233 4.09136 9.59207C4.06948 9.63504 4.01336 9.7017 3.923 9.79207C3.62039 10.0947 3.31779 10.3974 3.01518 10.7003C2.92482 10.7904 2.82925 10.8281 2.72846 10.8136C2.66414 10.8044 2.58849 10.7581 2.50151 10.6745C2.32156 10.5018 2.14396 10.327 1.9687 10.1499C1.9338 10.1145 1.90138 10.0771 1.87143 10.0378C1.8368 9.99246 1.81544 9.94897 1.80737 9.9073C1.79409 9.83855 1.80438 9.77566 1.83823 9.71863C1.91011 9.59754 2.00789 9.54702 2.13159 9.56707C2.19331 9.57723 2.25906 9.61551 2.32886 9.68191C2.46453 9.8103 2.60451 9.94897 2.74878 10.0979C2.75129 10.1005 2.7543 10.1026 2.75762 10.104C2.76094 10.1054 2.76451 10.1061 2.76811 10.1061C2.77172 10.1061 2.77529 10.1054 2.77861 10.104C2.78193 10.1026 2.78494 10.1005 2.78745 10.0979C3.07964 9.80314 3.36466 9.51967 3.64253 9.24754C3.71154 9.17983 3.79123 9.15756 3.88159 9.18074C3.95581 9.19975 4.01753 9.2422 4.06675 9.30808Z" fill="#B6B6B6"/>
<path d="M9.97285 9.70703H6.31426C6.15526 9.70703 6.02637 9.83592 6.02637 9.99492V10.0043C6.02637 10.1633 6.15526 10.2922 6.31426 10.2922H9.97285C10.1318 10.2922 10.2607 10.1633 10.2607 10.0043V9.99492C10.2607 9.83592 10.1318 9.70703 9.97285 9.70703Z" fill="#B6B6B6"/>
<path d="M8.78467 10.959H6.31279C6.15487 10.959 6.02686 11.087 6.02686 11.2449V11.2574C6.02686 11.4153 6.15487 11.5434 6.31279 11.5434H8.78467C8.94259 11.5434 9.07061 11.4153 9.07061 11.2574V11.2449C9.07061 11.087 8.94259 10.959 8.78467 10.959Z" fill="#B6B6B6"/>
<path d="M5.46836 17.7789C5.46836 17.8513 5.4541 17.923 5.4264 17.9898C5.39871 18.0567 5.35811 18.1175 5.30692 18.1686C5.25574 18.2198 5.19498 18.2604 5.12811 18.2881C5.06124 18.3158 4.98957 18.3301 4.91719 18.3301H1.01016C0.863976 18.3301 0.723784 18.272 0.620419 18.1686C0.517054 18.0653 0.458984 17.9251 0.458984 17.7789V13.8812C0.458984 13.7351 0.517054 13.5949 0.620419 13.4915C0.723784 13.3881 0.863976 13.3301 1.01016 13.3301H4.91719C4.98957 13.3301 5.06124 13.3443 5.12811 13.372C5.19498 13.3997 5.25574 13.4403 5.30692 13.4915C5.35811 13.5427 5.39871 13.6035 5.4264 13.6703C5.4541 13.7372 5.46836 13.8089 5.46836 13.8812V17.7789ZM4.8832 13.9395C4.8832 13.9364 4.8826 13.9333 4.88142 13.9305C4.88024 13.9276 4.87851 13.9251 4.87634 13.9229C4.87416 13.9207 4.87158 13.919 4.86873 13.9178C4.86589 13.9166 4.86284 13.916 4.85977 13.916H1.06836C1.06528 13.916 1.06223 13.9166 1.05939 13.9178C1.05655 13.919 1.05396 13.9207 1.05179 13.9229C1.04961 13.9251 1.04788 13.9276 1.04671 13.9305C1.04553 13.9333 1.04492 13.9364 1.04492 13.9395V17.7309C1.04492 17.7371 1.04739 17.743 1.05179 17.7474C1.05618 17.7518 1.06214 17.7543 1.06836 17.7543H4.85977C4.86598 17.7543 4.87194 17.7518 4.87634 17.7474C4.88073 17.743 4.8832 17.7371 4.8832 17.7309V13.9395Z" fill="#B6B6B6"/>
<path d="M9.97246 14.2871H6.31387C6.15509 14.2871 6.02637 14.4158 6.02637 14.5746V14.5848C6.02637 14.7435 6.15509 14.8723 6.31387 14.8723H9.97246C10.1312 14.8723 10.26 14.7435 10.26 14.5848V14.5746C10.26 14.4158 10.1312 14.2871 9.97246 14.2871Z" fill="#B6B6B6"/>
<path d="M2.34463 15.5274C2.47328 15.649 2.60687 15.7813 2.74541 15.9242C2.74834 15.9274 2.75187 15.9298 2.75578 15.9315C2.75969 15.9333 2.76391 15.9342 2.76818 15.9342C2.77245 15.9342 2.77668 15.9334 2.78063 15.9318C2.78457 15.9301 2.78813 15.9277 2.79111 15.9246C3.06091 15.6502 3.32484 15.3883 3.58291 15.1391C3.65505 15.0693 3.71651 15.0275 3.76729 15.0137C3.85166 14.9905 3.93057 15.0085 4.00401 15.0676C4.11703 15.159 4.15309 15.2625 4.11221 15.3782C4.09216 15.4347 4.03408 15.5114 3.93799 15.6082C3.63018 15.9189 3.3195 16.2267 3.00596 16.5317C2.93903 16.597 2.87927 16.636 2.82666 16.6485C2.74437 16.6683 2.66885 16.6516 2.6001 16.5985C2.49749 16.5188 2.27562 16.2986 1.93447 15.9379C1.86182 15.8608 1.81924 15.7908 1.80674 15.7278C1.78252 15.6028 1.83213 15.5039 1.95557 15.4313C2.02822 15.3888 2.10192 15.3806 2.17666 15.4067C2.21963 15.4218 2.27562 15.462 2.34463 15.5274Z" fill="#B6B6B6"/>
<path d="M9.97324 15.5371H6.31387C6.15509 15.5371 6.02637 15.6658 6.02637 15.8246V15.8348C6.02637 15.9935 6.15509 16.1223 6.31387 16.1223H9.97324C10.132 16.1223 10.2607 15.9935 10.2607 15.8348V15.8246C10.2607 15.6658 10.132 15.5371 9.97324 15.5371Z" fill="#B6B6B6"/>
<path d="M8.78438 16.7891H6.31328C6.15536 16.7891 6.02734 16.9171 6.02734 17.075V17.0875C6.02734 17.2454 6.15536 17.3734 6.31328 17.3734H8.78438C8.94229 17.3734 9.07031 17.2454 9.07031 17.0875V17.075C9.07031 16.9171 8.94229 16.7891 8.78438 16.7891Z" fill="#B6B6B6"/>
</g>
<defs>
<clipPath id="clip0_1156_13300">
<rect width="20" height="20" fill="white"/>
</clipPath>
</defs>
</svg>
